<?xml version="1.0" encoding="UTF-8"?>
<svg width="96px" height="83px" viewBox="0 0 96 83" version="1.1" xmlns="http://www.w3.org/2000/svg" xmlns:xlink="http://www.w3.org/1999/xlink">
    <!-- Generator: Sketch 56.3 (81716) - https://sketch.com -->
    <title>Money / Color</title>
    <desc>Created with Sketch.</desc>
    <defs>
        <linearGradient x1="-32.3727142%" y1="-9.25704451%" x2="119.015415%" y2="102.112806%" id="linearGradient-1">
            <stop stop-color="#00DBDE" offset="0%"></stop>
            <stop stop-color="#F407FE" offset="100%"></stop>
        </linearGradient>
        <linearGradient x1="-5.41869051%" y1="47.5336527%" x2="116.238244%" y2="51.72035%" id="linearGradient-2">
            <stop stop-color="#C432F8" offset="0%"></stop>
            <stop stop-color="#42A2E7" offset="100%"></stop>
        </linearGradient>
        <path d="M0.764266304,82.8910496 C0.286599864,82.8910496 0,82.5925081 0,82.0909583 L0,66.3279658 C0,65.7189411 0.406016474,65.3248663 1.01504119,65.3248663 C1.56435759,65.3248663 1.88678244,65.5875828 2.13755732,66.1727242 L8.26362942,80.5743674 L8.33527938,80.5743674 L14.4374682,66.1727242 C14.688243,65.5875828 15.0345512,65.3248663 15.5838676,65.3248663 C16.1928923,65.3248663 16.5989088,65.7189411 16.5989088,66.3279658 L16.5989088,82.0909583 C16.5989088,82.5925081 16.3123089,82.8910496 15.8346425,82.8910496 C15.3569761,82.8910496 15.0703762,82.5925081 15.0703762,82.0909583 L15.0703762,68.5849397 L14.9987262,68.5849397 L9.29061226,81.9596 C9.07566236,82.4611498 8.77712084,82.6760997 8.2994544,82.6760997 C7.82178796,82.6760997 7.51130477,82.4611498 7.30829654,81.9834834 L1.60018257,68.5849397 L1.52853261,68.5849397 L1.52853261,82.0909583 C1.52853261,82.5925081 1.22999108,82.8910496 0.764266304,82.8910496 Z M31.0284158,82.9985245 C26.2278681,82.9985245 23.2066279,79.5712678 23.2066279,74.1139288 C23.2066279,68.6565897 26.2278681,65.2173913 31.0284158,65.2173913 C35.8289636,65.2173913 38.8621455,68.6565897 38.8621455,74.1139288 C38.8621455,79.5712678 35.8409052,82.9985245 31.0284158,82.9985245 Z M31.0284158,81.4819336 C34.8019807,81.4819336 37.1903129,78.6278766 37.1903129,74.1139288 C37.1903129,69.5880392 34.8019807,66.7339823 31.0284158,66.7339823 C27.254851,66.7339823 24.8784604,69.5880392 24.8784604,74.1139288 C24.8784604,78.6278766 27.254851,81.4819336 31.0284158,81.4819336 Z M46.2699558,82.8910496 C45.7803477,82.8910496 45.4698646,82.5686247 45.4698646,82.0431917 L45.4698646,66.2682575 C45.4698646,65.6950577 45.840056,65.3248663 46.4013141,65.3248663 C46.8312139,65.3248663 47.0581055,65.4562245 47.3447053,65.8741827 L57.184634,79.881751 L57.2682256,79.881751 L57.2682256,66.1727242 C57.2682256,65.6472911 57.5787088,65.3248663 58.0802586,65.3248663 C58.5698667,65.3248663 58.8803499,65.6472911 58.8803499,66.1727242 L58.8803499,82.0193083 C58.8803499,82.5686247 58.5459834,82.8910496 57.9847253,82.8910496 C57.5548255,82.8910496 57.3518173,82.7835746 57.0652174,82.3775582 L47.1655804,68.3222232 L47.0819888,68.3222232 L47.0819888,82.0431917 C47.0819888,82.5686247 46.7715056,82.8910496 46.2699558,82.8910496 Z M66.9927182,82.7238663 C66.4911685,82.7238663 66.1806853,82.4014415 66.1806853,81.8760084 L66.1806853,66.3399074 C66.1806853,65.8144744 66.4911685,65.4920495 66.9927182,65.4920495 L75.9609057,65.4920495 C76.4266304,65.4920495 76.7490553,65.790591 76.7490553,66.2324325 C76.7490553,66.6623323 76.4266304,66.9728155 75.9609057,66.9728155 L67.8047512,66.9728155 L67.8047512,73.1705375 L75.5310059,73.1705375 C75.9967306,73.1705375 76.3072138,73.4690791 76.3072138,73.8989789 C76.3072138,74.3288787 75.9967306,74.6274202 75.5310059,74.6274202 L67.8047512,74.6274202 L67.8047512,81.2431004 L75.9609057,81.2431004 C76.4266304,81.2431004 76.7490553,81.5535836 76.7490553,81.9834834 C76.7490553,82.4253248 76.4266304,82.7238663 75.9609057,82.7238663 L66.9927182,82.7238663 Z M89.112655,82.8910496 C88.6111052,82.8910496 88.2886804,82.5686247 88.2886804,82.0431917 L88.2886804,75.2722699 L82.5208581,66.5906823 C82.3894998,66.3876741 82.3536748,66.2324325 82.3536748,66.0413659 C82.3536748,65.6353494 82.699983,65.3248663 83.1418245,65.3248663 C83.476191,65.3248663 83.6672576,65.4442829 83.8702658,65.754766 L89.07683,73.6720873 L89.1365383,73.6720873 L94.3431025,65.754766 C94.5461107,65.4442829 94.7371773,65.3248663 95.0715438,65.3248663 C95.5133853,65.3248663 95.8596934,65.6353494 95.8596934,66.0413659 C95.8596934,66.2324325 95.8119268,66.3876741 95.6805685,66.5906823 L89.9246879,75.2722699 L89.9246879,82.0431917 C89.9246879,82.5686247 89.6022631,82.8910496 89.112655,82.8910496 Z" id="path-3"></path>
    </defs>
    <g id="Page-1" stroke="none" stroke-width="1" fill="none" fill-rule="evenodd">
        <g id="Launch-Screen" transform="translate(-140.000000, -365.000000)">
            <g id="Money-/-Color" transform="translate(140.000000, 365.000000)">
                <path d="M52.9795193,9.05356498 L48.5054348,13.9689692 L44.0313503,9.05356498 C42.2978199,7.14904078 39.8644281,6.04994009 37.2400291,6.04994009 C32.1704862,6.04994009 28.0608097,10.1596166 28.0608097,15.2291595 L28.0608097,36.9447535 C28.0608097,42.0142964 32.1704862,46.123973 37.2400291,46.123973 C39.8644281,46.123973 42.2978199,45.0248723 44.0313503,43.1203481 L48.5054348,38.2049439 L52.9795193,43.1203481 C54.7130496,45.0248723 57.1464414,46.123973 59.7708405,46.123973 C64.8403834,46.123973 68.9500599,42.0142964 68.9500599,36.9447535 L68.9500599,15.2291595 C68.9500599,10.1596166 64.8403834,6.04994009 59.7708405,6.04994009 C57.1464414,6.04994009 54.7130496,7.14904078 52.9795193,9.05356498 Z" id="Combined-Shape" stroke="url(#linearGradient-1)" stroke-width="12.0998802"></path>
                <g id="MONEY" fill-rule="nonzero">
                    <use fill="#1D1D1D" xlink:href="#path-3"></use>
                    <use fill="url(#linearGradient-2)" xlink:href="#path-3"></use>
                </g>
            </g>
        </g>
    </g>
</svg>