<?xml version="1.0" encoding="UTF-8"?>
<svg width="21px" height="25px" viewBox="0 0 21 25" version="1.1" xmlns="http://www.w3.org/2000/svg" xmlns:xlink="http://www.w3.org/1999/xlink">
    <!-- Generator: Sketch 56.3 (81716) - https://sketch.com -->
    <title>bell-53</title>
    <desc>Created with Sketch.</desc>
    <g id="Page-1" stroke="none" stroke-width="1" fill="none" fill-rule="evenodd" stroke-linecap="square">
        <g id="Homepage" transform="translate(-179.000000, -742.000000)" stroke="#3A3A3A" stroke-width="1.04545455">
            <g id="Tab-Bar" transform="translate(0.000000, 720.000000)">
                <g id="Tabs" transform="translate(66.000000, 23.000000)">
                    <g id="bell-53" transform="translate(114.000000, 0.000000)">
                        <path d="M12.5454545,19.8636364 C12.5454545,21.5886364 11.1340909,23 9.40909091,23 C7.68409091,23 6.27272727,21.5886364 6.27272727,19.8636364" id="Path"></path>
                        <path d="M16.7272727,12.5454545 C16.7272727,9.87954545 16.7272727,7.31818182 16.7272727,7.31818182 C16.7272727,3.29318182 13.4340909,-1.65201186e-13 9.40909091,-1.65201186e-13 C5.38409091,-1.65201186e-13 2.09090909,3.29318182 2.09090909,7.31818182 C2.09090909,7.31818182 2.09090909,9.87954545 2.09090909,12.5454545 C2.09090909,16.7272727 8.34887715e-14,19.8636364 8.34887715e-14,19.8636364 L18.8181818,19.8636364 C18.8181818,19.8636364 16.7272727,16.7272727 16.7272727,12.5454545 Z" id="Path"></path>
                    </g>
                </g>
            </g>
        </g>
    </g>
</svg>