<?xml version="1.0" encoding="UTF-8"?>
<svg width="26px" height="24px" viewBox="0 0 26 24" version="1.1" xmlns="http://www.w3.org/2000/svg" xmlns:xlink="http://www.w3.org/1999/xlink">
    <!-- Generator: Sketch 56.3 (81716) - https://sketch.com -->
    <title>Wallet</title>
    <desc>Created with Sketch.</desc>
    <g id="Page-1" stroke="none" stroke-width="1" fill="none" fill-rule="evenodd" stroke-linecap="square">
        <g id="Homepage" transform="translate(-65.000000, -742.000000)" stroke="#2B47FC" stroke-width="1.05">
            <g id="Tab-Bar" transform="translate(0.000000, 720.000000)">
                <g id="Tabs" transform="translate(66.000000, 23.000000)">
                    <g id="Wallet">
                        <path d="M21.6,11.2 L21.6,4.8 L16.8,4.8 L6.4,4.8 L2.4,4.8 C1.0744,4.8 0,3.7256 0,2.4 L0,19.2 C0,20.9672 1.4328,22.4 3.2,22.4 L21.6,22.4 L21.6,16" id="Path"></path>
                        <path d="M24,16 L18.4,16 C17.0744,16 16,14.9256 16,13.6 L16,13.6 C16,12.2744 17.0744,11.2 18.4,11.2 L24,11.2 L24,16 Z" id="Path"></path>
                        <path d="M16.8,1.6 L16.8,0 L2.4,0 C1.0744,0 0,1.0744 0,2.4 L0,2.4 C0,3.7256 1.0744,4.8 2.4,4.8" id="Path"></path>
                    </g>
                </g>
            </g>
        </g>
    </g>
</svg>