<?xml version="1.0" encoding="UTF-8"?>
<svg width="223px" height="233px" viewBox="0 0 223 233" version="1.1" xmlns="http://www.w3.org/2000/svg" xmlns:xlink="http://www.w3.org/1999/xlink">
    <!-- Generator: Sketch 56.3 (81716) - https://sketch.com -->
    <title>undraw_confirmed_81ex (1)</title>
    <desc>Created with Sketch.</desc>
    <defs>
        <linearGradient x1="50.003653%" y1="100.017289%" x2="50.003653%" y2="0.00485949042%" id="linearGradient-1">
            <stop stop-color="#808080" stop-opacity="0.25" offset="0%"></stop>
            <stop stop-color="#808080" stop-opacity="0.12" offset="54%"></stop>
            <stop stop-color="#808080" stop-opacity="0.1" offset="100%"></stop>
        </linearGradient>
        <linearGradient x1="49.9976804%" y1="100.008202%" x2="49.9976804%" y2="-0.00680853856%" id="linearGradient-2">
            <stop stop-color="#808080" stop-opacity="0.25" offset="0%"></stop>
            <stop stop-color="#808080" stop-opacity="0.12" offset="54%"></stop>
            <stop stop-color="#808080" stop-opacity="0.1" offset="100%"></stop>
        </linearGradient>
        <linearGradient x1="50%" y1="99.9982817%" x2="50%" y2="-0.00171833116%" id="linearGradient-3">
            <stop stop-color="#808080" stop-opacity="0.25" offset="0%"></stop>
            <stop stop-color="#808080" stop-opacity="0.12" offset="54%"></stop>
            <stop stop-color="#808080" stop-opacity="0.1" offset="100%"></stop>
        </linearGradient>
        <linearGradient x1="49.9948145%" y1="99.9950289%" x2="49.9948145%" y2="-0.00558638589%" id="linearGradient-4">
            <stop stop-color="#808080" stop-opacity="0.25" offset="0%"></stop>
            <stop stop-color="#808080" stop-opacity="0.12" offset="54%"></stop>
            <stop stop-color="#808080" stop-opacity="0.1" offset="100%"></stop>
        </linearGradient>
        <linearGradient x1="50.0067568%" y1="99.9710145%" x2="50.0067568%" y2="-0.0289855072%" id="linearGradient-5">
            <stop stop-color="#808080" stop-opacity="0.25" offset="0%"></stop>
            <stop stop-color="#808080" stop-opacity="0.12" offset="54%"></stop>
            <stop stop-color="#808080" stop-opacity="0.1" offset="100%"></stop>
        </linearGradient>
        <linearGradient x1="49.9899817%" y1="100.001834%" x2="49.9899817%" y2="0.00626914661%" id="linearGradient-6">
            <stop stop-color="#808080" stop-opacity="0.25" offset="0%"></stop>
            <stop stop-color="#808080" stop-opacity="0.12" offset="54%"></stop>
            <stop stop-color="#808080" stop-opacity="0.1" offset="100%"></stop>
        </linearGradient>
        <linearGradient x1="50.0059346%" y1="100.000373%" x2="50.0059346%" y2="-0.00950424519%" id="linearGradient-7">
            <stop stop-color="#808080" stop-opacity="0.25" offset="0%"></stop>
            <stop stop-color="#808080" stop-opacity="0.12" offset="54%"></stop>
            <stop stop-color="#808080" stop-opacity="0.1" offset="100%"></stop>
        </linearGradient>
        <linearGradient x1="50%" y1="100%" x2="50%" y2="-0.00555926173%" id="linearGradient-8">
            <stop stop-color="#808080" stop-opacity="0.25" offset="0%"></stop>
            <stop stop-color="#808080" stop-opacity="0.12" offset="54%"></stop>
            <stop stop-color="#808080" stop-opacity="0.1" offset="100%"></stop>
        </linearGradient>
        <linearGradient x1="49.9970588%" y1="100.02659%" x2="49.9970588%" y2="0.0244947163%" id="linearGradient-9">
            <stop stop-color="#808080" stop-opacity="0.25" offset="0%"></stop>
            <stop stop-color="#808080" stop-opacity="0.12" offset="54%"></stop>
            <stop stop-color="#808080" stop-opacity="0.1" offset="100%"></stop>
        </linearGradient>
    </defs>
    <g id="Page-1" stroke="none" stroke-width="1" fill="none" fill-rule="evenodd">
        <g id="OTP" transform="translate(-76.000000, -100.000000)">
            <g id="undraw_confirmed_81ex-(1)" transform="translate(77.000000, 100.000000)">
                <path d="M110.5,212.580514 C160.847659,212.580514 201.6625,171.765672 201.6625,121.418014 C201.6625,71.0703554 160.847659,30.2555139 110.5,30.2555139 C60.1523415,30.2555139 19.3375,71.0703554 19.3375,121.418014 C19.3375,171.765672 60.1523415,212.580514 110.5,212.580514 Z" id="Oval" stroke="#3AD29F" stroke-width="0.613888889" stroke-dasharray="3.683333333333334"></path>
                <path d="M110.5,231.918014 C171.527465,231.918014 221,182.445479 221,121.418014 C221,60.390549 171.527465,10.9180139 110.5,10.9180139 C49.4725351,10.9180139 0,60.390549 0,121.418014 C0,182.445479 49.4725351,231.918014 110.5,231.918014 Z" id="Oval" stroke="#3AD29F" stroke-width="0.613888889" stroke-dasharray="3.683333333333334"></path>
                <path d="M184.455195,156.621472 C184.458335,143.756478 174.670491,133.002392 161.862004,131.797917 C149.053517,130.593442 137.432422,139.334289 135.037139,151.974333 L58.426875,149.896319 L59.2679028,163.058097 C59.2679028,163.058097 48.34375,188.264375 105.757708,194.980319 L105.757708,220.456708 L172.131375,220.456708 L172.131375,178.098375 C179.758292,173.63243 184.44794,165.459712 184.455195,156.621472 Z" id="Path" fill="url(#linearGradient-1)" fill-rule="nonzero"></path>
                <path d="M61.8984167,163.610597 C61.8984167,163.610597 51.43775,187.748708 106.420708,194.188403 L106.420708,218.596625 L169.985833,218.596625 L169.985833,153.957194 L61.0819444,151.004389 L61.8984167,163.610597 Z" id="Path" fill="#BE7C5E" fill-rule="nonzero"></path>
                <path d="M93.6671667,62.8806389 L93.6671667,62.8806389 C90.2167955,68.3252816 83.0170767,69.961332 77.5525833,66.5424861 L43.4234306,44.0526667 C37.9787879,40.6022955 36.3427375,33.4025767 39.7615833,27.9380833 L39.7615833,27.9380833 C43.2114511,22.5009151 50.4019555,20.8657126 55.8638889,24.2762361 L89.9930417,46.7660556 C95.4420142,50.21239 97.0837439,57.4129591 93.6671667,62.8806389 Z" id="Path" fill="url(#linearGradient-2)" fill-rule="nonzero"></path>
                <path d="M91.7763889,61.6528611 L91.7763889,61.6528611 C88.5691837,66.7137548 81.8769626,68.2345895 76.7975,65.056875 L45.0625139,44.1355417 C40.0016202,40.9283365 38.4807855,34.2361154 41.6585,29.1566528 L41.6585,29.1566528 C44.8657052,24.0957591 51.5579263,22.5749244 56.6373889,25.7526389 L88.3662361,46.6616944 C93.4367795,49.8673748 94.961305,56.5692496 91.7763889,61.6528611 Z" id="Path" fill="#BE7C5E" fill-rule="nonzero"></path>
                <circle id="Oval" fill="#BE7C5E" fill-rule="nonzero" cx="157.919847" cy="157.444083" r="23.8710694"></circle>
                <rect id="Rectangle" fill="url(#linearGradient-3)" fill-rule="nonzero" x="58.4176667" y="0" width="98.9650278" height="178.629389" rx="3.76006944"></rect>
                <rect id="Rectangle" fill="#FFFFFF" fill-rule="nonzero" x="59.752875" y="2.41565278" width="96.2884722" height="173.804222" rx="4.18672222"></rect>
                <path d="M132.087403,6.7742626 C131.511842,10.5828454 128.244115,13.4021883 124.392306,13.4134722 L91.1379444,13.4134722 C87.2872999,13.4006768 84.0212997,10.581699 83.4459167,6.7742626 L65.8273056,6.7742626 C64.8572197,6.7742626 63.9265873,7.15824365 63.2403449,7.84391025 C62.5541026,8.52957686 62.1685265,9.45988604 62.1685265,10.4299722 L62.1685265,168.199417 C62.1685265,169.169503 62.5525075,170.100135 63.2381741,170.786377 C63.9238407,171.47262 64.8541499,171.858196 65.8242361,171.858196 L149.969986,171.858196 C150.940072,171.858196 151.870704,171.474215 152.556947,170.788548 C153.243189,170.102881 153.628765,169.172572 153.628765,168.202486 L153.628765,10.4330417 C153.628765,9.46295583 153.244784,8.53232336 152.559118,7.84608105 C151.873451,7.15983874 150.943142,6.7742626 149.973056,6.7742626 L132.087403,6.7742626 Z" id="Path" fill="#2F56F8" fill-rule="nonzero"></path>
                <rect id="Rectangle" fill="#DBDBDB" fill-rule="nonzero" x="97.3044583" y="8.85227778" width="21.4584861" height="1.34134722" rx="0.613888889"></rect>
                <circle id="Oval" fill="#DBDBDB" fill-rule="nonzero" cx="123.321069" cy="9.38943056" r="1"></circle>
                <path d="M173.349944,161.655361 L173.349944,161.655361 C166.422208,163.257611 161.667639,158.739389 160.065389,151.814722 L144.14725,92.7064306 C142.563418,85.7548954 146.889605,78.8288831 153.831347,77.2026667 L153.831347,77.2026667 C160.782882,75.6188351 167.708895,79.9450218 169.335111,86.8867639 L182.325,147.520569 C183.92725,154.448306 180.274611,160.053111 173.349944,161.655361 Z" id="Path" fill="url(#linearGradient-4)" fill-rule="nonzero"></path>
                <rect id="Rectangle" fill="#BE7C5E" fill-rule="nonzero" transform="translate(164.283841, 122.454633) rotate(-13.010000) translate(-164.283841, -122.454633) " x="153.421077" y="79.0818487" width="21.7255278" height="86.7455694" rx="10.8627639"></rect>
                <rect id="Rectangle" fill="url(#linearGradient-5)" fill-rule="nonzero" x="90.8340694" y="210.609931" width="90.8555556" height="21.1791667"></rect>
                <rect id="Rectangle" fill="#4D8AF0" fill-rule="nonzero" x="93.289625" y="213.065486" width="85.9444444" height="16.575"></rect>
                <path d="M80.4194444,126.289222 L80.4194444,126.289222 C77.0109892,131.669144 69.8973515,133.286067 64.4982361,129.908097 L41.6093889,115.098028 C36.229467,111.689573 34.6125441,104.575935 37.9905139,99.1768194 L37.9905139,99.1768194 C41.3989691,93.7968975 48.5126068,92.1799747 53.9117222,95.5579444 L76.8005694,110.368014 C82.1804914,113.776469 83.7974142,120.890107 80.4194444,126.289222 L80.4194444,126.289222 Z" id="Path" fill="url(#linearGradient-6)" fill-rule="nonzero"></path>
                <path d="M74.6734444,157.637458 L74.6734444,157.637458 C71.2346116,163.066736 64.0562079,164.698815 58.6079722,161.290097 L44.4302083,150.952208 C39.0009305,147.513376 37.3688517,140.334972 40.7775694,134.886736 L40.7775694,134.886736 C44.2164022,129.457458 51.394806,127.825379 56.8430417,131.234097 L71.0208056,141.575056 C76.4482135,145.013764 78.0800799,152.189862 74.6734444,157.637458 L74.6734444,157.637458 Z" id="Path" fill="url(#linearGradient-7)" fill-rule="nonzero"></path>
                <g id="Group" opacity="0.5" transform="translate(80.112500, 61.695833)" fill="url(#linearGradient-8)" fill-rule="nonzero">
                    <circle id="Oval" cx="27.7846111" cy="27.6219306" r="27.6065833"></circle>
                </g>
                <circle id="Oval" fill="#69F0AE" fill-rule="nonzero" cx="107.897111" cy="89.3177639" r="25.9828472"></circle>
                <polygon id="Path" fill="#FFFFFF" fill-rule="nonzero" points="96.6199722 85.8492917 106.362389 94.781375 120.165681 74.4831389 125.039958 78.5440139 106.362389 102.903125 92.5590972 87.4760972"></polygon>
                <path d="M73.5285417,156.867028 L73.5285417,156.867028 C70.3213365,161.927921 63.6291154,163.448756 58.5496528,160.271042 L45.3264861,150.645264 C40.2655924,147.438059 38.7447578,140.745838 41.9224722,135.666375 L41.9224722,135.666375 C45.1296774,130.605481 51.8218985,129.084647 56.9013611,132.262361 L70.1214583,141.906556 C75.1722283,145.111995 76.6932102,151.790613 73.5285417,156.867028 L73.5285417,156.867028 Z" id="Path" fill="#BE7C5E" fill-rule="nonzero"></path>
                <path d="M79.1609722,125.475819 L79.1609722,125.475819 C75.9537671,130.536713 69.261546,132.057548 64.1820833,128.879833 L42.6468611,114.944556 C37.5859674,111.73735 36.0651328,105.045129 39.2428472,99.9656667 L39.2428472,99.9656667 C42.4500524,94.904773 49.1422735,93.3839383 54.2217361,96.5616528 L75.7569583,110.496931 C80.817852,113.704136 82.3386867,120.396357 79.1609722,125.475819 Z" id="Path" fill="#BE7C5E" fill-rule="nonzero"></path>
                <path d="M86.3373333,95.0883194 L86.3373333,95.0883194 C82.9120753,100.49183 75.7663585,102.11542 70.3424583,98.7225417 L41.3362083,79.83625 C35.9326979,76.410992 34.3091077,69.2652752 37.7019861,63.841375 L37.7019861,63.841375 C41.1272441,58.4378646 48.2729609,56.8142744 53.6968611,60.2071528 L82.7031111,79.0934444 C88.1066215,82.5187025 89.7302118,89.6644192 86.3373333,95.0883194 Z" id="Path" fill="url(#linearGradient-9)" fill-rule="nonzero"></path>
                <path d="M84.7964722,94.1060972 L84.7964722,94.1060972 C81.5892671,99.1669909 74.897046,100.687826 69.8175833,97.5101111 L42.6499306,79.8209028 C37.5890369,76.6136976 36.0682022,69.9214765 39.2459167,64.8420139 L39.2459167,64.8420139 C42.4531218,59.7811202 49.1453429,58.2602855 54.2248056,61.438 L81.3893889,79.1272083 C86.4513648,82.3334047 87.9736191,89.0258381 84.7964722,94.1060972 Z" id="Path" fill="#BE7C5E" fill-rule="nonzero"></path>
            </g>
        </g>
    </g>
</svg>