<?xml version="1.0" encoding="UTF-8"?>
<svg width="187px" height="202px" viewBox="0 0 187 202" version="1.1" xmlns="http://www.w3.org/2000/svg" xmlns:xlink="http://www.w3.org/1999/xlink">
    <!-- Generator: Sketch 56.3 (81716) - https://sketch.com -->
    <title>undraw_vault_9cmw</title>
    <desc>Created with Sketch.</desc>
    <defs>
        <linearGradient x1="50%" y1="100%" x2="50%" y2="0%" id="linearGradient-1">
            <stop stop-color="#808080" stop-opacity="0.25" offset="0%"></stop>
            <stop stop-color="#808080" stop-opacity="0.12" offset="54%"></stop>
            <stop stop-color="#808080" stop-opacity="0.1" offset="100%"></stop>
        </linearGradient>
        <linearGradient x1="50%" y1="-1134.63028%" x2="50%" y2="0%" id="linearGradient-2">
            <stop stop-color="#808080" stop-opacity="0.25" offset="0%"></stop>
            <stop stop-color="#808080" stop-opacity="0.12" offset="54%"></stop>
            <stop stop-color="#808080" stop-opacity="0.1" offset="100%"></stop>
        </linearGradient>
        <linearGradient x1="50%" y1="100%" x2="50%" y2="0%" id="linearGradient-3">
            <stop stop-color="#808080" stop-opacity="0.25" offset="0%"></stop>
            <stop stop-color="#808080" stop-opacity="0.12" offset="54%"></stop>
            <stop stop-color="#808080" stop-opacity="0.1" offset="100%"></stop>
        </linearGradient>
        <linearGradient x1="50%" y1="100%" x2="50%" y2="0%" id="linearGradient-4">
            <stop stop-color="#808080" stop-opacity="0.25" offset="0%"></stop>
            <stop stop-color="#808080" stop-opacity="0.12" offset="54%"></stop>
            <stop stop-color="#808080" stop-opacity="0.1" offset="100%"></stop>
        </linearGradient>
        <linearGradient x1="50%" y1="100%" x2="50%" y2="0%" id="linearGradient-5">
            <stop stop-color="#808080" stop-opacity="0.25" offset="0%"></stop>
            <stop stop-color="#808080" stop-opacity="0.12" offset="54%"></stop>
            <stop stop-color="#808080" stop-opacity="0.1" offset="100%"></stop>
        </linearGradient>
        <linearGradient x1="0.0135961931%" y1="50%" x2="100.013596%" y2="50%" id="linearGradient-6">
            <stop stop-color="#808080" stop-opacity="0.25" offset="0%"></stop>
            <stop stop-color="#808080" stop-opacity="0.12" offset="54%"></stop>
            <stop stop-color="#808080" stop-opacity="0.1" offset="100%"></stop>
        </linearGradient>
        <linearGradient x1="50%" y1="100%" x2="50%" y2="1.69056087e-14%" id="linearGradient-7">
            <stop stop-color="#808080" stop-opacity="0.25" offset="0%"></stop>
            <stop stop-color="#808080" stop-opacity="0.12" offset="54%"></stop>
            <stop stop-color="#808080" stop-opacity="0.1" offset="100%"></stop>
        </linearGradient>
        <linearGradient x1="49.959217%" y1="100.038941%" x2="49.959217%" y2="0%" id="linearGradient-8">
            <stop stop-color="#808080" stop-opacity="0.25" offset="0%"></stop>
            <stop stop-color="#808080" stop-opacity="0.12" offset="54%"></stop>
            <stop stop-color="#808080" stop-opacity="0.1" offset="100%"></stop>
        </linearGradient>
        <linearGradient x1="50%" y1="100.038941%" x2="50%" y2="0%" id="linearGradient-9">
            <stop stop-color="#808080" stop-opacity="0.25" offset="0%"></stop>
            <stop stop-color="#808080" stop-opacity="0.12" offset="54%"></stop>
            <stop stop-color="#808080" stop-opacity="0.1" offset="100%"></stop>
        </linearGradient>
        <linearGradient x1="50%" y1="100%" x2="50%" y2="-0.00984639622%" id="linearGradient-10">
            <stop stop-color="#808080" stop-opacity="0.25" offset="0%"></stop>
            <stop stop-color="#808080" stop-opacity="0.12" offset="54%"></stop>
            <stop stop-color="#808080" stop-opacity="0.1" offset="100%"></stop>
        </linearGradient>
        <linearGradient x1="49.9866203%" y1="100%" x2="49.9866203%" y2="0%" id="linearGradient-11">
            <stop stop-color="#808080" stop-opacity="0.25" offset="0%"></stop>
            <stop stop-color="#808080" stop-opacity="0.12" offset="54%"></stop>
            <stop stop-color="#808080" stop-opacity="0.1" offset="100%"></stop>
        </linearGradient>
        <linearGradient x1="49.9999296%" y1="100%" x2="49.9999296%" y2="0%" id="linearGradient-12">
            <stop stop-color="#808080" stop-opacity="0.25" offset="0%"></stop>
            <stop stop-color="#808080" stop-opacity="0.12" offset="54%"></stop>
            <stop stop-color="#808080" stop-opacity="0.1" offset="100%"></stop>
        </linearGradient>
    </defs>
    <g id="Page-1" stroke="none" stroke-width="1" fill="none" fill-rule="evenodd">
        <g id="Onboarding-2" transform="translate(-94.000000, -171.000000)" fill-rule="nonzero">
            <g id="undraw_vault_9cmw" transform="translate(94.000000, 171.000000)">
                <rect id="Rectangle" fill="url(#linearGradient-1)" x="154.056357" y="185.190378" width="13.8006873" height="16.3216495"></rect>
                <rect id="Rectangle" fill="#F5F5F5" transform="translate(160.958076, 193.051546) rotate(-180.000000) translate(-160.958076, -193.051546) " x="154.378007" y="185.187629" width="13.1601375" height="15.7278351"></rect>
                <rect id="Rectangle" fill="url(#linearGradient-2)" x="18.9360825" y="185.190378" width="13.8006873" height="16.3216495"></rect>
                <rect id="Rectangle" fill="#F5F5F5" x="19.257732" y="185.190378" width="13.1601375" height="15.7278351"></rect>
                <rect id="Rectangle" fill="url(#linearGradient-3)" x="0" y="0" width="186.474227" height="187.436426" rx="7.39697778"></rect>
                <rect id="Rectangle" fill="#FAFAFA" x="1.2838488" y="0.962199313" width="184.22543" height="184.22543" rx="7.39697778"></rect>
                <rect id="Rectangle" fill="url(#linearGradient-4)" x="30.9718213" y="30.6501718" width="124.530584" height="125.814433"></rect>
                <polygon id="Rectangle" fill="url(#linearGradient-5)" transform="translate(150.005500, 77.640827) rotate(-14.860000) translate(-150.005500, -77.640827) " points="129.30447 67.5308609 170.706531 67.5308609 170.706531 87.7507922 129.30447 87.7507922"></polygon>
                <polygon id="Rectangle" fill="#FFFFFF" transform="translate(150.004524, 77.642508) rotate(-14.860000) translate(-150.004524, -77.642508) " points="129.623768 67.8528169 170.38528 67.8528169 170.38528 87.4321984 129.623768 87.4321984"></polygon>
                <polygon id="Rectangle" fill="#69F0AE" transform="translate(150.006829, 77.640474) rotate(-14.860000) translate(-150.006829, -77.640474) " points="130.962155 68.4927077 169.051503 68.4927077 169.051503 86.7882403 130.962155 86.7882403"></polygon>
                <ellipse id="Oval" fill="#FFFFFF" transform="translate(149.806916, 77.529082) rotate(-14.860000) translate(-149.806916, -77.529082) " cx="149.806916" cy="77.529082" rx="7.05979381" ry="3.85154639"></ellipse>
                <polygon id="Rectangle" fill="url(#linearGradient-6)" transform="translate(149.177493, 107.312074) rotate(-71.040000) translate(-149.177493, -107.312074) " points="139.067527 86.6110429 159.287458 86.6110429 159.287458 128.013105 139.067527 128.013105"></polygon>
                <polygon id="Rectangle" fill="#FFFFFF" transform="translate(149.177273, 107.310826) rotate(18.960000) translate(-149.177273, -107.310826) " points="128.796517 97.5211351 169.558029 97.5211351 169.558029 117.100517 128.796517 117.100517"></polygon>
                <polygon id="Rectangle" fill="#69F0AE" transform="translate(149.179427, 107.313019) rotate(18.960000) translate(-149.179427, -107.313019) " points="130.134753 98.1652527 168.2241 98.1652527 168.2241 116.460785 130.134753 116.460785"></polygon>
                <ellipse id="Oval" fill="#FFFFFF" transform="translate(149.079845, 107.107347) rotate(-71.040000) translate(-149.079845, -107.107347) " cx="149.079845" cy="107.107347" rx="3.85154639" ry="7.05979381"></ellipse>
                <rect id="Rectangle" fill="url(#linearGradient-5)" x="134.757388" y="83.219244" width="41.4020619" height="20.2199313"></rect>
                <rect id="Rectangle" fill="#FFFFFF" x="135.079038" y="83.5408935" width="40.761512" height="19.5793814"></rect>
                <rect id="Rectangle" fill="#69F0AE" x="136.41512" y="84.1814433" width="38.0893471" height="18.2955326"></rect>
                <ellipse id="Oval" fill="#FFFFFF" cx="155.298969" cy="93.1683849" rx="7.05979381" ry="3.85154639"></ellipse>
                <rect id="Rectangle" fill="#FFFFFF" x="31.9340206" y="31.9340206" width="122.603436" height="122.603436"></rect>
                <circle id="Oval" fill="url(#linearGradient-7)" cx="93.2371134" cy="93.2371134" r="23.1092784"></circle>
                <circle id="Oval" fill="#FAFAFA" cx="93.2371134" cy="93.2371134" r="22.147079"></circle>
                <rect id="Rectangle" fill="url(#linearGradient-8)" x="76.3876289" y="137.366323" width="6.74089347" height="7.05979381"></rect>
                <rect id="Rectangle" fill="url(#linearGradient-8)" x="85.3745704" y="137.366323" width="6.74089347" height="7.05979381"></rect>
                <rect id="Rectangle" fill="url(#linearGradient-9)" x="94.3587629" y="137.366323" width="6.74089347" height="7.05979381"></rect>
                <rect id="Rectangle" fill="url(#linearGradient-9)" x="103.345704" y="137.366323" width="6.74089347" height="7.05979381"></rect>
                <rect id="Rectangle" fill="#2A46FF" x="76.547079" y="137.687973" width="6.41924399" height="6.41924399"></rect>
                <rect id="Rectangle" fill="#2A46FF" opacity="0.7" x="85.5340206" y="137.687973" width="6.41924399" height="6.41924399"></rect>
                <rect id="Rectangle" fill="#2A46FF" opacity="0.5" x="94.5209622" y="137.687973" width="6.41924399" height="6.41924399"></rect>
                <rect id="Rectangle" fill="#2A46FF" opacity="0.3" x="103.507904" y="137.687973" width="6.41924399" height="6.41924399"></rect>
                <polygon id="Rectangle" fill="#2A46FF" transform="translate(101.745168, 81.365880) rotate(35.000000) translate(-101.745168, -81.365880) " points="101.103243 79.1198315 102.387092 79.1198315 102.387092 83.6119277 101.103243 83.6119277"></polygon>
                <polygon id="Rectangle" fill="#2A46FF" transform="translate(105.108240, 101.743723) rotate(125.000000) translate(-105.108240, -101.743723) " points="104.466316 99.4976748 105.750165 99.4976748 105.750165 103.989771 104.466316 103.989771"></polygon>
                <polygon id="Rectangle" fill="#2A46FF" transform="translate(84.727862, 105.106936) rotate(-145.000000) translate(-84.727862, -105.106936) " points="84.0859374 102.860888 85.3697862 102.860888 85.3697862 107.352984 84.0859374 107.352984"></polygon>
                <polygon id="Rectangle" fill="#2A46FF" transform="translate(81.367184, 84.729166) rotate(-55.000000) translate(-81.367184, -84.729166) " points="80.7252594 82.4831179 82.0091082 82.4831179 82.0091082 86.9752141 80.7252594 86.9752141"></polygon>
                <polygon id="Rectangle" fill="#000000" opacity="0.2" transform="translate(101.733494, 81.328045) rotate(35.000000) translate(-101.733494, -81.328045) " points="101.091569 79.0819966 102.375418 79.0819966 102.375418 83.5740928 101.091569 83.5740928"></polygon>
                <polygon id="Rectangle" fill="#000000" opacity="0.2" transform="translate(105.097763, 101.706809) rotate(125.000000) translate(-105.097763, -101.706809) " points="104.455838 99.460761 105.739687 99.460761 105.739687 103.952857 104.455838 103.952857"></polygon>
                <polygon id="Rectangle" fill="#000000" opacity="0.2" transform="translate(84.719120, 105.068292) rotate(-145.000000) translate(-84.719120, -105.068292) " points="84.0771954 102.822244 85.3610442 102.822244 85.3610442 107.31434 84.0771954 107.31434"></polygon>
                <polygon id="Rectangle" fill="#000000" opacity="0.2" transform="translate(81.356840, 84.691356) rotate(-55.000000) translate(-81.356840, -84.691356) " points="80.7149159 82.4453077 81.9987647 82.4453077 81.9987647 86.9374039 80.7149159 86.9374039"></polygon>
                <circle id="Oval" fill="url(#linearGradient-10)" cx="93.2371134" cy="93.2371134" r="13.9601375"></circle>
                <circle id="Oval" fill="#2A46FF" cx="93.2371134" cy="93.2371134" r="13.1601375"></circle>
                <path d="M82.4852234,95.0020619 C82.4800235,90.3055775 84.978564,85.9624113 89.0411375,83.6060393 C93.103711,81.2496673 98.1142646,81.2374122 102.188316,83.5738832 C98.522649,80.0461064 93.1516866,78.9477225 88.3953541,80.7531656 C83.6390215,82.5586087 80.3497471,86.944308 79.9482949,92.0159113 C79.5468426,97.0875146 82.1051606,101.936091 86.5182131,104.467354 C83.9408701,101.993205 82.484329,98.5747514 82.4852234,95.0020619 Z" id="Path" fill="#FFFFFF" opacity="0.2"></path>
                <path d="M37.2316151,81.5230241 L26.9608247,81.5230241 L26.9608247,55.8790378 C26.9623401,55.3289657 27.4086887,54.8838488 27.9587629,54.8838488 L36.2364261,54.8838488 C36.7875721,54.8838488 37.2343643,55.3306409 37.2343643,55.8817869 L37.2316151,81.5230241 Z" id="Path" fill="url(#linearGradient-11)"></path>
                <path d="M36.1841924,131.912027 L28.0082474,131.912027 C27.4297718,131.912027 26.9608247,131.44308 26.9608247,130.864605 L26.9608247,105.272852 L37.2316296,105.272852 L37.2316296,130.859107 C37.2330784,131.137852 37.1233715,131.405682 36.9267829,131.603303 C36.7301942,131.800924 36.4629415,131.912027 36.1841924,131.912027 Z" id="Path" fill="url(#linearGradient-12)"></path>
                <path d="M28.1512027,55.2027491 L36.038488,55.2027491 C36.5197918,55.2027491 36.9099656,55.592923 36.9099656,56.0742268 L36.9099656,80.8797251 L27.2879331,80.8797251 L27.2879331,56.0824742 C27.2857748,55.8513409 27.3754898,55.6288022 27.5373791,55.4638195 C27.6992684,55.2988368 27.9200692,55.2049262 28.1512027,55.2027491 L28.1512027,55.2027491 Z" id="Path" fill="#FAFAFA"></path>
                <path d="M27.2797251,105.594502 L36.9017182,105.594502 L36.9017182,130.97732 C36.9017182,131.13826 36.77125,131.268729 36.6103093,131.268729 L27.5738832,131.268729 C27.4129425,131.268729 27.2824742,131.13826 27.2824742,130.97732 L27.2824742,105.594502 L27.2797251,105.594502 Z" id="Path" fill="#FAFAFA"></path>
            </g>
        </g>
    </g>
</svg>