<?xml version="1.0" encoding="UTF-8"?>
<svg width="280px" height="202px" viewBox="0 0 280 202" version="1.1" xmlns="http://www.w3.org/2000/svg" xmlns:xlink="http://www.w3.org/1999/xlink">
    <!-- Generator: Sketch 56.3 (81716) - https://sketch.com -->
    <title>undraw_Savings_dwkw</title>
    <desc>Created with Sketch.</desc>
    <defs>
        <linearGradient x1="49.9999966%" y1="100%" x2="49.9999966%" y2="5.49953934e-07%" id="linearGradient-1">
            <stop stop-color="#808080" stop-opacity="0.25" offset="0%"></stop>
            <stop stop-color="#808080" stop-opacity="0.12" offset="53.514%"></stop>
            <stop stop-color="#808080" stop-opacity="0.1" offset="100%"></stop>
        </linearGradient>
    </defs>
    <g id="Page-1" stroke="none" stroke-width="1" fill="none" fill-rule="evenodd">
        <g id="Onboarding-1" transform="translate(-48.000000, -171.000000)">
            <g id="undraw_Savings_dwkw" transform="translate(48.000000, 171.000000)">
                <ellipse id="Oval" fill="#F5F6FA" fill-rule="nonzero" cx="140" cy="184.047091" rx="140" ry="17.0168147"></ellipse>
                <path d="M239.549299,192.388123 C239.549299,192.388123 246.850963,183.096864 246.260561,173.878527 C245.988141,170.013552 246.976835,166.164497 249.078197,162.909267 C250.087843,161.371677 251.236256,159.929835 252.509031,158.601825" id="Path" stroke="#535461" stroke-width="1.49333333"></path>
                <path d="M252.171634,152.790292 C251.656805,154.080596 252.500183,158.754538 252.500183,158.754538 C252.500183,158.754538 256.329441,155.944961 256.844268,154.654647 C257.357936,153.364613 256.729148,151.902361 255.439475,151.387789 C254.149802,150.873217 252.68711,151.50098 252.171634,152.790292 L252.171634,152.790292 Z" id="Path" fill="#2A46FF" fill-rule="nonzero"></path>
                <path d="M245.45804,158.396739 C245.727166,159.75965 248.975366,163.224638 248.975366,163.224638 C248.975366,163.224638 250.662702,158.78506 250.393576,157.422148 C250.219483,156.5405 249.588259,155.818701 248.737682,155.528646 C247.887105,155.238592 246.946398,155.424348 246.269914,156.015941 C245.593431,156.607535 245.283947,157.51509 245.45804,158.396739 L245.45804,158.396739 Z" id="Path" fill="#2A46FF" fill-rule="nonzero"></path>
                <path d="M240.753504,170.677792 C241.673833,171.71844 246.226943,173.069793 246.226943,173.069793 C246.226943,173.069793 245.442352,168.385631 244.522021,167.344983 C243.926743,166.671537 243.01736,166.366896 242.136529,166.545849 C241.255699,166.724802 240.537288,167.360152 240.251995,168.212498 C239.966702,169.064844 240.157884,170.004648 240.753504,170.677792 L240.753504,170.677792 Z" id="Path" fill="#2A46FF" fill-rule="nonzero"></path>
                <path d="M239.286435,180.771444 C240.017665,181.952653 244.27696,184.054013 244.27696,184.054013 C244.27696,184.054013 244.295201,179.304632 243.563971,178.123423 C243.091196,177.35877 242.246276,176.90456 241.347691,176.932001 C240.449105,176.959441 239.633475,177.46436 239.208238,178.256435 C238.783002,179.048511 238.812813,180.007315 239.286435,180.771444 L239.286435,180.771444 Z" id="Path" fill="#2A46FF" fill-rule="nonzero"></path>
                <path d="M253.781216,165.431884 C252.496975,165.96168 247.813559,165.172704 247.813559,165.172704 C247.813559,165.172704 250.578424,161.311038 251.862665,160.781242 C253.146904,160.251447 254.61747,160.863044 255.147265,162.147284 C255.67706,163.431523 255.065463,164.902089 253.781223,165.431884 L253.781216,165.431884 Z" id="Path" fill="#2A46FF" fill-rule="nonzero"></path>
                <path d="M251.915707,177.214722 C250.531781,177.335984 246.298995,175.181812 246.298995,175.181812 C246.298995,175.181812 250.092652,172.324347 251.476578,172.203083 C252.37233,172.12371 253.242318,172.528559 253.758451,173.264954 C254.274585,174.001349 254.358344,174.957261 253.97814,175.772195 C253.597937,176.587128 252.811613,177.137107 251.915707,177.214722 L251.915707,177.214722 Z" id="Path" fill="#2A46FF" fill-rule="nonzero"></path>
                <path d="M248.531055,188.418214 C247.187526,188.771595 242.651579,187.363726 242.651579,187.363726 C242.651579,187.363726 245.907784,183.906257 247.251313,183.552865 C248.594841,183.199474 249.970467,184.002139 250.323858,185.345668 C250.677249,186.689197 249.874584,188.064822 248.531055,188.418214 Z" id="Path" fill="#2A46FF" fill-rule="nonzero"></path>
                <path d="M252.171634,152.790292 C251.656805,154.080596 252.500183,158.754538 252.500183,158.754538 C252.500183,158.754538 256.329441,155.944961 256.844268,154.654647 C257.357936,153.364613 256.729148,151.902361 255.439475,151.387789 C254.149802,150.873217 252.68711,151.50098 252.171634,152.790292 L252.171634,152.790292 Z" id="Path" fill="#000000" fill-rule="nonzero" opacity="0.25"></path>
                <path d="M245.45804,158.396739 C245.727166,159.75965 248.975366,163.224638 248.975366,163.224638 C248.975366,163.224638 250.662702,158.78506 250.393576,157.422148 C250.219483,156.5405 249.588259,155.818701 248.737682,155.528646 C247.887105,155.238592 246.946398,155.424348 246.269914,156.015941 C245.593431,156.607535 245.283947,157.51509 245.45804,158.396739 L245.45804,158.396739 Z" id="Path" fill="#000000" fill-rule="nonzero" opacity="0.25"></path>
                <path d="M240.753504,170.677792 C241.673833,171.71844 246.226943,173.069793 246.226943,173.069793 C246.226943,173.069793 245.442352,168.385631 244.522021,167.344983 C243.926743,166.671537 243.01736,166.366896 242.136529,166.545849 C241.255699,166.724802 240.537288,167.360152 240.251995,168.212498 C239.966702,169.064844 240.157884,170.004648 240.753504,170.677792 L240.753504,170.677792 Z" id="Path" fill="#000000" fill-rule="nonzero" opacity="0.25"></path>
                <path d="M239.286435,180.771444 C240.017665,181.952653 244.27696,184.054013 244.27696,184.054013 C244.27696,184.054013 244.295201,179.304632 243.563971,178.123423 C243.091196,177.35877 242.246276,176.90456 241.347691,176.932001 C240.449105,176.959441 239.633475,177.46436 239.208238,178.256435 C238.783002,179.048511 238.812813,180.007315 239.286435,180.771444 L239.286435,180.771444 Z" id="Path" fill="#000000" fill-rule="nonzero" opacity="0.25"></path>
                <path d="M253.781216,165.431884 C252.496975,165.96168 247.813559,165.172704 247.813559,165.172704 C247.813559,165.172704 250.578424,161.311038 251.862665,160.781242 C253.146904,160.251447 254.61747,160.863044 255.147265,162.147284 C255.67706,163.431523 255.065463,164.902089 253.781223,165.431884 L253.781216,165.431884 Z" id="Path" fill="#000000" fill-rule="nonzero" opacity="0.25"></path>
                <path d="M251.915707,177.214722 C250.531781,177.335984 246.298995,175.181812 246.298995,175.181812 C246.298995,175.181812 250.092652,172.324347 251.476578,172.203083 C252.37233,172.12371 253.242318,172.528559 253.758451,173.264954 C254.274585,174.001349 254.358344,174.957261 253.97814,175.772195 C253.597937,176.587128 252.811613,177.137107 251.915707,177.214722 L251.915707,177.214722 Z" id="Path" fill="#000000" fill-rule="nonzero" opacity="0.25"></path>
                <path d="M248.531055,188.418214 C247.187526,188.771595 242.651579,187.363726 242.651579,187.363726 C242.651579,187.363726 245.907784,183.906257 247.251313,183.552865 C248.594841,183.199474 249.970467,184.002139 250.323858,185.345668 C250.677249,186.689197 249.874584,188.064822 248.531055,188.418214 Z" id="Path" fill="#000000" fill-rule="nonzero" opacity="0.25"></path>
                <path d="M239.61116,192.001289 C239.61116,192.001289 250.051503,186.465857 253.24723,177.799043 C254.564356,174.155224 257.027963,171.036991 260.26816,168.912522 C261.814264,167.915962 263.44843,167.063168 265.150165,166.364835" id="Path" stroke="#535461" stroke-width="1.49333333"></path>
                <path d="M267.196677,160.915108 C266.203153,161.886115 265.080192,166.500865 265.080192,166.500865 C265.080192,166.500865 269.719477,165.484002 270.713001,164.512996 C271.70653,163.541989 271.724788,161.949418 270.753781,160.955889 C269.782775,159.96236 268.190204,159.944102 267.196674,160.915108 L267.196677,160.915108 Z" id="Path" fill="#2A46FF" fill-rule="nonzero"></path>
                <path d="M258.78712,163.320118 C258.480878,164.675173 260.046348,169.159172 260.046348,169.159172 C260.046348,169.159172 263.387958,165.784178 263.694203,164.429126 C263.892308,163.55256 263.607722,162.636892 262.947646,162.027045 C262.287571,161.417198 261.352286,161.205822 260.494105,161.472541 C259.635924,161.73926 258.985225,162.443552 258.78712,163.320118 L258.78712,163.320118 Z" id="Path" fill="#2A46FF" fill-rule="nonzero"></path>
                <path d="M249.50959,172.641293 C249.92928,173.96561 253.544213,177.046064 253.544213,177.046064 C253.544213,177.046064 254.725056,172.445786 254.305369,171.121469 C254.033879,170.264786 253.325976,169.618016 252.448321,169.424792 C251.570667,169.231568 250.656596,169.521245 250.050432,170.184704 C249.444268,170.848163 249.2381,171.78461 249.50959,172.641293 Z" id="Path" fill="#2A46FF" fill-rule="nonzero"></path>
                <path d="M244.078189,181.274597 C244.26804,182.650792 247.310408,186.29784 247.310408,186.29784 C247.310408,186.29784 249.25168,181.963279 249.061831,180.587087 C248.939019,179.696844 248.350597,178.939744 247.518218,178.600981 C246.685839,178.262217 245.73596,178.393256 245.026393,178.944736 C244.316826,179.496216 243.955369,180.384354 244.078181,181.274597 L244.078189,181.274597 Z" id="Path" fill="#2A46FF" fill-rule="nonzero"></path>
                <path d="M263.545522,173.124518 C262.15676,173.088454 258.194802,170.469335 258.194802,170.469335 C258.194802,170.469335 262.287328,168.059318 263.67609,168.095373 C265.06485,168.131428 266.161435,169.286468 266.12538,170.675228 C266.089325,172.063989 264.934285,173.160573 263.545525,173.124518 L263.545522,173.124518 Z" id="Path" fill="#2A46FF" fill-rule="nonzero"></path>
                <path d="M257.065363,183.140652 C255.751016,182.690713 252.754244,179.006106 252.754244,179.006106 C252.754244,179.006106 257.380385,177.931039 258.694732,178.38099 C260.00908,178.830928 260.709823,180.261164 260.259885,181.575512 C259.809947,182.88986 258.379711,183.590602 257.065363,183.140664 L257.065363,183.140652 Z" id="Path" fill="#2A46FF" fill-rule="nonzero"></path>
                <path d="M249.43114,192.011558 C248.059661,191.790205 244.48332,188.665027 244.48332,188.665027 C244.48332,188.665027 248.861248,186.823636 250.232727,187.044989 C251.604207,187.266341 252.53657,188.557586 252.315218,189.929067 C252.093866,191.300547 250.80262,192.23291 249.43114,192.011558 Z" id="Path" fill="#2A46FF" fill-rule="nonzero"></path>
                <path d="M159.569696,23.8119163 C145.735757,23.3316036 132.559781,18.8655835 119.978184,13.9794408 C107.396587,9.09329803 94.9341828,3.67985617 81.4315309,1.0907678 C72.7468751,-0.574485868 62.8151875,-0.810096601 55.8175141,3.84623828 C49.0836594,8.32702218 46.9078039,16.0618018 45.7379725,23.2386902 C44.8578333,28.6383324 44.3403818,34.321273 46.7519657,39.3762898 C48.4262429,42.8858068 51.3991091,45.8358497 53.4548751,49.1973549 C60.6082691,60.8942898 55.5521853,75.3179113 47.8000422,86.7389335 C44.1636612,92.0963152 39.9457918,97.2072569 37.1397435,102.910311 C34.3336952,108.613365 33.0356047,115.148217 35.4906411,120.965835 C37.9240315,126.732157 43.7230494,131.063424 50.0047442,134.109764 C62.7630945,140.296993 77.7974741,142.067845 92.457981,143.070784 C124.91071,145.290901 157.536761,144.329702 190.075651,143.367018 C202.117532,143.010751 214.212477,142.649717 226.058716,140.787674 C232.637141,139.75365 239.428929,138.112437 244.20478,134.150467 C250.267684,129.120773 251.770478,120.603997 247.707878,114.297357 C240.893322,103.718672 222.051846,101.0911 217.288856,89.7383671 C214.667092,83.4893081 217.359502,76.5285732 221.169553,70.7330315 C229.342976,58.3002826 243.042747,47.3930354 243.764358,33.1822114 C244.259971,23.4219875 237.674233,13.6474029 227.491174,9.02945653 C216.817299,4.18892773 202.016336,4.79781753 194.141957,12.8105234 C186.03357,21.0613445 171.784195,24.2360011 159.569696,23.8119163 Z" id="Path" fill="#F5F6FA" fill-rule="nonzero"></path>
                <ellipse id="Oval" fill="#FBD56F" fill-rule="nonzero" cx="135.883406" cy="166.430555" rx="9.40602397" ry="9.98417138"></ellipse>
                <ellipse id="Oval" fill="#000000" fill-rule="nonzero" opacity="0.1" cx="135.883406" cy="166.430555" rx="9.40602397" ry="9.98417138"></ellipse>
                <ellipse id="Oval" fill="#FBD56F" fill-rule="nonzero" cx="137.506713" cy="166.652919" rx="9.40602397" ry="9.7618068"></ellipse>
                <path d="M141.316491,175.499339 L140.338086,174.954546 C140.338086,174.954546 139.880452,176.864297 140.030049,178.225202 C140.060248,178.50795 140.263685,178.741808 140.539528,178.810865 C142.790298,179.369816 153.517824,181.751231 160.894687,178.397041 C161.112313,178.297732 161.261363,178.090932 161.286752,177.85307 C161.377234,177.016679 161.056912,175.290799 160.929051,174.954554 C160.653882,174.230884 141.316491,175.499339 141.316491,175.499339 Z" id="Path" fill="#FBD56F" fill-rule="nonzero"></path>
                <path d="M141.316491,175.499339 L140.338086,174.954546 C140.338086,174.954546 139.880452,176.864297 140.030049,178.225202 C140.060248,178.50795 140.263685,178.741808 140.539528,178.810865 C142.790298,179.369816 153.517824,181.751231 160.894687,178.397041 C161.112313,178.297732 161.261363,178.090932 161.286752,177.85307 C161.377234,177.016679 161.056912,175.290799 160.929051,174.954554 C160.653882,174.230884 141.316491,175.499339 141.316491,175.499339 Z" id="Path" fill="#000000" fill-rule="nonzero" opacity="0.1"></path>
                <ellipse id="Oval" fill="#FBD56F" fill-rule="nonzero" cx="150.633569" cy="174.954546" rx="10.2954823" ry="2.32073918"></ellipse>
                <path d="M145.249935,172.075302 L144.27153,171.530509 C144.27153,171.530509 143.813893,173.44026 143.96348,174.801165 C143.993679,175.083915 144.197117,175.317774 144.472962,175.386831 C146.723732,175.945779 157.451258,178.327194 164.828118,174.973004 C165.045745,174.873695 165.194796,174.666896 165.220186,174.429033 C165.310665,173.592642 164.990346,171.866762 164.862485,171.530517 C164.587318,170.806847 145.249935,172.075302 145.249935,172.075302 Z" id="Path" fill="#FBD56F" fill-rule="nonzero"></path>
                <path d="M145.249935,172.075302 L144.27153,171.530509 C144.27153,171.530509 143.813893,173.44026 143.96348,174.801165 C143.993679,175.083915 144.197117,175.317774 144.472962,175.386831 C146.723732,175.945779 157.451258,178.327194 164.828118,174.973004 C165.045745,174.873695 165.194796,174.666896 165.220186,174.429033 C165.310665,173.592642 164.990346,171.866762 164.862485,171.530517 C164.587318,170.806847 145.249935,172.075302 145.249935,172.075302 Z" id="Path" fill="#000000" fill-rule="nonzero" opacity="0.1"></path>
                <ellipse id="Oval" fill="#FBD56F" fill-rule="nonzero" cx="154.567013" cy="171.530509" rx="10.2954823" ry="2.32073918"></ellipse>
                <path d="M148.727302,167.575069 L147.748897,167.030276 C147.748897,167.030276 147.29126,168.940026 147.440847,170.300931 C147.471047,170.58368 147.674485,170.817538 147.95033,170.886595 C150.201099,171.445545 160.928623,173.82696 168.305486,170.472771 C168.523112,170.373462 168.672163,170.166662 168.697553,169.928799 C168.788032,169.092411 168.46771,167.366531 168.339852,167.030286 C168.064686,166.306614 148.727302,167.575069 148.727302,167.575069 Z" id="Path" fill="#FBD56F" fill-rule="nonzero"></path>
                <path d="M148.727302,167.575069 L147.748897,167.030276 C147.748897,167.030276 147.29126,168.940026 147.440847,170.300931 C147.471047,170.58368 147.674485,170.817538 147.95033,170.886595 C150.201099,171.445545 160.928623,173.82696 168.305486,170.472771 C168.523112,170.373462 168.672163,170.166662 168.697553,169.928799 C168.788032,169.092411 168.46771,167.366531 168.339852,167.030286 C168.064686,166.306614 148.727302,167.575069 148.727302,167.575069 Z" id="Path" fill="#000000" fill-rule="nonzero" opacity="0.1"></path>
                <ellipse id="Oval" fill="#FBD56F" fill-rule="nonzero" cx="158.04438" cy="167.030276" rx="10.2954823" ry="2.32073918"></ellipse>
                <path d="M144.876363,162.890366 L143.897961,162.345583 C143.897961,162.345583 143.440326,164.255333 143.589911,165.616238 C143.620109,165.898988 143.823548,166.132847 144.099393,166.201904 C146.350162,166.760855 157.077686,169.142267 164.454549,165.78808 C164.672175,165.68877 164.821225,165.481971 164.846616,165.244109 C164.937096,164.407718 164.616774,162.681841 164.488915,162.345593 C164.213739,161.621911 144.876363,162.890366 144.876363,162.890366 Z" id="Path" fill="#FBD56F" fill-rule="nonzero"></path>
                <path d="M144.876363,162.890366 L143.897961,162.345583 C143.897961,162.345583 143.440326,164.255333 143.589911,165.616238 C143.620109,165.898988 143.823548,166.132847 144.099393,166.201904 C146.350162,166.760855 157.077686,169.142267 164.454549,165.78808 C164.672175,165.68877 164.821225,165.481971 164.846616,165.244109 C164.937096,164.407718 164.616774,162.681841 164.488915,162.345593 C164.213739,161.621911 144.876363,162.890366 144.876363,162.890366 Z" id="Path" fill="#000000" fill-rule="nonzero" opacity="0.1"></path>
                <ellipse id="Oval" fill="#FBD56F" fill-rule="nonzero" cx="154.193443" cy="162.345573" rx="10.2954823" ry="2.32073918"></ellipse>
                <path d="M153.539605,159.130842 L152.561201,158.586049 C152.561201,158.586049 152.103566,160.4958 152.253151,161.856705 C152.28335,162.139454 152.486788,162.373311 152.762633,162.442368 C155.013402,163.001319 165.740926,165.382734 173.117789,162.028544 C173.335415,161.929236 173.484466,161.722436 173.509854,161.484573 C173.600336,160.648184 173.280014,158.922305 173.152153,158.586059 C172.876989,157.86238 153.539605,159.130842 153.539605,159.130842 Z" id="Path" fill="#FBD56F" fill-rule="nonzero"></path>
                <path d="M153.539605,159.130842 L152.561201,158.586049 C152.561201,158.586049 152.103566,160.4958 152.253151,161.856705 C152.28335,162.139454 152.486788,162.373311 152.762633,162.442368 C155.013402,163.001319 165.740926,165.382734 173.117789,162.028544 C173.335415,161.929236 173.484466,161.722436 173.509854,161.484573 C173.600336,160.648184 173.280014,158.922305 173.152153,158.586059 C172.876989,157.86238 153.539605,159.130842 153.539605,159.130842 Z" id="Path" fill="#000000" fill-rule="nonzero" opacity="0.1"></path>
                <ellipse id="Oval" fill="#FBD56F" fill-rule="nonzero" cx="162.856683" cy="158.586044" rx="10.2954823" ry="2.32073918"></ellipse>
                <path d="M147.686328,156.60394 L146.707923,156.059147 C146.707923,156.059147 146.250286,157.968897 146.399873,159.329803 C146.430073,159.612551 146.633511,159.846409 146.909356,159.915466 C149.160125,160.474416 159.887649,162.855831 167.264512,159.501642 C167.482138,159.402333 167.631189,159.195534 167.656579,158.95767 C167.747058,158.121282 167.426736,156.395403 167.298878,156.059157 C167.023712,155.335485 147.686328,156.60394 147.686328,156.60394 Z" id="Path" fill="#FBD56F" fill-rule="nonzero"></path>
                <path d="M147.686328,156.60394 L146.707923,156.059147 C146.707923,156.059147 146.250286,157.968897 146.399873,159.329803 C146.430073,159.612551 146.633511,159.846409 146.909356,159.915466 C149.160125,160.474416 159.887649,162.855831 167.264512,159.501642 C167.482138,159.402333 167.631189,159.195534 167.656579,158.95767 C167.747058,158.121282 167.426736,156.395403 167.298878,156.059157 C167.023712,155.335485 147.686328,156.60394 147.686328,156.60394 Z" id="Path" fill="#000000" fill-rule="nonzero" opacity="0.1"></path>
                <ellipse id="Oval" fill="#FBD56F" fill-rule="nonzero" cx="157.003406" cy="156.059147" rx="10.2954823" ry="2.32073918"></ellipse>
                <path d="M151.594231,151.725711 L150.615827,151.180918 C150.615827,151.180918 150.158192,153.090669 150.307777,154.451574 C150.337976,154.734322 150.541413,154.96818 150.817257,155.037237 C153.068026,155.596188 163.795552,157.977603 171.172415,154.623413 C171.390041,154.524104 171.539091,154.317305 171.56448,154.079442 C171.654962,153.243053 171.33464,151.517174 171.206779,151.180928 C170.931615,150.457256 151.594231,151.725711 151.594231,151.725711 Z" id="Path" fill="#FBD56F" fill-rule="nonzero"></path>
                <path d="M151.594231,151.725711 L150.615827,151.180918 C150.615827,151.180918 150.158192,153.090669 150.307777,154.451574 C150.337976,154.734322 150.541413,154.96818 150.817257,155.037237 C153.068026,155.596188 163.795552,157.977603 171.172415,154.623413 C171.390041,154.524104 171.539091,154.317305 171.56448,154.079442 C171.654962,153.243053 171.33464,151.517174 171.206779,151.180928 C170.931615,150.457256 151.594231,151.725711 151.594231,151.725711 Z" id="Path" fill="#000000" fill-rule="nonzero" opacity="0.1"></path>
                <ellipse id="Oval" fill="#FBD56F" fill-rule="nonzero" cx="160.911309" cy="151.180918" rx="10.2954823" ry="2.32073918"></ellipse>
                <path d="M153.521864,145.935374 L152.543459,145.390581 C152.543459,145.390581 152.085824,147.300331 152.235409,148.661236 C152.265608,148.943985 152.469045,149.177842 152.744889,149.2469 C154.995658,149.80585 165.723184,152.187265 173.100047,148.833076 C173.317673,148.733767 173.466723,148.526967 173.492112,148.289104 C173.582594,147.452716 173.262272,145.726836 173.134411,145.390591 C172.859247,144.666919 153.521864,145.935374 153.521864,145.935374 Z" id="Path" fill="#FBD56F" fill-rule="nonzero"></path>
                <path d="M153.521864,145.935374 L152.543459,145.390581 C152.543459,145.390581 152.085824,147.300331 152.235409,148.661236 C152.265608,148.943985 152.469045,149.177842 152.744889,149.2469 C154.995658,149.80585 165.723184,152.187265 173.100047,148.833076 C173.317673,148.733767 173.466723,148.526967 173.492112,148.289104 C173.582594,147.452716 173.262272,145.726836 173.134411,145.390591 C172.859247,144.666919 153.521864,145.935374 153.521864,145.935374 Z" id="Path" fill="#000000" fill-rule="nonzero" opacity="0.1"></path>
                <ellipse id="Oval" fill="#FBD56F" fill-rule="nonzero" cx="162.838941" cy="145.390581" rx="10.2954823" ry="2.32073918"></ellipse>
                <path d="M170.901566,176.84228 L169.923162,176.297487 C169.923162,176.297487 169.465527,178.207237 169.615112,179.568142 C169.645311,179.850891 169.848749,180.084749 170.124594,180.153806 C172.375363,180.712756 183.102887,183.094171 190.47975,179.739982 C190.697376,179.640673 190.846427,179.433873 190.871818,179.19601 C190.962297,178.359622 190.641975,176.633742 190.514116,176.297497 C190.238962,175.573825 170.901566,176.84228 170.901566,176.84228 Z" id="Path" fill="#FBD56F" fill-rule="nonzero"></path>
                <path d="M170.901566,176.84228 L169.923162,176.297487 C169.923162,176.297487 169.465527,178.207237 169.615112,179.568142 C169.645311,179.850891 169.848749,180.084749 170.124594,180.153806 C172.375363,180.712756 183.102887,183.094171 190.47975,179.739982 C190.697376,179.640673 190.846427,179.433873 190.871818,179.19601 C190.962297,178.359622 190.641975,176.633742 190.514116,176.297497 C190.238962,175.573825 170.901566,176.84228 170.901566,176.84228 Z" id="Path" fill="#000000" fill-rule="nonzero" opacity="0.1"></path>
                <ellipse id="Oval" fill="#FBD56F" fill-rule="nonzero" cx="180.218647" cy="176.297487" rx="10.2954823" ry="2.32073918"></ellipse>
                <path d="M174.378933,172.342046 L173.400529,171.797251 C173.400529,171.797251 172.942894,173.707001 173.092491,175.067906 C173.12269,175.350656 173.326128,175.584515 173.601974,175.653572 C175.852743,176.212523 186.580267,178.593935 193.95713,175.239748 C194.174755,175.140439 194.323805,174.933639 194.349195,174.695777 C194.439676,173.859386 194.119354,172.133509 193.991493,171.797261 C193.716317,171.073589 174.378933,172.342046 174.378933,172.342046 Z" id="Path" fill="#FBD56F" fill-rule="nonzero"></path>
                <path d="M174.378933,172.342046 L173.400529,171.797251 C173.400529,171.797251 172.942894,173.707001 173.092491,175.067906 C173.12269,175.350656 173.326128,175.584515 173.601974,175.653572 C175.852743,176.212523 186.580267,178.593935 193.95713,175.239748 C194.174755,175.140439 194.323805,174.933639 194.349195,174.695777 C194.439676,173.859386 194.119354,172.133509 193.991493,171.797261 C193.716317,171.073589 174.378933,172.342046 174.378933,172.342046 Z" id="Path" fill="#000000" fill-rule="nonzero" opacity="0.1"></path>
                <ellipse id="Oval" fill="#FBD56F" fill-rule="nonzero" cx="183.696011" cy="171.797253" rx="10.2954823" ry="2.32073918"></ellipse>
                <path d="M170.527997,167.657343 L169.549592,167.11255 C169.549592,167.11255 169.091957,169.022301 169.241542,170.383206 C169.271741,170.665954 169.475178,170.899811 169.751022,170.968869 C172.001791,171.52782 182.729317,173.909235 190.10618,170.555045 C190.323806,170.455736 190.472856,170.248936 190.498245,170.011074 C190.588727,169.174685 190.268405,167.448806 190.140544,167.11256 C189.86538,166.388888 170.527997,167.657343 170.527997,167.657343 Z" id="Path" fill="#FBD56F" fill-rule="nonzero"></path>
                <path d="M170.527997,167.657343 L169.549592,167.11255 C169.549592,167.11255 169.091957,169.022301 169.241542,170.383206 C169.271741,170.665954 169.475178,170.899811 169.751022,170.968869 C172.001791,171.52782 182.729317,173.909235 190.10618,170.555045 C190.323806,170.455736 190.472856,170.248936 190.498245,170.011074 C190.588727,169.174685 190.268405,167.448806 190.140544,167.11256 C189.86538,166.388888 170.527997,167.657343 170.527997,167.657343 Z" id="Path" fill="#000000" fill-rule="nonzero" opacity="0.1"></path>
                <ellipse id="Oval" fill="#FBD56F" fill-rule="nonzero" cx="179.845074" cy="167.11255" rx="10.2954823" ry="2.32073918"></ellipse>
                <path d="M179.191234,163.897812 L178.21283,163.353019 C178.21283,163.353019 177.755192,165.26277 177.90478,166.623675 C177.934978,166.906425 178.138417,167.140284 178.414262,167.209341 C180.665031,167.768291 191.392557,170.149704 198.769418,166.795517 C198.987044,166.696207 199.136094,166.489408 199.161486,166.251545 C199.251965,165.415154 198.931645,163.689277 198.803784,163.353029 C198.528623,162.629357 179.191234,163.897812 179.191234,163.897812 Z" id="Path" fill="#FBD56F" fill-rule="nonzero"></path>
                <path d="M179.191234,163.897812 L178.21283,163.353019 C178.21283,163.353019 177.755192,165.26277 177.90478,166.623675 C177.934978,166.906425 178.138417,167.140284 178.414262,167.209341 C180.665031,167.768291 191.392557,170.149704 198.769418,166.795517 C198.987044,166.696207 199.136094,166.489408 199.161486,166.251545 C199.251965,165.415154 198.931645,163.689277 198.803784,163.353029 C198.528623,162.629357 179.191234,163.897812 179.191234,163.897812 Z" id="Path" fill="#000000" fill-rule="nonzero" opacity="0.1"></path>
                <ellipse id="Oval" fill="#FBD56F" fill-rule="nonzero" cx="188.508317" cy="163.353019" rx="10.2954823" ry="2.32073918"></ellipse>
                <path d="M173.33796,161.370915 L172.359555,160.826122 C172.359555,160.826122 171.90192,162.735872 172.051505,164.096777 C172.081703,164.379527 172.285142,164.613386 172.560987,164.682443 C174.811756,165.241394 185.53928,167.622806 192.916143,164.268619 C193.133769,164.16931 193.282819,163.962511 193.308211,163.724648 C193.39869,162.888257 193.078368,161.16238 192.950509,160.826132 C192.675343,160.10246 173.33796,161.370915 173.33796,161.370915 Z" id="Path" fill="#FBD56F" fill-rule="nonzero"></path>
                <path d="M173.33796,161.370915 L172.359555,160.826122 C172.359555,160.826122 171.90192,162.735872 172.051505,164.096777 C172.081703,164.379527 172.285142,164.613386 172.560987,164.682443 C174.811756,165.241394 185.53928,167.622806 192.916143,164.268619 C193.133769,164.16931 193.282819,163.962511 193.308211,163.724648 C193.39869,162.888257 193.078368,161.16238 192.950509,160.826132 C192.675343,160.10246 173.33796,161.370915 173.33796,161.370915 Z" id="Path" fill="#000000" fill-rule="nonzero" opacity="0.1"></path>
                <ellipse id="Oval" fill="#FBD56F" fill-rule="nonzero" cx="182.65504" cy="160.826122" rx="10.2954823" ry="2.32073918"></ellipse>
                <path d="M177.245865,156.492689 L176.267461,155.947893 C176.267461,155.947893 175.809824,157.857646 175.959411,159.218551 C175.98961,159.5013 176.193049,159.735158 176.468893,159.804215 C178.719662,160.363165 189.447186,162.744578 196.824049,159.390391 C197.041675,159.291081 197.190725,159.084282 197.216117,158.846419 C197.306596,158.010031 196.986274,156.284151 196.858415,155.947903 C196.583249,155.224231 177.245865,156.492689 177.245865,156.492689 Z" id="Path" fill="#FBD56F" fill-rule="nonzero"></path>
                <path d="M177.245865,156.492689 L176.267461,155.947893 C176.267461,155.947893 175.809824,157.857646 175.959411,159.218551 C175.98961,159.5013 176.193049,159.735158 176.468893,159.804215 C178.719662,160.363165 189.447186,162.744578 196.824049,159.390391 C197.041675,159.291081 197.190725,159.084282 197.216117,158.846419 C197.306596,158.010031 196.986274,156.284151 196.858415,155.947903 C196.583249,155.224231 177.245865,156.492689 177.245865,156.492689 Z" id="Path" fill="#000000" fill-rule="nonzero" opacity="0.1"></path>
                <ellipse id="Oval" fill="#FBD56F" fill-rule="nonzero" cx="186.562943" cy="155.947896" rx="10.2954823" ry="2.32073918"></ellipse>
                <path d="M179.173498,150.702351 L178.195093,150.157558 C178.195093,150.157558 177.737456,152.067309 177.887043,153.428214 C177.917243,153.710963 178.120681,153.944821 178.396525,154.013877 C180.647294,154.572828 191.374821,156.954243 198.751681,153.600053 C198.969308,153.500744 199.118358,153.293945 199.143749,153.056082 C199.234228,152.219693 198.913908,150.493814 198.786048,150.157569 C198.510881,149.433896 179.173498,150.702351 179.173498,150.702351 Z" id="Path" fill="#FBD56F" fill-rule="nonzero"></path>
                <path d="M179.173498,150.702351 L178.195093,150.157558 C178.195093,150.157558 177.737456,152.067309 177.887043,153.428214 C177.917243,153.710963 178.120681,153.944821 178.396525,154.013877 C180.647294,154.572828 191.374821,156.954243 198.751681,153.600053 C198.969308,153.500744 199.118358,153.293945 199.143749,153.056082 C199.234228,152.219693 198.913908,150.493814 198.786048,150.157569 C198.510881,149.433896 179.173498,150.702351 179.173498,150.702351 Z" id="Path" fill="#000000" fill-rule="nonzero" opacity="0.1"></path>
                <ellipse id="Oval" fill="#FBD56F" fill-rule="nonzero" cx="188.490575" cy="150.157558" rx="10.2954823" ry="2.32073918"></ellipse>
                <path d="M241.228563,190.501111 C239.795429,190.450595 239.744252,189.895028 237.901704,188.935445 C236.861675,188.39402 235.282197,186.821279 234.104977,185.555607 C234.010714,185.454191 233.91942,185.355181 233.831096,185.258576 C234.142374,185.251762 234.318932,185.248541 234.318932,185.248541 C234.318932,185.248541 233.858309,181.208118 234.267755,180.248512 C234.677201,179.288906 234.370138,173.581805 234.370138,173.581805 C234.370138,173.581805 234.626023,169.238336 234.16537,168.22823 C233.704717,167.218124 234.318932,160.753417 234.318932,160.753417 C234.318932,160.753417 234.728375,156.915008 234.830761,149.086679 C234.933146,141.25835 230.326718,141.005804 230.326718,141.005804 C230.326718,141.005804 229.712536,140.958326 228.780016,140.869443 C228.690471,140.860965 228.595742,140.851791 228.500574,140.84256 C229.104508,139.578302 229.456621,138.632047 229.456621,138.632047 C229.456621,138.632047 228.688908,131.308765 228.484135,130.046128 C228.279429,128.783508 227.051063,123.581449 227.051063,123.581449 C227.051063,123.581449 226.180935,121.359208 225.669138,119.793542 C225.157342,118.227876 223.621852,116.409679 223.621852,116.409679 C223.621852,116.409679 220.857999,110.955092 220.090256,110.146996 C219.73405,109.772239 219.2345,109.29952 218.801497,108.90052 C218.72342,108.828532 218.648812,108.760227 218.576295,108.694067 C218.692128,108.124888 218.753476,107.545969 218.759507,106.965154 C218.759507,106.965154 215.893301,104.136854 215.688593,103.429779 C215.483885,102.722703 212.771211,100.096424 212.771211,100.096424 C212.771211,100.096424 211.235719,97.2681231 209.495529,97.2176054 C208.67332,97.170971 207.848612,97.1959714 207.030738,97.2923238 C207.388038,95.9694465 207.810761,94.5836268 208.190369,93.3943631 C208.232642,93.261824 208.274133,93.1326283 208.315186,93.0053309 C209.705808,92.0649233 210.797117,90.7449439 211.459356,89.2023374 C211.495671,89.1202984 211.528467,89.0374279 211.561366,88.9545399 C211.579799,88.9550032 211.598076,88.9580086 211.616512,88.9577631 C211.688689,88.9569232 211.760689,88.9503972 211.831841,88.9382458 C212.404719,88.8398526 212.889615,88.1929148 212.625483,87.6823631 C212.660248,87.7410656 212.724195,87.7762068 212.792386,87.7740819 C212.983315,87.7677306 213.216296,87.4915073 213.261038,87.2484884 C213.268785,87.2063431 213.273005,87.1636894 213.279534,87.1213614 C213.287656,87.0686247 213.296341,87.0159982 213.30259,86.9630161 C213.308465,86.9132247 213.312215,86.8633106 213.3164,86.8133513 C213.320775,86.7618193 213.324805,86.7103324 213.327399,86.6586751 C213.329836,86.6103388 213.331336,86.5620701 213.332178,86.5136662 C213.33321,86.4580168 213.332897,86.4024301 213.331897,86.3467832 C213.331053,86.3022336 213.330522,86.2577592 213.328391,86.2132572 C213.325203,86.1455538 213.31958,86.0780508 213.313364,86.0105478 C213.310835,85.9828483 213.310271,85.954976 213.307211,85.9273216 L213.306647,85.9313138 C213.276721,85.6553438 213.221522,85.3827039 213.141745,85.1168268 C212.858898,84.1780479 212.265556,83.2470504 212.494194,82.2939986 C212.496698,82.2837302 212.501224,82.2743735 212.503881,82.2641953 L212.504192,82.2660436 C212.694714,81.5264429 213.334705,80.9891034 213.726309,80.3283034 C213.763646,80.2652708 213.796449,80.2002347 213.828787,80.1350308 C213.834693,80.1230995 213.841785,80.1116615 213.847533,80.0996526 C213.87109,80.0505249 213.891023,80.0000547 213.91177,79.9498626 C213.925142,79.9176 213.939795,79.8858283 213.952012,79.8531649 C213.968477,79.8091388 213.982131,79.7642812 213.996534,79.7195914 C214.009688,79.6789113 214.023495,79.6384465 214.034993,79.597273 C214.045992,79.5576723 214.054896,79.5176082 214.064363,79.4776068 C214.075828,79.4294182 214.087171,79.3812923 214.09642,79.3326129 C214.103044,79.2977131 214.108191,79.2626129 214.113666,79.2274952 C214.122291,79.1723091 214.130163,79.117093 214.136038,79.0614912 C214.139224,79.031385 214.141548,79.0012637 214.14388,78.9710497 C214.148784,78.9090365 214.152252,78.8470208 214.153782,78.784717 C214.154409,78.7597775 214.154659,78.734878 214.154722,78.7099084 C214.15497,78.6418335 214.153242,78.5737711 214.149535,78.5057213 C214.14841,78.4852648 214.147348,78.4648984 214.145848,78.4444444 C214.140724,78.3719023 214.133163,78.2996208 214.123664,78.2273993 C214.122291,78.2169657 214.121911,78.2064519 214.120408,78.1960157 L214.119877,78.1988834 C214.03298,77.5642262 213.78011,76.9637474 213.386818,76.4581174 C212.478174,75.3765344 211.113144,74.7861368 209.702724,74.8646869 C209.31813,74.9080908 208.930306,74.9152241 208.544376,74.8859925 C207.901791,74.7918243 207.358375,74.3836605 206.846266,73.9892186 C205.417257,72.8884563 203.988226,71.787694 202.559173,70.6869317 C202.081045,70.2713643 201.532164,69.9450512 200.938672,69.7235338 C200.33284,69.5381227 199.606543,69.6020945 199.158079,70.0447098 C198.355439,70.8368444 198.865642,72.2000186 198.543397,73.2740966 C198.264268,74.2043979 197.365771,74.8348436 196.435563,75.1490823 C195.505354,75.4633209 194.510032,75.5322866 193.554205,75.7597653 C193.269853,75.8058508 193.003359,75.9283049 192.783181,76.1140504 C192.535651,76.4145345 192.415418,76.7998906 192.448157,77.1878204 C192.442271,78.1390537 192.670846,79.0770848 193.113673,79.9189775 C193.294416,80.2619775 193.513337,80.6085088 193.70561,80.9599589 C193.721481,80.9889857 193.736916,81.0180902 193.752349,81.0471771 C193.773845,81.0874991 193.795403,81.1278211 193.81593,81.1683084 C193.849204,81.233964 193.880906,81.2998074 193.911035,81.3658386 C193.924033,81.3943571 193.935686,81.4230132 193.947996,81.4515918 C193.968117,81.498362 193.987217,81.545219 194.005296,81.5921628 C194.016764,81.6220687 194.027916,81.6519896 194.038415,81.6819707 C194.057784,81.7372343 194.07498,81.7926683 194.090716,81.8482075 C194.193046,82.1748482 194.20267,82.5234873 194.118515,82.8552758 C193.971109,83.3981503 193.54726,83.8163921 193.173528,84.2405245 C192.868493,84.5718554 192.651369,84.9743579 192.542005,85.4112401 L192.540224,85.4209349 C192.519365,85.5225086 192.515437,85.6268317 192.528601,85.7296862 C192.530444,85.7424941 192.531975,85.7554272 192.534537,85.7677542 C192.539366,85.7906802 192.545681,85.8132681 192.55344,85.835375 C192.559258,85.8514051 192.565946,85.8671057 192.573476,85.8824064 C192.581165,85.9004139 192.590059,85.9178829 192.600096,85.9346948 C192.618469,85.9629142 192.640324,85.9887063 192.665145,86.0114619 C192.676632,86.0209836 192.688616,86.0298911 192.701044,86.038147 C192.72171,86.0535044 192.743698,86.0669979 192.766749,86.0784691 C192.780809,86.0853914 192.795117,86.0919732 192.810489,86.0977835 C192.844513,86.1104394 192.879605,86.1200149 192.915342,86.1263946 C192.925402,86.1282454 192.933932,86.1314211 192.944394,86.1329063 C192.998997,86.139947 193.054104,86.1422839 193.109108,86.1398912 C193.124981,86.1393653 193.142257,86.1374093 193.158849,86.1362072 C193.211557,86.1322406 193.264029,86.1256035 193.316065,86.1163216 C193.335186,86.1129757 193.35387,86.1099553 193.37377,86.1058379 C193.449225,86.0902852 193.528331,86.0711234 193.615314,86.0440551 C193.902729,85.9572275 194.182425,85.8466497 194.451512,85.7134648 C194.451199,85.7442347 194.449168,85.7745864 194.449168,85.8054165 C194.449168,85.8584587 194.449168,85.9140154 194.454292,85.9670601 C194.468613,86.9575004 194.655705,87.9378398 195.007145,88.8639431 C195.555832,90.3072099 196.47669,91.5795686 197.676203,92.5518061 C197.661393,92.6390552 197.645126,92.7266433 197.627401,92.8145703 C197.380673,94.0257055 196.864752,95.240863 196.546411,95.1469227 C196.23489,95.0774593 195.916659,95.0425648 195.597489,95.0428719 C195.500851,95.0400043 195.407216,95.0387095 195.318328,95.0381685 L195.318015,95.0378304 C195.028961,95.0043803 194.737014,95.0043803 194.447961,95.0378304 C194.31877,95.0466548 194.189145,95.0287772 194.067166,94.9853116 C193.240159,94.724705 192.361049,94.6753865 191.510082,94.841858 C189.740207,95.2045055 187.048027,95.8681331 186.309964,96.6620733 C185.183953,97.8742104 183.546143,99.0358297 181.703563,104.086374 C181.703563,104.086374 180.782291,107.167205 180.065723,107.571249 C180.223615,107.489414 180.385947,107.416449 180.551964,107.352694 C180.45675,107.51959 180.325638,107.663243 180.168109,107.773265 C180.427724,107.640582 180.697223,107.5282 180.974188,107.437125 C180.414867,110.727678 181.242918,120.140201 181.242918,120.140201 C181.242918,120.140201 180.57756,121.763274 181.447656,122.722863 C181.964767,123.293176 182.245706,124.182427 182.389488,124.811826 C182.349061,124.874873 182.30706,124.940177 182.263486,125.007736 L182.263486,125.008755 C181.802863,125.72289 181.186618,126.654208 180.782298,127.16736 C180.065731,128.07645 180.270469,130.955266 180.270469,130.955266 C180.270469,130.955266 180.116907,132.318916 179.605108,132.823963 C179.093309,133.32901 179.195627,135.197719 179.195627,135.197719 L177.864908,140.096748 C177.864908,140.096748 176.636512,141.207867 176.636512,141.712911 C176.636512,142.217956 175.664061,143.632123 175.664061,143.632123 C175.664061,143.632123 174.17975,146.05638 175.664061,145.702851 C176.20508,145.544442 176.712844,145.289122 177.162649,144.949313 L177.161931,144.9856 C177.159743,145.074439 177.157942,145.164694 177.156526,145.256366 C177.114566,147.896789 177.402192,151.611983 179.349156,151.611983 C182.368924,151.611983 190.148621,155.197862 190.148621,155.197862 C191.735284,156.409996 193.884953,156.005952 193.884953,156.005952 C193.884953,156.005952 190.09744,159.793859 190.199797,161.359512 C190.302155,162.925165 188.050159,165.50095 188.050159,165.50095 L181.089351,179.086913 C181.128307,180.033504 181.296172,180.970361 181.588307,181.871588 C181.555248,181.900462 181.520937,181.928039 181.488579,181.957637 C178.813833,184.401085 178.581443,189.238498 178.581443,189.238498 L177.967261,191.713255 L187.282433,195.804165 C187.282433,195.804165 199.361438,196.056694 201.45993,195.501124 C203.558422,194.945555 203.097772,192.622323 200.333919,192.167762 C197.570066,191.7132 196.904708,190.501096 195.983433,189.945543 C195.362073,189.570787 193.155095,187.148549 191.785479,185.61319 C191.764514,185.589698 191.745613,185.56838 191.725054,185.545301 L192.042393,183.783881 C192.656575,183.480839 193.57785,180.450518 193.57785,180.450518 C193.57785,180.450518 193.57785,179.238396 194.192031,178.884852 C194.806213,178.531308 196.085788,174.89493 196.085788,174.89493 C196.085788,174.89493 198.849639,170.298933 198.696079,169.69287 C198.54252,169.086808 200.692219,166.005979 200.692219,166.005979 C200.692219,166.005979 204.326118,162.470606 204.172594,161.839279 C204.01907,161.207951 207.089976,157.975629 207.089976,157.975629 C208.199564,157.128492 209.124395,156.063608 209.807744,154.846291 C210.084123,154.801849 210.380968,154.754377 210.694212,154.701853 C214.713051,154.043272 221.391314,152.852348 222.137542,152.521031 C223.1612,152.066487 222.956492,154.086697 222.547023,155.803879 C222.137554,157.52106 221.830493,165.753448 222.291108,166.814055 C222.751723,167.874661 222.547023,169.591855 222.547023,169.591855 L221.932839,178.83436 L222.342285,180.804069 C222.342285,180.804069 220.960357,181.915191 221.523362,182.571751 C222.086368,183.228311 221.574541,186.056629 221.574541,186.056629 C221.622905,186.038732 221.680205,186.021236 221.744535,186.004035 C221.695234,186.114916 221.648338,186.228834 221.606288,186.348563 C220.812956,188.610189 221.267486,192.31931 221.267486,192.31931 L221.267486,195.248611 C221.267486,195.248611 235.444952,195.501142 238.567073,195.501142 C241.689193,195.501142 245.988503,193.985976 246.244417,192.773854 C246.500332,191.561732 242.661634,190.551606 241.228563,190.501111 Z M200.904911,137.922668 L199.976108,138.000792 C200.28385,137.956046 200.594018,137.929957 200.904911,137.922668 L200.904911,137.922668 Z M206.567022,99.1563649 C206.697057,98.5721166 206.854899,97.9436995 207.028892,97.299136 L206.567022,99.1563649 Z M208.31834,139.33912 C207.432718,139.689629 206.447031,139.690715 205.56064,139.342158 L205.554487,139.33912 C205.554487,139.33912 205.605663,135.803744 206.015139,134.339094 C206.424615,132.874443 206.987626,130.197656 206.987626,130.197656 C206.987626,130.197656 207.448246,126.51075 207.908868,124.844083 C208.369491,123.177417 210.16089,113.884408 211.082195,113.27833 C212.0035,112.672253 212.515269,113.732892 212.515269,113.732892 C212.515269,113.732892 212.652927,113.730087 212.883564,113.704526 C212.926836,113.801413 212.975712,113.904468 213.030191,114.013693 C214.122426,116.220782 217.326438,120.753146 217.326438,120.753146 C218.276901,121.33945 219.08191,122.133813 219.680815,123.076387 C220.550911,124.541037 220.806825,127.975415 220.806825,127.975415 C220.806825,127.975415 222.751726,135.601728 223.673031,136.662335 C224.133684,137.192644 223.928913,137.508809 223.609545,137.691648 C222.956874,138.048903 222.402138,138.56127 221.994261,139.183562 C221.863132,139.391589 221.724319,139.620117 221.583472,139.863584 C221.231298,139.782008 220.915958,139.697332 220.653264,139.608819 C218.145323,138.766382 209.700267,138.733055 208.318342,139.339115 L208.31834,139.33912 Z" id="Shape" fill="url(#linearGradient-1)" fill-rule="nonzero"></path>
                <path d="M220.931643,192.348938 L220.931643,195.253735 C220.931643,195.253735 234.804549,195.50415 237.859594,195.50415 C240.91464,195.50415 245.121585,194.001667 245.372009,192.799683 C245.622434,191.597699 241.866219,190.596045 240.463905,190.545961 C239.061591,190.495876 239.011506,189.94497 237.208529,188.993398 C236.190857,188.456512 234.645287,186.896937 233.493395,185.641861 C232.604941,184.673264 231.949856,183.884974 231.949856,183.884974 C231.949856,183.884974 224.487531,183.734725 222.333977,184.936709 C221.838165,185.214165 221.495593,185.757064 221.263215,186.428175 C220.486914,188.670862 220.931643,192.348938 220.931643,192.348938 Z" id="Path" fill="#434175" fill-rule="nonzero"></path>
                <path d="M221.263195,186.428165 C222.827767,185.884261 231.987899,185.672914 233.493375,185.641861 C232.604921,184.673264 231.949836,183.884974 231.949836,183.884974 C231.949836,183.884974 224.487511,183.734725 222.333957,184.936709 C221.83814,185.214155 221.495573,185.757054 221.263195,186.428165 Z" id="Path" fill="#000000" fill-rule="nonzero" opacity="0.1"></path>
                <path d="M181.015742,140.112686 C181.015742,140.112686 181.305222,140.287974 181.825088,140.601494 C181.919236,140.657594 182.020404,140.719688 182.12858,140.784791 C182.458126,140.984125 182.853775,141.221516 183.305521,141.493965 C189.599911,145.287226 206.770268,155.570209 207.70982,155.488075 C207.956223,155.467037 208.696447,155.355854 209.718142,155.189577 C209.988582,155.145498 210.279066,155.098429 210.585566,155.046341 C214.518058,154.393267 221.052847,153.212316 221.783061,152.883774 C222.784715,152.433029 222.584385,154.436337 222.183722,156.13915 C221.783059,157.841963 221.482565,166.005441 221.933309,167.057176 C222.384054,168.108912 222.183722,169.811725 222.183722,169.811725 L221.582731,178.976859 L221.983391,180.930097 C221.983391,180.930097 220.631159,182.031914 221.182068,182.682977 C221.732977,183.33404 221.232157,186.138683 221.232157,186.138683 C222.834804,185.537692 233.702749,185.337362 233.702749,185.337362 C233.702749,185.337362 233.252006,181.330745 233.652659,180.379173 C234.053312,179.427601 233.752826,173.768258 233.752826,173.768258 C233.752826,173.768258 234.003238,169.461147 233.552496,168.459493 C233.101753,167.457839 233.702741,161.047257 233.702741,161.047257 C233.702741,161.047257 234.103404,157.240972 234.203571,149.478155 C234.303737,141.715338 229.796293,141.464923 229.796293,141.464923 C229.796293,141.464923 229.1953,141.417839 228.282795,141.329697 C226.497858,141.158419 223.522933,140.830874 221.535654,140.399163 C221.128391,140.315017 220.726109,140.208344 220.330663,140.079635 C217.87661,139.244253 209.612966,139.211201 208.260732,139.812195 C207.395019,140.159735 206.428767,140.160811 205.562283,139.8152 L205.556272,139.812195 L204.504534,138.109384 L194.458943,138.965796 L193.394197,139.056943 L183.504857,139.90034 L182.824743,139.958431 L181.015742,140.112686 Z" id="Path" fill="#565387" fill-rule="nonzero"></path>
                <path d="M221.282222,147.795373 C224.20004,149.217715 226.98463,144.175394 228.282783,141.329692 C226.497845,141.158414 223.522921,140.830869 221.535642,140.399158 C220.22848,142.592782 218.484609,146.432116 221.282222,147.795373 Z" id="Path" fill="#000000" fill-rule="nonzero" opacity="0.1"></path>
                <path d="M212.517746,113.719105 C212.578745,114.063454 212.69834,114.394793 212.871332,114.698719 C213.940091,116.887337 217.075272,121.381758 217.075272,121.381758 C218.007812,121.965257 218.795577,122.753022 219.379076,123.685562 C220.230481,125.137958 220.480896,128.543582 220.480896,128.543582 C220.480896,128.543582 222.384044,136.106069 223.285527,137.157807 C223.736272,137.683674 223.535939,137.997194 223.223416,138.178492 C222.583055,138.534367 222.040198,139.042476 221.642803,139.657932 C220.329638,141.76942 218.233182,145.957333 221.182045,147.39471 C225.188663,149.347935 228.944863,139.111033 228.944863,139.111033 C228.944863,139.111033 228.193624,131.84904 227.993293,130.596974 C227.792963,129.344908 226.590977,124.186389 226.590977,124.186389 C226.590977,124.186389 225.739571,121.982749 225.238745,120.430181 C224.737918,118.877614 223.235437,117.074639 223.235437,117.074639 C223.235437,117.074639 220.53098,111.665713 219.779741,110.864402 C219.431166,110.492786 218.942358,110.024014 218.518649,109.62836 C218.028852,109.170603 217.626183,108.811013 217.626183,108.811013 C217.626183,108.811013 212.467657,112.517118 212.517746,113.719105 Z" id="Path" fill="#D9B5BB" fill-rule="nonzero"></path>
                <path d="M178.56168,191.747947 L187.676732,195.804644 C187.676732,195.804644 199.496248,196.055058 201.549638,195.50415 C203.603027,194.953241 203.152284,192.649434 200.44782,192.198689 C197.743356,191.747945 197.092278,190.545961 196.190791,189.995052 C195.58278,189.623436 193.423219,187.221472 192.083005,185.698958 C191.437946,184.965746 190.98219,184.435872 190.98219,184.435872 C190.98219,184.435872 189.229294,179.778182 184.371274,180.829918 C183.48468,181.021486 182.66728,181.45166 182.007373,182.07397 C179.390049,184.496971 179.162673,189.293895 179.162673,189.293895 L178.56168,191.747947 Z" id="Path" fill="#434175" fill-rule="nonzero"></path>
                <path d="M182.12857,140.784791 C182.458116,140.984125 182.853765,141.221516 183.305511,141.493965 C189.599901,145.287226 206.770258,155.570209 207.70981,155.488075 C207.956213,155.467037 208.696437,155.355854 209.718132,155.189577 C209.988572,155.145498 210.279056,155.098429 210.585556,155.046341 C210.597577,155.027307 210.608597,155.008273 210.619616,154.989239 C211.123981,154.108351 211.509622,153.164624 211.766507,152.182607 C212.818243,148.175992 207.609642,145.120947 207.609642,145.120947 L206.507824,144.264535 C205.255756,142.156048 196.24087,140.162761 196.24087,140.162761 L195.078953,139.382467 L194.458923,138.965783 L194.295667,138.856601 L192.885331,137.909039 L185.823668,138.409865 L183.726213,139.758088 L183.504837,139.900327 L182.726562,140.401154 L182.12857,140.784791 Z" id="Path" fill="#000000" fill-rule="nonzero" opacity="0.1"></path>
                <path d="M182.007373,182.07397 C183.924547,188.704921 191.933761,186.539346 191.933761,186.539346 L192.083005,185.698958 C191.437946,184.965746 190.98219,184.435872 190.98219,184.435872 C190.98219,184.435872 189.229294,179.778182 184.371274,180.829918 C183.48468,181.021486 182.66728,181.45166 182.007373,182.07397 Z" id="Path" fill="#000000" fill-rule="nonzero" opacity="0.1"></path>
                <path d="M179.913912,151.982284 C182.868791,151.982284 190.481363,155.538157 190.481363,155.538157 C192.033925,156.740141 194.137391,156.33948 194.137391,156.33948 C194.137391,156.33948 190.431273,160.095688 190.531437,161.648245 C190.631601,163.200803 188.427964,165.755026 188.427964,165.755026 L181.616718,179.227271 C182.117545,188.793068 191.933754,186.138683 191.933754,186.138683 L192.334414,183.884964 C192.935408,183.584467 193.836895,180.579506 193.836895,180.579506 C193.836895,180.579506 193.836895,179.377519 194.437888,179.026941 C195.038881,178.676362 196.290947,175.070408 196.290947,175.070408 C196.290947,175.070408 198.995414,170.512882 198.845166,169.911892 C198.694917,169.310901 200.798391,166.255863 200.798391,166.255863 C200.798391,166.255863 204.354261,162.750075 204.204015,162.124042 C204.053769,161.498009 207.058748,158.292706 207.058748,158.292706 C208.147148,157.450082 209.052087,156.39415 209.718144,155.189577 C210.222507,154.308689 210.608147,153.364963 210.865032,152.382947 C211.712428,149.156616 208.499127,146.546307 207.216016,145.653836 C206.905494,145.437475 206.708172,145.321287 206.708172,145.321287 L205.606352,144.464873 C205.037418,143.505287 202.861818,142.570741 200.659182,141.836527 C199.070561,141.306656 197.466912,140.880953 196.442222,140.625532 C195.764099,140.457254 195.339398,140.363098 195.339398,140.363098 L194.177483,139.582808 L193.768813,139.308355 L193.394194,139.056938 L191.983858,138.109379 L188.84167,138.331741 L184.922183,138.610198 L182.824725,139.958418 L181.825078,140.601487 L177.910605,143.117647 C177.910605,143.117647 177.807433,144.081238 177.774382,145.37437 C177.772378,145.474536 177.770375,145.575704 177.768371,145.679873 C177.727295,148.298198 178.008765,151.982284 179.913912,151.982284 Z" id="Path" fill="#565387" fill-rule="nonzero"></path>
                <path d="M194.988804,95.8896615 L196.040542,99.6458691 C196.040542,99.6458691 197.893601,106.106536 198.093932,106.557281 C198.294262,107.008026 203.152284,111.565552 203.352615,111.665716 C203.552945,111.765879 206.198306,113.268362 206.198306,113.268362 C206.198306,113.268362 206.40766,105.004718 206.207322,102.600748 C206.189972,102.07262 206.233668,101.544254 206.337542,101.026151 C206.657063,99.1420369 207.465404,96.3794762 208.135503,94.2519646 C208.696427,92.4690157 209.162199,91.1318104 209.162199,91.1318104 C209.162199,91.1318104 197.442847,90.6309835 197.843509,91.7828855 C197.99476,92.2186036 197.945692,92.9468064 197.799431,93.6770179 C197.55803,94.878005 197.053193,96.0829918 196.741679,95.9898404 C196.436977,95.9209691 196.125533,95.8863596 195.813144,95.8866562 C195.380444,95.8736329 194.988804,95.8896615 194.988804,95.8896615 Z" id="Path" fill="#D9B5BB" fill-rule="nonzero"></path>
                <path d="M197.799463,93.6770079 C200.739512,96.1309114 204.941456,96.3646489 208.135526,94.2519621 C208.69645,92.4690132 209.162221,91.1318079 209.162221,91.1318079 C209.162221,91.1318079 197.442869,90.630981 197.843532,91.782883 C197.99477,92.2186061 197.945689,92.9468039 197.799463,93.6770079 Z" id="Path" fill="#000000" fill-rule="nonzero" opacity="0.1"></path>
                <path d="M212.017996,86.7265088 C212.018462,87.6454347 211.872196,88.5585422 211.584705,89.4313388 C211.512365,89.656613 211.428777,89.8781194 211.334258,90.095024 C209.953772,93.3644393 206.719202,95.4615534 203.171055,95.3875877 C199.622909,95.313622 196.478545,93.0835307 195.23551,89.7594247 C194.891437,88.8400869 194.708435,87.8683119 194.694544,86.886795 C194.689535,86.8342011 194.689535,86.7791027 194.689535,86.7265088 C194.689535,81.9413863 198.568643,78.0622782 203.353765,78.0622782 C208.138888,78.0622782 212.017996,81.9413863 212.017996,86.7265088 L212.017996,86.7265088 Z" id="Path" fill="#D9B5BB" fill-rule="nonzero"></path>
                <path d="M194.988804,95.8896615 L196.040542,99.6458691 C196.040542,99.6458691 197.893601,106.106536 198.093932,106.557281 C198.294262,107.008026 203.152284,111.565552 203.352615,111.665716 C203.552945,111.765879 206.198306,113.268362 206.198306,113.268362 C206.198306,113.268362 206.40766,105.004718 206.207322,102.600748 C206.189972,102.07262 206.233668,101.544254 206.337542,101.026151 L205.656411,103.802732 L205.706501,109.361909 L206.107161,109.662406 L205.205674,111.014638 L205.205674,110.012984 C205.205674,110.012984 202.00038,106.907857 201.499556,105.605707 C200.998731,104.303556 199.195752,101.945671 199.195752,101.945671 C199.195752,101.945671 197.14236,98.4939696 197.092278,97.8929764 C197.053208,97.4242043 196.190791,96.340414 195.813164,95.8866612 C195.380444,95.8736329 194.988804,95.8896615 194.988804,95.8896615 Z" id="Path" fill="#000000" fill-rule="nonzero" opacity="0.1"></path>
                <path d="M212.517746,113.719105 C212.578745,114.063454 212.69834,114.394793 212.871332,114.698719 C213.966135,114.586534 217.697295,113.890383 218.518647,109.628347 C218.02885,109.17059 217.626181,108.811 217.626181,108.811 C217.626181,108.811 212.467657,112.517118 212.517746,113.719105 Z" id="Path" fill="#000000" fill-rule="nonzero" opacity="0.1"></path>
                <path d="M177.768379,145.679873 C178.779031,144.964698 179.740628,143.989088 180.314575,143.71864 C181.165981,143.317977 182.468131,142.015827 182.468131,142.015827 C182.468131,142.015827 182.798681,141.791459 183.305511,141.493965 C184.235049,140.949065 185.758562,140.15976 186.925491,140.062602 C187.971213,139.975459 191.444953,139.753089 194.177468,139.582808 C196.154731,139.458603 197.743353,139.361445 197.743353,139.361445 C197.743353,139.361445 200.998729,138.209543 202.401045,138.960784 C203.405372,139.463913 204.464003,139.850397 205.556255,140.112686 C205.556255,140.112686 205.557257,140.003504 205.562265,139.81519 L205.556255,139.812185 L204.504517,138.109374 L193.394177,139.056933 L191.983841,138.109374 L184.922181,138.610201 L182.824723,139.958421 L181.01573,140.112681 C181.01573,140.112681 181.305209,140.287969 181.825075,140.601489 L177.910605,143.117647 C177.910605,143.117647 177.790413,144.236495 177.768379,145.679873 Z" id="Path" fill="#000000" fill-rule="nonzero" opacity="0.1"></path>
                <path d="M176.307958,146.122613 C176.838259,145.965084 177.335254,145.711834 177.774382,145.375379 L177.774382,145.374377 C178.783043,144.660199 179.741645,143.687597 180.314575,143.418151 C181.165981,143.017488 182.468131,141.715341 182.468131,141.715341 C182.468131,141.715341 185.122513,139.912371 186.925491,139.762115 C187.417294,139.721042 188.444991,139.64993 189.680039,139.569792 C190.944127,139.485657 192.423571,139.391501 193.768798,139.308362 C194.544078,139.259275 195.274274,139.213192 195.891296,139.175147 C196.997126,139.107025 197.743353,139.060943 197.743353,139.060943 C197.743353,139.060943 200.998729,137.909041 202.401045,138.660283 C203.405372,139.163411 204.464003,139.549895 205.556255,139.812185 C205.556255,139.812185 205.606344,136.306397 206.007,134.853998 C206.407655,133.4016 206.958569,130.747217 206.958569,130.747217 C206.958569,130.747217 207.409314,127.091189 207.860059,125.43845 C208.310804,123.785711 210.063696,114.570505 210.965186,113.969512 C211.866676,113.368519 212.3675,114.420257 212.3675,114.420257 C212.3675,114.420257 218.377425,114.320078 218.477591,107.709175 C218.477591,107.709175 215.67296,104.904545 215.472628,104.203387 C215.272295,103.50223 212.617925,100.897935 212.617925,100.897935 C212.617925,100.897935 211.115444,98.0933016 209.412631,98.0432197 C208.608019,97.9969367 207.800892,98.0217437 207.000642,98.1173521 L205.556265,104.003072 L205.606354,109.562249 L206.007017,109.862746 L205.105527,111.214978 L205.105527,110.213314 C205.105527,110.213314 201.900234,107.108187 201.399409,105.806039 C200.898585,104.503892 199.095605,102.146004 199.095605,102.146004 C199.095605,102.146004 197.042216,98.6943023 196.992134,98.0933091 C196.942052,97.4923159 195.539736,95.8816572 195.539736,95.8816572 C195.256903,95.8484927 194.971163,95.8484927 194.68833,95.8816572 C194.561855,95.8904019 194.434946,95.8726595 194.315717,95.8295642 C193.507148,95.5711818 192.646229,95.522241 191.813587,95.6873252 C190.081724,96.0469224 187.44737,96.70501 186.72518,97.4922984 C185.62336,98.6942823 184.020713,99.8461843 182.217736,104.854445 L191.933781,108.360233 L191.102402,109.94084 L183.369638,124.637109 C183.369638,124.637109 183.11321,125.054797 182.76564,125.600699 L182.76564,125.601701 C182.314895,126.309871 181.711898,127.233392 181.316249,127.742234 C180.615092,128.643723 180.815422,131.498441 180.815422,131.498441 C180.815422,131.498441 180.665174,132.850673 180.164347,133.3515 C179.66352,133.852327 179.763684,135.705386 179.763684,135.705386 L178.461516,140.563436 C178.461516,140.563436 177.25953,141.665254 177.25953,142.166081 C177.25953,142.666907 176.307958,144.069229 176.307958,144.069229 C176.307958,144.069229 174.855562,146.473189 176.307958,146.122613 Z" id="Path" fill="#434175" fill-rule="nonzero"></path>
                <path d="M227.59264,149.728552 C227.59264,149.728552 224.437431,150.780291 223.586026,152.282771 C222.73462,153.785252 227.59264,149.728552 227.59264,149.728552 Z" id="Path" fill="#000000" fill-rule="nonzero" opacity="0.1"></path>
                <path d="M225.989994,146.423105 C225.88983,146.573353 221.668504,150.809215 221.933297,151.832036 C222.19809,152.854858 225.989994,146.423105 225.989994,146.423105 Z" id="Path" fill="#000000" fill-rule="nonzero" opacity="0.1"></path>
                <path d="M202.801706,149.428068 C202.801706,149.428068 198.093932,151.64823 197.693274,152.616585 C197.292616,153.584939 202.801706,149.428068 202.801706,149.428068 Z" id="Path" fill="#000000" fill-rule="nonzero" opacity="0.1"></path>
                <path d="M202.501209,152.282781 C202.501209,152.282781 198.252582,154.085751 197.672429,154.536503 C197.092275,154.987255 202.501209,152.282781 202.501209,152.282781 Z" id="Path" fill="#000000" fill-rule="nonzero" opacity="0.1"></path>
                <path d="M200.547984,156.13915 C200.547984,156.13915 198.666324,157.541464 197.628886,156.439644 C196.591449,155.337824 200.547984,156.13915 200.547984,156.13915 Z" id="Path" fill="#000000" fill-rule="nonzero" opacity="0.1"></path>
                <path d="M207.610468,119.578781 C207.50948,119.729027 201.249143,130.997634 199.596407,131.84904 C197.943671,132.700445 207.610468,119.578781 207.610468,119.578781 Z" id="Path" fill="#000000" fill-rule="nonzero" opacity="0.1"></path>
                <path d="M207.309147,123.835815 C207.309147,124.08623 201.199059,137.157815 200.197405,137.308063 C199.195752,137.458311 207.309147,123.835815 207.309147,123.835815 Z" id="Path" fill="#000000" fill-rule="nonzero" opacity="0.1"></path>
                <path d="M184.070778,132.249703 C184.070778,132.249703 181.119796,138.551358 179.963997,138.9107 C178.808198,139.270042 184.070778,132.249703 184.070778,132.249703 Z" id="Path" fill="#000000" fill-rule="nonzero" opacity="0.1"></path>
                <path d="M183.569951,129.445082 C183.569951,129.445082 182.552657,131.648719 181.934443,131.648719 C181.316229,131.648719 183.569951,129.445082 183.569951,129.445082 Z" id="Path" fill="#000000" fill-rule="nonzero" opacity="0.1"></path>
                <path d="M212.01798,86.7265088 C212.018462,87.6454347 211.872196,88.5585422 211.584705,89.4313388 C211.512365,89.656613 211.428777,89.8781194 211.334258,90.095024 C210.889354,90.0276004 210.470245,89.8435421 210.119564,89.5615714 C209.747772,89.3096084 209.437137,88.9775689 209.21047,88.5898361 C209.039596,88.1767089 208.891608,87.7544832 208.767179,87.3250776 C208.360276,86.3381088 207.450694,85.6489734 206.390434,85.5243621 C206.678424,86.0152386 206.220115,86.6889417 205.656609,86.7765982 C205.093103,86.8617503 204.544608,86.526151 204.15643,86.1079041 C203.768252,85.6896572 203.487736,85.1812494 203.102027,84.7630025 C202.713852,84.3447556 202.165355,84.0091564 201.601848,84.0943084 C201.103458,84.1694426 200.71777,84.5501224 200.299535,84.8331277 C199.883815,85.1161331 199.300251,85.306473 198.897031,85.0034318 C198.671628,84.8356322 198.561431,84.5501224 198.346029,84.3672959 C197.792541,83.9039685 196.931028,84.3823227 196.522774,84.9808916 C195.894151,85.9075463 195.510987,86.4685481 194.694526,86.886795 C194.689517,86.8342011 194.689517,86.7791027 194.689517,86.7265088 C194.689517,81.9413863 198.568626,78.0622782 203.353748,78.0622782 C208.13887,78.0622782 212.01798,81.9413863 212.01798,86.7265088 L212.01798,86.7265088 Z" id="Path" fill="#000000" fill-rule="nonzero" opacity="0.1"></path>
                <path d="M196.523585,84.7303191 C196.931108,84.131302 197.7921,83.6523717 198.347146,84.1180157 C198.562576,84.298746 198.672512,84.5845363 198.897096,84.753756 C199.299615,85.0570476 199.883961,84.8667478 200.300297,84.5827231 C200.716633,84.2986984 201.103361,83.9197467 201.60162,83.8439338 C202.165244,83.7581707 202.714493,84.094103 203.101549,84.512698 C203.488605,84.931293 203.769164,85.4391324 204.156327,85.8576172 C204.543491,86.276102 205.093,86.6117413 205.656556,86.5254973 C206.220113,86.4392533 206.679541,85.7649091 206.389866,85.2738798 C207.449824,85.3987989 208.359071,86.0878087 208.766011,87.0744776 C208.890615,87.5038122 209.038735,87.9259697 209.209699,88.3390383 C209.436589,88.7267263 209.747654,89.0585069 210.119929,89.3098869 C210.579515,89.646766 211.136464,89.9308483 211.697857,89.8331488 C212.259249,89.7354494 212.734433,89.0921807 212.473537,88.585581 C212.652932,88.8580501 213.03808,88.4785148 213.096334,88.1575342 C213.223322,87.4535513 213.183664,86.7296115 212.98054,86.043712 C212.703773,85.1127846 212.123189,84.1895936 212.346921,83.2445159 C212.524055,82.4962773 213.163479,81.9590129 213.551635,81.2952551 C214.239736,80.1185814 214.057122,78.5335034 213.220346,77.4574694 C212.337998,76.3879298 210.99985,75.801404 209.615408,75.8773828 C209.239111,75.9204185 208.859568,75.9274897 208.481929,75.8985005 C207.853151,75.8051288 207.321407,75.400386 206.820322,75.0092401 L202.625288,71.7345975 C202.15862,71.3232044 201.621431,70.999555 201.039629,70.779259 C200.446806,70.5954007 199.736139,70.658834 199.297268,71.0977478 C198.511865,71.8832479 199.011114,73.2350093 198.695781,74.3001063 C198.422664,75.2226161 197.543474,75.847785 196.633253,76.1593914 C195.723033,76.4709979 194.749079,76.5393975 193.813804,76.7649728 C193.534936,76.8109553 193.273994,76.9324589 193.059314,77.1162902 C192.816687,77.4155918 192.699222,77.7971348 192.731501,78.1810716 C192.725493,79.1233179 192.948998,80.0528576 193.382706,80.8893753 C193.868516,81.8236487 194.638476,82.7839309 194.365962,83.8010898 C194.221732,84.3394211 193.806984,84.7541642 193.441311,85.1747478 C192.648553,86.0865209 192.380985,87.4337818 193.872696,86.9631513 C195.3096,86.5098018 195.712669,85.9222826 196.523585,84.7303191 Z" id="Path" fill="#434175" fill-rule="nonzero"></path>
                <g id="Group" opacity="0.1" transform="translate(192.593918, 77.638640)" fill="#000000" fill-rule="nonzero">
                    <path d="M20.5033005,9.53149052 C20.4450315,9.85248372 20.0598812,10.2320064 19.8804859,9.95954741 C20.1413868,10.466142 19.6662032,11.1094107 19.1048082,11.2071052 C18.5434132,11.3047996 17.9864787,11.0207224 17.5268855,10.6838458 C17.1546052,10.4324728 16.8435407,10.1006906 16.6166601,9.71299714 C16.4456953,9.2999301 16.2975742,8.87777424 16.1729678,8.4484415 C15.7660225,7.46177023 14.8567698,6.77276122 13.7968072,6.64784615 C14.086507,7.13886547 13.6270691,7.81321216 13.0634977,7.89945617 C12.4999263,7.98570018 11.9504551,7.65006333 11.5632912,7.23157603 C11.1761274,6.81308873 10.8955639,6.30525438 10.5085202,5.88665939 C10.1214766,5.4680644 9.57221574,5.13213953 9.00859177,5.21789517 C8.51032701,5.29371306 8.12361896,5.67265474 7.70726798,5.95668694 C7.29091699,6.24071914 6.70661109,6.43101395 6.30406726,6.12772236 C6.07948372,5.95850519 5.9695449,5.67270233 5.75413274,5.4919746 C5.1990966,5.02632809 4.33810411,5.50527335 3.93056386,6.10427299 C3.11966834,7.29625152 2.71660608,7.88375814 1.27965259,8.3371127 C0.807952773,8.48593596 0.513053667,8.45227585 0.354172451,8.30878712 C0.0388593918,9.03293524 0.182448301,9.67068408 1.27965259,9.32451592 C2.71660608,8.87116136 3.11966834,8.28363971 3.93056386,7.09167871 C4.33809159,6.49266154 5.1990966,6.01373381 5.75413274,6.47937782 C5.9695449,6.66010555 6.07948372,6.94589338 6.30406726,7.11511055 C6.70661109,7.41840215 7.29093703,7.22810733 7.70726798,6.94409016 C8.12359893,6.66007299 8.51033703,6.28110376 9.00859177,6.20529839 C9.57222075,6.11952773 10.1214816,6.45547013 10.5085202,6.87406512 C10.8955589,7.29266011 11.1761249,7.80049445 11.5632912,8.21898175 C11.9504576,8.63746905 12.4999639,8.9731034 13.0634977,8.88685939 C13.6270315,8.80061538 14.086502,8.1262712 13.7968072,7.63523685 C14.8567717,7.76015682 15.7660239,8.44917027 16.1729678,9.43584472 C16.2975789,9.86517677 16.4456999,10.2873332 16.6166601,10.7004029 C16.8435446,11.0880934 17.1546084,11.4198748 17.5268855,11.6712515 C17.9864787,12.0081256 18.5434508,12.2922029 19.1048082,12.1945084 C19.6661657,12.096814 20.1413868,11.4535478 19.8804859,10.9469356 C20.0598812,11.2194222 20.4450315,10.8398719 20.5033005,10.5188937 C20.5811882,10.0866253 20.5964064,9.64539176 20.5484862,9.20878426 C20.5368705,9.31681717 20.5226826,9.42456458 20.5033005,9.53149052 Z" id="Path"></path>
                    <path d="M1.76011306,5.21307907 C1.76393488,5.20019356 1.76946977,5.18808694 1.77295349,5.17504615 C2.04547513,4.15789481 1.27548515,3.19760751 0.789697674,2.26334669 C0.448949246,1.6045107 0.237633424,0.886471338 0.167186047,0.148086941 C0.148374493,0.278700937 0.138782024,0.410477286 0.138479785,0.54243864 C0.1324718,1.48468346 0.35598023,2.41422134 0.789692665,3.25073488 C1.12176816,3.88939535 1.58625009,4.54024758 1.76011306,5.21307907 Z" id="Path"></path>
                    <path d="M20.958581,2.66921395 C20.5704379,3.33298175 19.9309961,3.87024114 19.7538547,4.61847979 C19.6852981,4.93503461 19.6883272,5.26290679 19.7627206,5.57814097 C19.949151,4.84473131 20.5753893,4.31187979 20.958581,3.65661968 C21.3201235,3.0148231 21.4559237,2.27029679 21.3442497,1.5421864 C21.2897917,1.93926921 21.1588158,2.32201594 20.958581,2.66921395 Z" id="Path"></path>
                </g>
                <path d="M182.765617,125.600717 L182.765617,125.601719 C182.832248,125.878113 182.883413,126.158009 182.918873,126.440101 C182.918873,126.440101 186.875406,135.705396 187.376233,136.25631 C187.530491,136.42559 188.111456,137.258968 188.841652,138.331733 C189.106092,138.719373 189.389556,139.139068 189.680037,139.569777 C191.194536,141.817488 192.885331,144.369708 192.885331,144.369708 L196.591449,147.625084 C196.591449,147.625084 204.653761,148.270148 207.215999,145.653829 C206.905477,145.437467 206.708154,145.32128 206.708154,145.32128 L205.606334,144.464865 C205.037401,143.505279 202.861801,142.570733 200.659165,141.836519 C198.629811,141.851546 196.970077,142.01582 196.970077,142.01582 L196.442205,140.625525 L195.891293,139.175132 L193.08967,131.79896 C193.08967,131.79896 191.282694,122.483576 190.681691,122.032833 C190.080687,121.582091 190.230946,120.179774 190.230946,120.179774 C190.230946,120.179774 191.332766,116.223242 190.932105,115.672333 C190.531445,115.121424 191.58318,111.064725 191.58318,111.064725 C191.47855,110.668672 191.31657,110.290047 191.102379,109.940865 L183.369616,124.637134 C183.369616,124.637134 183.11319,125.05482 182.765617,125.600717 Z" id="Path" fill="#000000" fill-rule="nonzero" opacity="0.1"></path>
                <path d="M191.683347,110.764223 C191.683347,110.764223 190.631611,114.82092 191.032272,115.371831 C191.432932,115.922742 190.331127,119.879275 190.331127,119.879275 C190.331127,119.879275 190.180879,121.281592 190.781872,121.732334 C191.382865,122.183077 193.189729,131.498459 193.189729,131.498459 L197.070031,141.715331 C197.070031,141.715331 209.212303,140.513344 207.960228,144.319629 C206.708152,148.125913 196.691623,147.324592 196.691623,147.324592 L192.985504,144.069216 C192.985504,144.069216 187.977236,136.50673 187.476417,135.955818 C186.975597,135.404907 183.019055,126.139612 183.019055,126.139612 C183.019055,126.139612 182.818725,124.286553 181.967319,123.334979 C181.115914,122.383404 181.766989,120.773928 181.766989,120.773928 C181.766989,120.773928 180.715251,108.66075 181.817078,107.208351 C182.918906,105.755952 190.531445,106.40703 191.683347,110.764223 Z" id="Path" fill="#D9B5BB" fill-rule="nonzero"></path>
                <path d="M185.473092,103.151654 L182.317883,105.054803 C182.317883,105.054803 181.416395,108.109848 180.715236,108.510509 C180.715236,108.510509 187.025657,105.004721 191.783513,113.068035 C191.783513,113.068035 191.633265,112.016297 192.28434,111.51547 C192.935415,111.014643 192.785167,108.861087 192.785167,108.861087 C192.958404,108.520814 193.10898,108.169471 193.235912,107.809352 C193.686654,106.707527 191.332768,100.397108 185.473092,103.151654 Z" id="Path" fill="#000000" fill-rule="nonzero" opacity="0.1"></path>
                <path d="M185.372928,102.951324 L182.217716,104.854473 C182.217716,104.854473 181.316229,107.909516 180.615072,108.310179 C180.615072,108.310179 186.925491,104.804388 191.683337,112.867704 C191.683337,112.867704 191.533088,111.815966 192.184164,111.31514 C192.835239,110.814313 192.68499,108.660757 192.68499,108.660757 C192.858228,108.320483 193.008804,107.969139 193.135735,107.609019 C193.58649,106.507196 191.232602,100.196775 185.372928,102.951324 Z" id="Path" fill="#434175" fill-rule="nonzero"></path>
                <ellipse id="Oval" fill="#FBD56F" fill-rule="nonzero" cx="157.250467" cy="180.675284" rx="9.40602397" ry="9.98417138"></ellipse>
                <ellipse id="Oval" fill="#000000" fill-rule="nonzero" opacity="0.1" cx="157.250467" cy="180.675284" rx="9.40602397" ry="9.98417138"></ellipse>
                <ellipse id="Oval" fill="#FBD56F" fill-rule="nonzero" cx="158.873773" cy="180.897649" rx="9.40602397" ry="9.7618068"></ellipse>
                <ellipse id="Oval" fill="#2A46FF" fill-rule="nonzero" cx="22.5760093" cy="184.198125" rx="11.6171674" ry="1.96387442"></ellipse>
                <path d="M27.3796422,180.985235 C27.8771556,180.522942 28.343864,179.977579 28.487215,179.313728 C28.630566,178.649878 28.3476333,177.853826 27.7132755,177.611258 C27.0024712,177.339438 26.2429123,177.832152 25.667039,178.329653 C25.0911657,178.827154 24.4311646,179.395056 23.6774862,179.289705 C24.4660982,178.574973 24.821709,177.498776 24.6142014,176.454893 C24.5811082,176.24295 24.4910658,176.043977 24.3536912,175.879225 C23.9591166,175.457389 23.2438218,175.638545 22.7713657,175.970866 C21.2688902,177.027698 20.8496515,179.068588 20.8414769,180.905508 C20.6899564,180.24292 20.8175767,179.552464 20.8138376,178.872776 C20.8100984,178.193087 20.6238358,177.439636 20.0504744,177.074587 C19.6933119,176.882277 19.2916352,176.787865 18.8862004,176.800931 C18.2108143,176.776089 17.4586011,176.843797 16.9973624,177.337772 C16.4242741,177.951541 16.572907,178.981337 17.0714773,179.657034 C17.5700476,180.33273 18.3284168,180.756104 19.0264683,181.22283 C19.5864248,181.556344 20.0639696,182.01183 20.4235732,182.555399 C20.4658422,182.631157 20.5005344,182.7109 20.5271456,182.793469 L24.7612165,182.793469 C25.7116743,182.311729 26.5924918,181.703454 27.3796422,180.985235 Z" id="Path" fill="#2A46FF" fill-rule="nonzero"></path>
                <path d="M127.633244,171.392055 C128.150791,172.100681 128.574043,172.873568 128.892365,173.691296 C128.9765,173.902716 129.058847,174.124855 129.136759,174.357906 C130.388324,178.09838 128.405182,182.583845 127.838223,182.100019 C127.271263,181.616192 125.504495,180.718477 125.162875,181.979977 C124.821255,183.241477 123.559302,184.530857 123.559302,184.530857 C121.260153,186.843351 119.179037,184.344825 117.812995,181.763295 C117.36667,180.911542 116.969847,180.034754 116.624503,179.137304 C116.321211,178.344487 116.14701,177.796556 116.14701,177.796556 L125.723316,169.637304 C125.723316,169.637304 126.649094,170.062333 127.633244,171.392055 Z" id="Path" fill="#2A46FF" fill-rule="nonzero"></path>
                <path d="M112.54029,176.609379 C113.057837,177.318006 113.48109,178.090893 113.799413,178.90862 C113.883546,179.120042 113.965893,179.342179 114.043807,179.57523 C115.29537,183.315704 113.312228,187.801169 112.745276,187.317343 C112.178323,186.833516 110.411548,185.935801 110.069928,187.197301 C109.728308,188.458801 108.466357,189.748181 108.466357,189.748181 C106.167207,192.060675 104.086091,189.562149 102.720049,186.980621 C102.273725,186.128871 101.876902,185.252086 101.531556,184.354638 C101.228265,183.561821 101.054066,183.013891 101.054066,183.013891 L110.630369,174.854638 C110.630369,174.854638 111.55614,175.279642 112.54029,176.609379 Z" id="Path" fill="#2A46FF" fill-rule="nonzero"></path>
                <path d="M82.2353338,183.81715 C82.1815453,184.692998 82.0141493,185.55814 81.7373521,186.390838 C81.6671968,186.607302 81.5888243,186.830874 81.5000809,187.060033 C80.0764962,190.738477 75.6871581,192.926116 75.5594275,192.191802 C75.431697,191.457488 74.6444261,189.638828 73.5763488,190.392003 C72.5082716,191.145178 70.7138447,191.33248 70.7138447,191.33248 C67.467966,191.645539 67.4602848,188.393805 68.0561288,185.534544 C68.256092,184.593961 68.5101435,183.665695 68.8170175,182.754372 C69.0894841,181.950462 69.3050565,181.417435 69.3050565,181.417435 L81.8848104,181.247316 C81.8848104,181.247316 82.3262787,182.16535 82.2353338,183.81715 Z" id="Path" fill="#2A46FF" fill-rule="nonzero"></path>
                <path d="M65.9816193,179.717835 C65.9278298,180.593682 65.7604338,181.458823 65.4836376,182.291521 C65.4134873,182.507987 65.3351224,182.731556 65.2463639,182.960716 C63.8227818,186.639159 59.4334286,188.826798 59.3057005,188.092484 C59.1779725,187.358171 58.3906991,185.539508 57.3226193,186.292686 C56.2545395,187.045863 54.4601152,187.233162 54.4601152,187.233162 C51.2142365,187.546221 51.2065553,184.294487 51.8023968,181.435226 C52.0023611,180.494644 52.2564126,179.566378 52.5632855,178.655054 C52.8357546,177.851144 53.051322,177.318117 53.051322,177.318117 L65.6310733,177.147998 C65.6310733,177.147998 66.0725642,178.06602 65.9816193,179.717835 Z" id="Path" fill="#2A46FF" fill-rule="nonzero"></path>
                <path d="M127.633244,171.392055 C128.150791,172.100681 128.574043,172.873568 128.892365,173.691296 C128.9765,173.902716 129.058847,174.124855 129.136759,174.357906 C130.388324,178.09838 128.405182,182.583845 127.838223,182.100019 C127.271263,181.616192 125.504495,180.718477 125.162875,181.979977 C124.821255,183.241477 123.559302,184.530857 123.559302,184.530857 C121.260153,186.843351 119.179037,184.344825 117.812995,181.763295 C117.36667,180.911542 116.969847,180.034754 116.624503,179.137304 C116.321211,178.344487 116.14701,177.796556 116.14701,177.796556 L125.723316,169.637304 C125.723316,169.637304 126.649094,170.062333 127.633244,171.392055 Z" id="Path" fill="#000000" fill-rule="nonzero" opacity="0.2"></path>
                <path d="M112.54029,176.609379 C113.057837,177.318006 113.48109,178.090893 113.799413,178.90862 C113.883546,179.120042 113.965893,179.342179 114.043807,179.57523 C115.29537,183.315704 113.312228,187.801169 112.745276,187.317343 C112.178323,186.833516 110.411548,185.935801 110.069928,187.197301 C109.728308,188.458801 108.466357,189.748181 108.466357,189.748181 C106.167207,192.060675 104.086091,189.562149 102.720049,186.980621 C102.273725,186.128871 101.876902,185.252086 101.531556,184.354638 C101.228265,183.561821 101.054066,183.013891 101.054066,183.013891 L110.630369,174.854638 C110.630369,174.854638 111.55614,175.279642 112.54029,176.609379 Z" id="Path" fill="#000000" fill-rule="nonzero" opacity="0.2"></path>
                <path d="M82.2353338,183.81715 C82.1815453,184.692998 82.0141493,185.55814 81.7373521,186.390838 C81.6671968,186.607302 81.5888243,186.830874 81.5000809,187.060033 C80.0764962,190.738477 75.6871581,192.926116 75.5594275,192.191802 C75.431697,191.457488 74.6444261,189.638828 73.5763488,190.392003 C72.5082716,191.145178 70.7138447,191.33248 70.7138447,191.33248 C67.467966,191.645539 67.4602848,188.393805 68.0561288,185.534544 C68.256092,184.593961 68.5101435,183.665695 68.8170175,182.754372 C69.0894841,181.950462 69.3050565,181.417435 69.3050565,181.417435 L81.8848104,181.247316 C81.8848104,181.247316 82.3262787,182.16535 82.2353338,183.81715 Z" id="Path" fill="#000000" fill-rule="nonzero" opacity="0.2"></path>
                <path d="M65.9816193,179.717835 C65.9278298,180.593682 65.7604338,181.458823 65.4836376,182.291521 C65.4134873,182.507987 65.3351224,182.731556 65.2463639,182.960716 C63.8227818,186.639159 59.4334286,188.826798 59.3057005,188.092484 C59.1779725,187.358171 58.3906991,185.539508 57.3226193,186.292686 C56.2545395,187.045863 54.4601152,187.233162 54.4601152,187.233162 C51.2142365,187.546221 51.2065553,184.294487 51.8023968,181.435226 C52.0023611,180.494644 52.2564126,179.566378 52.5632855,178.655054 C52.8357546,177.851144 53.051322,177.318117 53.051322,177.318117 L65.6310733,177.147998 C65.6310733,177.147998 66.0725642,178.06602 65.9816193,179.717835 Z" id="Path" fill="#000000" fill-rule="nonzero" opacity="0.2"></path>
                <path d="M153.177531,124.585937 C153.177531,158.185639 141.811234,185.423596 89.3585513,185.423596 C54.1122991,185.423596 26.8438955,176.665957 25.5395689,124.585937 C24.6983166,90.9967517 54.1122841,63.7482712 89.3585313,63.7482712 C124.604779,63.7482712 153.177531,90.9862179 153.177531,124.585937 Z" id="Path" fill="#2A46FF" fill-rule="nonzero"></path>
                <path d="M77.386658,64.8103628 L77.3941163,64.8103628 C77.3923981,64.8113586 77.3904938,64.8119911 77.3885213,64.8122211 L77.386658,64.8103628 Z" id="Path" fill="#000000" fill-rule="nonzero" opacity="0.2"></path>
                <path d="M77.5115134,64.7898762 C77.6736229,64.7637971 77.9941102,64.7190698 78.4599395,64.683659 L77.4220587,64.8066436 C77.436962,64.8029153 77.4555936,64.7991887 77.4779535,64.7954637 C77.4891435,64.7935953 77.4984676,64.7917295 77.5115134,64.7898762 Z" id="Path" fill="#000000" fill-rule="nonzero" opacity="0.2"></path>
                <path d="M124.668608,89.6485166 L120.010289,91.3255113 C117.635626,88.1409735 115.080547,85.0950346 112.357601,82.202653 C109.385647,79.032764 106.142983,76.128021 102.666443,73.5214182 C90.7392769,64.6817882 81.5139406,64.4563256 78.4673928,64.6836365 L85.4697821,63.8600533 C92.0878986,64.9987824 98.4523566,67.2994252 104.268899,70.6556132 C108.338165,73.0014041 112.128182,75.8012531 115.566256,79.0014565 C121.663063,84.6604018 124.668608,89.6485166 124.668608,89.6485166 Z" id="Path" fill="#000000" fill-rule="nonzero" opacity="0.2"></path>
                <path d="M82.5573964,92.8161857 C82.5573964,92.8161857 76.4084161,72.3195846 81.6257327,66.7296025 C81.6257327,66.7296025 89.8243732,63.9346114 95.9733535,79.7728941 L82.5573964,92.8161857 Z" id="Path" fill="#000000" fill-rule="nonzero" opacity="0.2"></path>
                <path d="M113.693502,73.6723953 C113.693502,73.6723953 130.00001,59.8153231 137.21379,62.3510011 C137.21379,62.3510011 143.063836,68.7390182 131.024132,80.7268025 L113.693502,73.6723953 Z" id="Path" fill="#2A46FF" fill-rule="nonzero"></path>
                <path d="M113.693502,73.6723953 C113.693502,73.6723953 130.00001,59.8153231 137.21379,62.3510011 C137.21379,62.3510011 143.063836,68.7390182 131.024132,80.7268025 L113.693502,73.6723953 Z" id="Path" fill="#000000" fill-rule="nonzero" opacity="0.2"></path>
                <path d="M164.543828,140.051557 C164.543828,158.112058 151.583582,172.380287 139.388909,172.380287 C127.194235,172.380287 120.38297,158.11204 120.38297,140.051557 C120.38297,121.991074 130.289159,108.055907 142.463399,107.350149 C161.748837,106.232148 164.543828,121.991064 164.543828,140.051557 Z" id="Path" fill="#2A46FF" fill-rule="nonzero"></path>
                <path d="M164.543828,140.051557 C164.543828,158.112058 151.583582,172.380287 139.388909,172.380287 C127.194235,172.380287 120.38297,158.11204 120.38297,140.051557 C120.38297,121.991074 130.289159,108.055907 142.463399,107.350149 C161.748837,106.232148 164.543828,121.991064 164.543828,140.051557 Z" id="Path" fill="#000000" fill-rule="nonzero" opacity="0.2"></path>
                <ellipse id="Oval" fill="#2A46FF" fill-rule="nonzero" cx="138.643565" cy="142.753374" rx="4.09932272" ry="5.21732415"></ellipse>
                <ellipse id="Oval" fill="#2A46FF" fill-rule="nonzero" cx="153.177524" cy="138.281399" rx="4.09931521" ry="5.21732415"></ellipse>
                <path d="M116.361925,75.6362973 C116.364701,76.8049467 116.09212,77.9578152 115.566253,79.0014691 C114.872128,80.3882413 113.745982,81.5117694 112.357599,82.2026655 C109.385644,79.0327765 106.142981,76.1280335 102.66644,73.5214308 C102.976153,72.4569195 103.524152,71.4768892 104.268897,70.6556333 C105.567383,69.2080117 107.418584,68.3785593 109.363229,68.3730572 C113.227782,68.3730572 116.361925,71.6245485 116.361925,75.6362973 Z" id="Path" fill="#FAD46F" fill-rule="nonzero"></path>
            </g>
        </g>
    </g>
</svg>