<?xml version="1.0" encoding="UTF-8"?>
<svg width="246px" height="203px" viewBox="0 0 246 203" version="1.1" xmlns="http://www.w3.org/2000/svg" xmlns:xlink="http://www.w3.org/1999/xlink">
    <!-- Generator: Sketch 56.3 (81716) - https://sketch.com -->
    <title>undraw_investing_7u74</title>
    <desc>Created with Sketch.</desc>
    <g id="Page-1" stroke="none" stroke-width="1" fill="none" fill-rule="evenodd">
        <g id="Onboarding-3" transform="translate(-65.000000, -170.000000)">
            <g id="undraw_investing_7u74" transform="translate(65.000000, 171.000000)">
                <path d="M46.183175,156.364993 C46.183175,156.364993 137.316147,80.3066486 189.803256,156.364993" id="Path" fill="#F2F2F2" fill-rule="nonzero"></path>
                <ellipse id="Oval" fill="#F2F2F2" fill-rule="nonzero" cx="195.728144" cy="195.35346" rx="42.2089552" ry="6.578019"></ellipse>
                <ellipse id="Oval" stroke="#3F3D56" stroke-width="0.653416554" cx="202.580247" cy="192.886703" rx="42.2089552" ry="6.578019"></ellipse>
                <path d="M220.529578,124.831628 C222.228376,125.449205 224.131956,124.9264 225.277019,123.527777 C226.422083,122.129154 226.558829,120.159829 225.618059,118.61637 C224.677288,117.07291 222.864234,116.292029 221.096384,116.668888 L221.202918,118.859555 L220.166471,116.982133 C219.14926,117.460093 218.36342,118.322353 217.981642,119.379429 C217.846057,119.749709 217.763633,120.137336 217.736828,120.530747 C217.602397,122.427288 218.742381,124.182883 220.529578,124.831628 L220.529578,124.831628 Z" id="Path" fill="#57B894" fill-rule="nonzero"></path>
                <path d="M225.657939,150.239632 C225.292075,148.376567 226.877446,146.724901 228.443431,145.651324 C230.009416,144.577748 231.83918,143.522913 232.373496,141.700996 C233.141403,139.082583 230.854042,136.684607 229.073728,134.616695 C227.752901,133.082069 226.618621,131.3963 225.694625,129.594665 C225.292915,128.886993 225.019304,128.113954 224.886389,127.311144 C224.746017,126.150502 225.118895,124.995553 225.494557,123.888453 C226.746007,120.200377 228.084023,116.543199 229.508607,112.91692" id="Path" stroke="#3F3D56" stroke-width="0.653416554"></path>
                <path d="M220.70486,124.267624 C222.403659,124.885202 224.30724,124.362399 225.452305,122.963775 C226.59737,121.565152 226.734117,119.595826 225.793345,118.052365 C224.852573,116.508905 223.039517,115.728025 221.271666,116.104886 L221.378197,118.29555 L220.341753,116.418131 C219.324542,116.896089 218.538702,117.758348 218.156925,118.815424 C218.02134,119.185705 217.938916,119.573331 217.91211,119.966742 C217.777678,121.863284 218.917663,123.618879 220.70486,124.267624 L220.70486,124.267624 Z" id="Path" stroke="#3F3D56" stroke-width="0.653416554"></path>
                <path d="M225.137727,112.160393 C225.631788,110.797189 226.786572,109.779804 228.201165,109.461451 L228.551601,111.544055 L229.201309,109.35677 C231.052263,109.384223 232.673165,110.60506 233.210583,112.37649 C233.748002,114.14792 233.078653,116.063576 231.55496,117.114834 C230.031267,118.166092 228.002766,118.111792 226.537496,116.980525 C225.072225,115.849257 224.50632,113.900535 225.137738,112.160393 L225.137727,112.160393 Z" id="Path" fill="#57B894" fill-rule="nonzero"></path>
                <path d="M225.371436,111.408388 C225.865498,110.045185 227.020282,109.027801 228.434874,108.709446 L228.78531,110.79205 L229.435018,108.604766 C231.285972,108.632219 232.906873,109.853055 233.444292,111.624486 C233.981711,113.395916 233.312362,115.311572 231.788669,116.362829 C230.264976,117.414087 228.236475,117.359788 226.771205,116.22852 C225.305934,115.097252 224.740029,113.148531 225.371447,111.408388 L225.371436,111.408388 Z" id="Path" stroke="#3F3D56" stroke-width="0.653416554"></path>
                <path d="M228.326602,134.658901 C230.360509,135.396692 232.624274,134.490994 233.587997,132.553895 C234.55172,130.616797 233.90863,128.264913 232.093341,127.087697 L231.594102,128.768559 L231.2401,126.6614 C231.236601,126.65975 231.232979,126.658375 231.229266,126.657289 C229.799915,126.138779 228.202519,126.422206 227.038802,127.400804 C225.875084,128.379403 225.32184,129.904502 225.587473,131.40161 C225.853105,132.898719 226.897258,134.140391 228.326608,134.658901 L228.326602,134.658901 Z" id="Path" fill="#57B894" fill-rule="nonzero"></path>
                <path d="M228.529104,133.897199 C230.56301,134.634991 232.826776,133.729292 233.790499,131.792194 C234.754221,129.855095 234.111131,127.503211 232.295842,126.325995 L231.796609,128.006849 L231.442605,125.89969 C231.439107,125.89804 231.435485,125.896665 231.431773,125.895579 C230.002422,125.377069 228.405027,125.660496 227.241309,126.639094 C226.077591,127.617693 225.524347,129.142792 225.78998,130.6399 C226.055612,132.137009 227.099765,133.378681 228.529115,133.897191 L228.529104,133.897199 Z" id="Path" stroke="#3F3D56" stroke-width="0.653416554"></path>
                <path d="M223.895679,141.727023 C224.243831,143.708069 225.931934,145.174517 227.9422,145.242216 C229.952466,145.309916 231.735404,143.960363 232.216047,142.007228 C232.69669,140.054093 231.743658,138.031251 229.931552,137.158311 C228.119446,136.285371 225.943591,136.800944 224.715851,138.394182 L226.612127,141.248322 L224.0211,139.733434 C223.820201,140.378323 223.777187,141.062041 223.895679,141.727023 Z" id="Path" fill="#57B894" fill-rule="nonzero"></path>
                <path d="M224.070961,141.163021 C224.419116,143.144065 226.10722,144.610509 228.117484,144.678206 C230.127748,144.745903 231.910683,143.396349 232.391324,141.443216 C232.871965,139.490082 231.918932,137.467243 230.106827,136.594304 C228.294722,135.721366 226.118869,136.23694 224.891131,137.830178 L226.787409,140.684317 L224.196382,139.169432 C223.995484,139.814321 223.952469,140.498039 224.070961,141.163021 L224.070961,141.163021 Z" id="Path" stroke="#3F3D56" stroke-width="0.653416554"></path>
                <path d="M219.74877,152.763202 C219.74877,152.763202 223.504545,151.29134 224.636435,150.485332 C225.768326,149.679325 230.413756,148.716909 230.694549,150.009566 C230.975343,151.302224 236.338764,156.438662 232.098529,156.472865 C227.858294,156.507067 222.246085,157.168569 221.11637,156.480413 C219.986656,155.792256 219.74877,152.763202 219.74877,152.763202 Z" id="Path" fill="#656380" fill-rule="nonzero"></path>
                <path d="M232.174201,156.022884 C227.933955,156.057095 222.321759,156.718595 221.192042,156.030438 C220.331692,155.50637 219.988865,153.625898 219.874155,152.758312 C219.794714,152.761727 219.748772,152.763199 219.748772,152.763199 C219.748772,152.763199 219.986656,155.792253 221.116373,156.48041 C222.24609,157.168567 227.858294,156.50707 232.098532,156.472859 C233.322523,156.462992 233.745309,156.027508 233.722096,155.382528 C233.552055,155.77221 233.085235,156.015536 232.174201,156.022884 Z" id="Path" fill="#000000" fill-rule="nonzero" opacity="0.2"></path>
                <rect id="Rectangle" fill="#2A46FF" fill-rule="nonzero" x="43.5793758" y="113.196744" width="16.4450475" height="43.3052917" rx="7.74332594"></rect>
                <rect id="Rectangle" fill="#2A46FF" fill-rule="nonzero" x="74.8249661" y="87.1587517" width="16.4450475" height="69.3432836" rx="7.74332594"></rect>
                <rect id="Rectangle" fill="#2A46FF" fill-rule="nonzero" x="106.070556" y="69.0691995" width="16.4450475" height="87.4328358" rx="7.74332594"></rect>
                <rect id="Rectangle" fill="#2A46FF" fill-rule="nonzero" x="137.316147" y="51.8018996" width="16.4450475" height="104.700136" rx="7.74332594"></rect>
                <rect id="Rectangle" fill="#2A46FF" fill-rule="nonzero" x="168.561737" y="21.6526459" width="16.4450475" height="134.849389" rx="7.74332594"></rect>
                <rect id="Rectangle" stroke="#3F3D56" stroke-width="0.653416554" x="45.7720488" y="111.004071" width="16.4450475" height="43.3052917" rx="7.74332594"></rect>
                <rect id="Rectangle" stroke="#3F3D56" stroke-width="0.653416554" x="77.0176391" y="84.9660787" width="16.4450475" height="69.3432836" rx="7.74332594"></rect>
                <rect id="Rectangle" stroke="#3F3D56" stroke-width="0.653416554" x="108.263229" y="66.8765265" width="16.4450475" height="87.4328358" rx="7.74332594"></rect>
                <rect id="Rectangle" stroke="#3F3D56" stroke-width="0.653416554" x="139.50882" y="49.6092266" width="16.4450475" height="104.700136" rx="7.74332594"></rect>
                <rect id="Rectangle" stroke="#3F3D56" stroke-width="0.653416554" x="170.75441" y="19.4599729" width="16.4450475" height="134.849389" rx="7.74332594"></rect>
                <path d="M235.986431,156.639077 L0,156.639077" id="Path" stroke="#3F3D56" stroke-width="0.653416554"></path>
                <path d="M221.104524,130.347832 C221.104524,130.347832 223.683891,139.633547 220.416694,141.009208 C217.149496,142.384869 218.181244,130.691747 218.181244,130.691747 L221.104524,130.347832 Z" id="Path" fill="#A0616A" fill-rule="nonzero"></path>
                <path d="M197.718282,189.845191 C197.718282,189.845191 195.310876,189.673234 194.451087,190.189107 C193.930168,190.49374 193.302439,190.556513 192.731511,190.361064 C192.731511,190.361064 188.94844,190.017149 190.324104,191.908683 C191.699768,193.800217 193.075415,194.488042 193.075415,195.34783 C193.075415,196.207618 198.750017,196.207618 198.921975,195.34783 C199.093933,194.488042 199.26589,190.017143 198.921975,189.845186 C198.57806,189.673228 197.718282,189.845191 197.718282,189.845191 Z" id="Path" fill="#575A89" fill-rule="nonzero"></path>
                <path d="M204.080715,189.845191 C204.080715,189.845191 206.488125,189.673234 207.347913,190.189107 C207.868832,190.49374 208.496562,190.556513 209.067489,190.361064 C209.067489,190.361064 212.850557,190.017149 211.474896,191.908683 C210.099235,193.800217 208.723574,194.488048 208.723574,195.347836 C208.723574,196.207624 203.048969,196.207624 202.877012,195.347836 C202.705054,194.488048 202.533096,190.017149 202.877012,189.845191 C203.220927,189.673234 204.080715,189.845191 204.080715,189.845191 Z" id="Path" fill="#575A89" fill-rule="nonzero"></path>
                <path d="M190.668019,128.456298 C190.668019,128.456298 189.464313,155.62561 190.152146,157.001271 C190.83998,158.376932 193.247378,181.591216 192.903469,182.96688 C192.559559,184.342544 190.839977,190.017146 192.903469,190.876932 C194.96696,191.736717 199.437859,190.876932 199.437859,190.876932 C199.437859,190.876932 200.641562,183.998626 200.125689,180.387513 C199.609816,176.7764 199.437859,161.644128 199.437859,161.644128 L202.877012,145.824022 L204.080715,160.784339 C204.080715,160.784339 204.42463,181.247301 202.017223,185.374287 C199.609816,189.501273 202.877012,191.220847 202.877012,191.220847 C202.877012,191.220847 209.411405,192.080635 210.099235,191.908678 C210.787066,191.73672 209.583362,185.030372 210.099235,182.107089 C210.615108,179.183807 211.818812,162.847831 212.850557,158.892805 C213.882303,154.93778 219.728863,132.927196 215.429922,128.456311 C211.130981,123.985427 190.668019,128.456298 190.668019,128.456298 Z" id="Path" fill="#3F3D56" fill-rule="nonzero"></path>
                <circle id="Oval" fill="#A0616A" fill-rule="nonzero" cx="203.220927" cy="67.5832825" r="6.01851737"></circle>
                <path d="M198.750028,70.3346047 C198.750028,70.3346047 199.781774,78.5885742 199.265901,78.7605318 C198.750028,78.9324894 208.379659,78.7605318 208.379659,78.7605318 C208.379659,78.7605318 206.488125,73.7737603 208.379659,69.8187318 L198.750028,70.3346047 Z" id="Path" fill="#A0616A" fill-rule="nonzero"></path>
                <path d="M198.750028,77.0409554 C198.750028,77.0409554 202.941095,72.9139721 207.895826,77.0409554 L208.216617,78.2711327 L205.628337,78.2446589 L198.750028,78.2446589 L198.750028,77.0409554 Z" id="Path" fill="#F2F2F2" fill-rule="nonzero"></path>
                <path d="M219.21299,129.831959 C218.81576,129.911054 217.842493,130.072692 216.573423,130.265286 C212.348455,130.903252 204.861411,131.869654 204.596588,131.20762 C204.252673,130.347832 203.048969,127.252586 202.189181,128.628255 C201.329393,130.003925 201.845266,131.20762 198.234147,131.379578 C195.776865,131.496507 192.205302,131.135391 190.227788,130.567932 C189.299232,130.301399 188.721438,129.990163 188.776474,129.660001 C188.948432,128.628255 190.839969,109.025082 190.839969,107.133548 C190.839969,105.242014 191.527799,96.1282479 191.527799,96.1282479 L186.585736,86.4040446 L186.19711,85.6388291 C186.19711,85.6388291 186.712983,83.7472951 188.260601,83.4033798 C189.80822,83.0594646 197.20241,78.76054 197.20241,78.76054 C197.20241,78.76054 198.750028,76.3531331 201.673308,76.5250907 C204.596588,76.6970484 205.284419,75.4933449 209.239447,78.76054 C209.239447,78.76054 214.054261,80.8240317 215.773837,81.855772 C217.493414,82.8875124 219.384948,82.8875179 219.556905,84.6070943 C219.591289,84.9527308 219.40384,85.6182071 219.082301,86.4590807 C217.904417,89.5405701 214.927819,94.9933395 214.461791,95.8428112 C214.420522,95.9167509 214.398168,95.9563094 214.398168,95.9563094 C214.398168,95.9563094 214.308748,99.0481044 214.403332,102.667807 L214.403332,102.676403 C214.496197,106.148226 214.757574,110.104976 215.429914,112.292282 C216.805583,116.763176 220.932566,129.48803 219.21299,129.831959 Z" id="Path" fill="#575A89" fill-rule="nonzero"></path>
                <path d="M211.034087,65.1126937 C210.913722,64.5648434 210.682218,64.0475194 210.353898,63.59273 C210.222971,62.3350723 209.803407,61.1246321 209.1279,60.0557374 C208.863333,59.5548608 208.487612,59.1211982 208.02953,58.7879805 C207.505017,58.4858875 206.906415,58.3366444 206.301474,58.3571422 C206.191774,58.3553141 205.994395,58.3885851 205.81675,58.3966788 C205.703104,58.3614864 205.58837,58.3300764 205.473358,58.3005383 C205.406208,58.1512091 205.273167,57.7160046 205.236078,57.7454769 L204.734625,58.1439047 C204.522618,58.1070761 204.309496,58.0783822 204.095598,58.0556277 C204.017721,57.8334899 203.939839,57.6113529 203.861949,57.3892169 C203.735629,57.5879172 203.624865,57.79609 203.53065,58.0118729 C203.31774,58.0014376 203.104685,57.9977832 202.891486,58.0009096 L202.465285,57.5915019 C202.413997,57.8248048 202.229425,58.0055951 201.99511,58.0520427 C201.798992,58.0721632 201.603672,58.0984452 201.409001,58.129762 C201.393153,58.1296579 201.377075,58.129762 201.36154,58.1293728 C200.311952,58.1031978 199.182571,58.0561375 198.304883,58.6323583 C197.894213,58.914351 197.559899,59.2938014 197.331884,59.7367227 C197.224443,59.8097607 197.116621,59.8822614 197.012212,59.9596984 C196.660203,60.1998229 196.355089,60.5023131 196.111933,60.8522341 C195.93518,61.1540444 195.801116,61.4788987 195.713568,61.8175228 C195.378614,62.8366886 195.223439,63.9063388 195.254979,64.978672 C195.290859,66.0583335 195.698221,67.0925371 196.408278,67.906647 C196.858428,68.3903013 197.430661,68.7474494 197.88142,69.2305363 C198.809557,70.2252315 198.983529,71.612511 199.777383,72.6649968 C200.617043,73.7781977 202.149549,74.5107286 203.495444,74.7206908 C205.129762,74.9669958 206.794849,74.5517207 208.122096,73.5667966 C208.437462,73.3471687 208.70537,73.0662826 208.909844,72.740888 C209.376977,71.932888 209.178995,70.9173323 209.352416,70.0002797 C209.677513,68.2813666 211.317967,66.838881 211.034087,65.1126937 Z" id="Path" fill="#3F3D56" fill-rule="nonzero"></path>
                <path d="M188.088652,130.863705 C188.088652,130.863705 190.668019,140.14942 187.400821,141.525081 C184.133624,142.900742 185.165372,131.20762 185.165372,131.20762 L188.088652,130.863705 Z" id="Path" fill="#A0616A" fill-rule="nonzero"></path>
                <path d="M191.182171,109.792005 C191.182171,109.792005 190.054117,126.533811 190.227796,130.567932 C189.29924,130.301399 188.721446,129.990163 188.776482,129.660001 C188.94844,128.628255 190.839977,109.025082 190.839977,107.133548 C190.839977,105.242014 191.527807,96.1282479 191.527807,96.1282479 L186.585745,86.4040446 C186.66484,85.9225528 186.712991,85.6388291 186.712991,85.6388291 L189.206378,90.8835385 L192.731511,91.8293069 L191.182171,109.792005 Z" id="Path" fill="#000000" fill-rule="nonzero" opacity="0.1"></path>
                <path d="M187.400821,84.6070915 L186.197118,85.6388374 C186.197118,85.6388374 184.649499,94.752595 184.821457,96.9880443 C184.993414,99.2234936 181.210346,133.099154 184.133626,133.099154 C187.056906,133.099154 190.324104,132.583281 189.808231,131.379578 C189.292358,130.175874 190.667013,109.792049 190.667013,109.792049 L192.215638,91.8293151 L187.400821,84.6070915 Z" id="Path" fill="#575A89" fill-rule="nonzero"></path>
                <path d="M219.082301,86.4590697 C217.904417,89.5405592 214.927819,94.9933285 214.461791,95.8428002 C214.475542,93.643467 214.484148,92.0872502 214.484148,92.0872502 L218.095259,84.6930717 L218.869067,84.0912186 C218.869067,84.0912186 218.951613,85.0008709 219.082301,86.4590697 Z" id="Path" fill="#000000" fill-rule="nonzero" opacity="0.1"></path>
                <path d="M219.21299,129.831959 C218.81576,129.911054 217.842493,130.072692 216.573423,130.265286 C215.914854,125.395452 214.154011,111.39122 214.265766,110.072297 C214.320805,109.422304 214.367235,106.210136 214.40334,102.676397 C214.496205,106.148221 214.757583,110.10497 215.429922,112.292277 C216.805583,116.763176 220.932566,129.48803 219.21299,129.831959 Z" id="Path" fill="#000000" fill-rule="nonzero" opacity="0.1"></path>
                <path d="M216.977541,83.4033881 L219.556905,84.0912186 C219.556905,84.0912186 221.276485,103.178519 221.448442,106.445717 C221.6204,109.712915 223.683891,129.831959 223.339976,130.691747 C222.996061,131.551535 217.665371,132.755239 217.493414,131.895451 C217.321456,131.035662 214.821658,111.634779 214.953832,110.071995 C215.086007,108.509212 214.226219,92.345188 214.226219,92.345188 L216.977541,83.4033881 Z" id="Path" fill="#575A89" fill-rule="nonzero"></path>
                <polyline id="Path" stroke="#3F3D56" stroke-width="0.653416554" points="53.8575305 94.421981 85.1031208 68.3839891 116.622795 50.568521 147.868385 33.3012212 179.113976 3.15196744"></polyline>
                <circle id="Oval" fill="#F2F2F2" fill-rule="nonzero" cx="53.0352782" cy="95.7924016" r="3.01492537"></circle>
                <circle id="Oval" fill="#F2F2F2" fill-rule="nonzero" cx="84.2808684" cy="69.7544098" r="3.01492537"></circle>
                <circle id="Oval" fill="#F2F2F2" fill-rule="nonzero" cx="115.800543" cy="51.9389417" r="3.01492537"></circle>
                <circle id="Oval" fill="#F2F2F2" fill-rule="nonzero" cx="147.046133" cy="34.6716418" r="3.01492537"></circle>
                <circle id="Oval" fill="#F2F2F2" fill-rule="nonzero" cx="178.291723" cy="4.52238806" r="3.01492537"></circle>
                <circle id="Oval" stroke="#3F3D56" stroke-width="0.653416554" cx="53.8575305" cy="94.421981" r="3.01492537"></circle>
                <circle id="Oval" stroke="#3F3D56" stroke-width="0.653416554" cx="85.1031208" cy="68.3839891" r="3.01492537"></circle>
                <circle id="Oval" stroke="#3F3D56" stroke-width="0.653416554" cx="116.622795" cy="50.568521" r="3.01492537"></circle>
                <circle id="Oval" stroke="#3F3D56" stroke-width="0.653416554" cx="147.868385" cy="33.3012212" r="3.01492537"></circle>
                <circle id="Oval" stroke="#3F3D56" stroke-width="0.653416554" cx="179.113976" cy="3.15196744" r="3.01492537"></circle>
            </g>
        </g>
    </g>
</svg>