<?xml version="1.0" encoding="UTF-8"?>
<svg width="21px" height="22px" viewBox="0 0 21 22" version="1.1" xmlns="http://www.w3.org/2000/svg" xmlns:xlink="http://www.w3.org/1999/xlink">
    <!-- Generator: Sketch 56.3 (81716) - https://sketch.com -->
    <title>logout</title>
    <desc>Created with Sketch.</desc>
    <g id="Page-1" stroke="none" stroke-width="1" fill="none" fill-rule="evenodd">
        <g id="Menu" transform="translate(-206.000000, -710.000000)" fill="#2B47FC" fill-rule="nonzero">
            <g id="Sign-out-Button" transform="translate(30.000000, 684.000000)">
                <g id="logout" transform="translate(176.000000, 26.000000)">
                    <path d="M9.81781931,20.705992 L4.08894398,20.705992 C2.53203238,20.705992 1.26878973,19.438088 1.26878973,17.8858378 L1.26878973,4.07873549 C1.26878973,2.52182388 2.53669379,1.25858124 4.08894398,1.25858124 L9.91104755,1.25858124 C10.2606534,1.25858124 10.5403382,0.978896517 10.5403382,0.629290618 C10.5403382,0.279684719 10.2606534,0 9.91104755,0 L4.08894398,0 C1.83748199,0 0.0102084922,1.83193491 0.0102084922,4.07873549 L0.0102084922,17.8858378 C0.0102084922,20.1372998 1.8421434,21.9645733 4.08894398,21.9645733 L9.81781931,21.9645733 C10.1674252,21.9645733 10.4471099,21.6848885 10.4471099,21.3352827 C10.4471099,20.9856768 10.1627638,20.705992 9.81781931,20.705992 Z" id="Path"></path>
                    <path d="M20.1847996,10.5394525 L16.1853081,6.53996101 C15.9382532,6.29290618 15.5420332,6.29290618 15.2949784,6.53996101 C15.0479236,6.78701585 15.0479236,7.18323587 15.2949784,7.4302907 L18.2223451,10.3576574 L5.45473769,10.3576574 C5.10513179,10.3576574 4.82544707,10.6373421 4.82544707,10.986948 C4.82544707,11.3365539 5.10513179,11.6162387 5.45473769,11.6162387 L18.2223451,11.6162387 L15.2949784,14.5436054 C15.0479236,14.7906602 15.0479236,15.1868802 15.2949784,15.4339351 C15.4161751,15.5551318 15.5793245,15.6203916 15.7378125,15.6203916 C15.8963005,15.6203916 16.05945,15.5597932 16.1806467,15.4339351 L20.1801381,11.4344436 C20.4318544,11.1827273 20.4318544,10.7818459 20.1847996,10.5394525 Z" id="Path"></path>
                </g>
            </g>
        </g>
    </g>
</svg>