<?xml version="1.0" encoding="UTF-8"?>
<svg width="18px" height="21px" viewBox="0 0 18 21" version="1.1" xmlns="http://www.w3.org/2000/svg" xmlns:xlink="http://www.w3.org/1999/xlink">
    <!-- Generator: Sketch 56.3 (81716) - https://sketch.com -->
    <title>money-bag</title>
    <desc>Created with Sketch.</desc>
    <g id="Page-1" stroke="none" stroke-width="1" fill="none" fill-rule="evenodd">
        <g id="Menu" transform="translate(-33.000000, -478.000000)" fill="#2B47FC" fill-rule="nonzero">
            <g id="Savings" transform="translate(33.000000, 478.000000)">
                <g id="money-bag">
                    <path d="M10.1489294,13.9491388 C10.0705129,13.8632612 9.97129412,13.7990259 9.86876471,13.7455129 C9.64552235,13.6290988 9.40137882,13.5584894 9.15896471,13.4947482 L9.15896471,15.3731859 C9.55243059,15.3287153 10.0041529,15.1859153 10.2107435,14.8185882 L10.2107435,14.8185882 C10.3093694,14.6431271 10.3289859,14.4275435 10.2888141,14.2322188 C10.2670235,14.1263788 10.2220094,14.0292353 10.1489294,13.9491388 Z" id="Path"></path>
                    <path d="M10.2329,14.8493359 C10.2345,14.8466359 10.2354,14.8449359 10.2371,14.8420359 L10.2371,14.8420359 C10.2357,14.8444359 10.2343,14.8468359 10.2329,14.8493359 Z" id="Path"></path>
                    <path d="M7.31338588,10.9462871 C7.24574118,11.0450612 7.20329647,11.1572753 7.19158588,11.2765553 C7.17987529,11.3960824 7.18644706,11.5290494 7.23185647,11.64156 C7.27509176,11.7487835 7.36566353,11.8279412 7.45915059,11.8916824 C7.56405176,11.9630329 7.67942824,12.0187694 7.79692941,12.0660071 C7.89550588,12.1056847 8.00638588,12.1436329 8.12591294,12.1802965 L8.12591294,10.4805318 C7.82395765,10.5449647 7.49403529,10.6825271 7.31338588,10.9462871 Z" id="Path"></path>
                    <path d="M10.2478159,14.8229153 C10.2428159,14.8318153 10.2374159,14.8411153 10.2321159,14.8509153 L10.2321159,14.8509153 C10.2383159,14.8395153 10.2432159,14.8311153 10.2478159,14.8229153 Z" id="Path"></path>
                    <path d="M10.2534611,14.8128815 C10.2547611,14.8104815 10.2549611,14.8102815 10.2534611,14.8128815 L10.2534611,14.8128815 Z" id="Path"></path>
                    <path d="M9.82073647,4.56905647 C11.4181694,3.22713176 12.4855624,0.203971765 11.8286824,0.0717458824 C10.9558729,-0.104011765 9.06053647,0.666663529 8.14444235,0.802447059 C6.84511059,0.959329412 5.42995765,-0.606529412 4.63561412,0.26628 C3.98975294,0.975931765 5.09865176,3.55670824 6.83354824,4.68102353 C1.65756706,7.22493882 -5.61762353,19.9956071 7.07433176,20.9222259 C24.6358165,22.2044118 15.8421529,7.04804471 9.82073647,4.56905647 Z M11.3289318,14.6406071 C11.2749247,15.13848 11.0110659,15.58872 10.6166612,15.8943812 C10.2002188,16.2171388 9.67788706,16.3672518 9.15891529,16.4093012 L9.15891529,16.9594024 C9.15891529,17.1066 9.09463059,17.2489553 8.98444235,17.3463953 C8.83299529,17.4804 8.61044471,17.5134565 8.42663294,17.4287647 C8.24514353,17.3452588 8.12591294,17.1591247 8.12591294,16.9594024 L8.12591294,16.35816 C8.03692235,16.3412612 7.94857412,16.3211506 7.86126353,16.2971859 C7.37623765,16.1639224 6.92634353,15.9041647 6.59770588,15.51984 C6.43400471,15.3282706 6.30054353,15.1109082 6.20824235,14.8762518 C6.18412941,14.8149318 6.16263529,14.7524753 6.14380941,14.6893271 C6.12676235,14.6321576 6.10917176,14.5740494 6.10309412,14.5144588 C6.09286588,14.4144988 6.11268,14.3125129 6.15927529,14.2234729 C6.25503529,14.0403035 6.45683294,13.9296706 6.66288,13.9480518 C6.86566588,13.9660376 7.0434,14.1067624 7.10724,14.3000612 C7.12690588,14.3596024 7.14024706,14.4206259 7.16233412,14.4795247 C7.18422353,14.5380282 7.21065882,14.5949012 7.24173882,14.6490565 C7.30310824,14.7556871 7.37999294,14.8540165 7.46853882,14.9393506 C7.65106588,15.1152071 7.88354824,15.2294965 8.12591294,15.2974871 L8.12591294,13.2537176 C7.65200471,13.1310282 7.16282824,12.9725647 6.77148706,12.6682871 C6.58130118,12.5203482 6.41992235,12.3365365 6.31423059,12.1189765 C6.20270824,11.88936 6.15650824,11.6335553 6.15463059,11.37948 C6.15270353,11.1215012 6.20172,10.8657953 6.30933882,10.6307435 C6.41013882,10.4106635 6.55526118,10.2130659 6.73319294,10.0492659 C7.11366353,9.69908471 7.61904706,9.50376 8.12596235,9.43201412 L8.12596235,9.38704941 L8.12596235,8.86096235 C8.12596235,8.71381412 8.19024706,8.57140941 8.30043529,8.47396941 C8.45193176,8.34001412 8.67438353,8.30690824 8.85824471,8.3916 C9.03968471,8.47515529 9.15896471,8.66124 9.15896471,8.86096235 L9.15896471,9.38704941 L9.15896471,9.42890118 C9.22651059,9.4374 9.29385882,9.44757882 9.36086118,9.45973412 C9.85863529,9.54981176 10.3454894,9.75536471 10.7095059,10.1142424 C10.8819529,10.2842188 11.0231224,10.4867576 11.1223906,10.7076282 C11.1501106,10.7692447 11.1743718,10.8322941 11.1953718,10.8965788 C11.2149388,10.9565153 11.2346047,11.0182306 11.2439435,11.0807859 C11.2588659,11.1806471 11.2436471,11.2838188 11.2009059,11.3751812 C11.1133482,11.5623529 10.9169859,11.6815341 10.7103953,11.6726894 C10.5074118,11.6638447 10.3235012,11.5316682 10.2508165,11.3419271 C10.2291741,11.2854988 10.2183529,11.22576 10.1962659,11.16948 C10.1739812,11.1125082 10.1451247,11.0581553 10.1118706,11.0068165 C10.04724,10.9070047 9.96348706,10.8214235 9.86787529,10.7509129 C9.66084,10.5980329 9.40972941,10.5183812 9.15881647,10.4738612 L9.15881647,12.4296776 C9.45701647,12.5010776 9.75546353,12.5789506 10.0411624,12.6916094 C10.4729718,12.8618824 10.8821506,13.1229741 11.1178447,13.5346729 C11.08128,13.4705365 11.0457035,13.4080306 11.11908,13.5367976 C11.1911224,13.6632918 11.1567318,13.6030094 11.1205624,13.5396141 C11.30808,13.87008 11.3696965,14.2652259 11.3289318,14.6406071 Z" id="Shape"></path>
                </g>
            </g>
        </g>
    </g>
</svg>