<?xml version="1.0" encoding="UTF-8"?>
<svg width="28px" height="20px" viewBox="0 0 28 20" version="1.1" xmlns="http://www.w3.org/2000/svg" xmlns:xlink="http://www.w3.org/1999/xlink">
    <!-- Generator: Sketch 56.3 (81716) - https://sketch.com -->
    <title>Path</title>
    <desc>Created with Sketch.</desc>
    <g id="Page-1" stroke="none" stroke-width="1" fill="none" fill-rule="evenodd">
        <g id="Sign-Up" transform="translate(-170.000000, -706.000000)" fill="#FFFFFF" fill-rule="nonzero">
            <g id="Next-Button" transform="translate(148.000000, 681.000000)">
                <path d="M31.1337445,25.3007994 C31.528477,24.8997335 32.1499139,24.8997335 32.5446463,25.3007994 C32.9260432,25.6883158 32.9260432,26.3332731 32.5446463,26.7198862 L25.3905651,33.9887539 L48.9980552,33.9887539 C49.5483692,33.9887539 50,34.4331783 50,34.9923219 C50,35.5514656 49.5483692,36.0103428 48.9980552,36.0103428 L25.3905651,36.0103428 L32.5446463,43.265661 C32.9260432,43.6667269 32.9260432,44.3125875 32.5446463,44.6992006 C32.1499139,45.1002665 31.528477,45.1002665 31.1337445,44.6992006 L22.2860477,35.7095434 C21.9046508,35.322027 21.9046508,34.6770697 22.2860477,34.2904566 L31.1337445,25.3007994 Z" id="Path" transform="translate(36.000000, 35.000000) rotate(-180.000000) translate(-36.000000, -35.000000) "></path>
            </g>
        </g>
    </g>
</svg>