<?xml version="1.0" encoding="UTF-8"?>
<svg width="26px" height="25px" viewBox="0 0 26 25" version="1.1" xmlns="http://www.w3.org/2000/svg" xmlns:xlink="http://www.w3.org/1999/xlink">
    <!-- Generator: Sketch 56.3 (81716) - https://sketch.com -->
    <title>Brightness</title>
    <desc>Created with Sketch.</desc>
    <g id="Page-1" stroke="none" stroke-width="1" fill="none" fill-rule="evenodd">
        <g id="Camera-Settings" transform="translate(-103.000000, -744.000000)" fill="#FFFFFF" fill-rule="nonzero">
            <g id="Settings" transform="translate(188.000000, 756.500000) rotate(-90.000000) translate(-188.000000, -756.500000) translate(165.500000, 587.500000)">
                <g id="Items" transform="translate(10.000000, 31.000000)">
                    <g id="Brightness" transform="translate(0.157895, 53.928295)">
                        <path d="M16.4352267,7.82626482 C15.3438249,6.73571973 13.8030224,6.0300729 12.1338197,6.0300729 C10.464617,6.0300729 8.92381449,6.70364487 7.83241271,7.82626482 C6.74101094,8.91680992 6.0348098,10.456403 6.0348098,12.1242955 C6.0348098,13.792188 6.74101094,15.3317811 7.83241271,16.4223262 C8.92381449,17.5128713 10.464617,18.2185181 12.1338197,18.2185181 C13.8030224,18.2185181 15.3438249,17.5449461 16.4352267,16.4223262 C17.5266285,15.3317811 18.2328296,13.792188 18.2328296,12.1242955 C18.2328296,10.456403 17.5587285,8.91680992 16.4352267,7.82626482 Z M15.2796248,15.2676314 C14.4771235,16.0695028 13.3536217,16.5506256 12.1338197,16.5506256 C10.9140177,16.5506256 9.79051589,16.0695028 8.98801459,15.2676314 C8.18551329,14.46576 7.70401251,13.34314 7.70401251,12.1242955 C7.70401251,10.905451 8.18551329,9.78283103 8.98801459,8.98095963 C9.79051589,8.17908824 10.9140177,7.6979654 12.1338197,7.6979654 C13.3536217,7.6979654 14.4771235,8.17908824 15.2796248,8.98095963 C16.0821261,9.78283103 16.5636269,10.905451 16.5636269,12.1242955 C16.5636269,13.34314 16.0821261,14.46576 15.2796248,15.2676314 Z" id="Shape"></path>
                        <path d="M23.433038,11.2903493 L20.961334,11.2903493 C20.5119333,11.2903493 20.1267327,11.6752475 20.1267327,12.1242955 C20.1267327,12.5733435 20.5119333,12.9582418 20.961334,12.9582418 L23.433038,12.9582418 C23.8824388,12.9582418 24.2676394,12.5733435 24.2676394,12.1242955 C24.2676394,11.6752475 23.8824388,11.2903493 23.433038,11.2903493 Z" id="Path"></path>
                        <path d="M12.1338197,20.1109346 C11.684419,20.1109346 11.2992183,20.4958329 11.2992183,20.9448809 L11.2992183,23.4146448 C11.2992183,23.8636927 11.684419,24.248591 12.1338197,24.248591 C12.5832204,24.248591 12.9684211,23.8636927 12.9684211,23.4146448 L12.9684211,20.9448809 C12.9684211,20.4958329 12.5832204,20.1109346 12.1338197,20.1109346 Z" id="Path"></path>
                        <path d="M20.7045336,19.5335872 L18.9390307,17.7694701 C18.6501303,17.4487216 18.1044294,17.4487216 17.7834289,17.7694701 C17.4624283,18.0902187 17.4624283,18.6034164 17.7834289,18.9241649 L19.5489317,20.688282 C19.8699323,21.0090306 20.3835331,21.0090306 20.7045336,20.688282 C21.0255341,20.3675335 21.0255341,19.8543358 20.7045336,19.5335872 Z" id="Path"></path>
                        <path d="M12.1338197,0 C11.684419,0 11.2992183,0.38489827 11.2992183,0.833946252 L11.2992183,3.30371015 C11.2992183,3.75275813 11.684419,4.1376564 12.1338197,4.1376564 C12.5832204,4.1376564 12.9684211,3.75275813 12.9684211,3.30371015 L12.9684211,0.833946252 C12.9684211,0.38489827 12.5832204,0 12.1338197,0 Z" id="Path"></path>
                        <path d="M20.7366337,3.560309 C20.4156331,3.23956044 19.9020323,3.23956044 19.5810318,3.560309 L17.8155289,5.32442607 C17.4945284,5.64517463 17.4945284,6.15837232 17.8155289,6.47912088 C18.1044294,6.79986944 18.6501303,6.79986944 18.9711308,6.47912088 L20.7366337,4.71500381 C21.0576342,4.39425525 21.0576342,3.88105756 20.7366337,3.560309 Z" id="Path"></path>
                        <path d="M3.30630537,11.2903493 L0.834601355,11.2903493 C0.385200625,11.2903493 0,11.6752475 0,12.1242955 C0,12.5733435 0.353100573,12.9582418 0.834601355,12.9582418 L3.30630537,12.9582418 C3.7557061,12.9582418 4.14090672,12.5733435 4.14090672,12.1242955 C4.14090672,11.6752475 3.7557061,11.2903493 3.30630537,11.2903493 Z" id="Path"></path>
                        <path d="M6.45211047,17.7694701 C6.16321001,17.4487216 5.61750912,17.4487216 5.2965086,17.7694701 L3.53100573,19.5335872 C3.21000521,19.8543358 3.21000521,20.3675335 3.53100573,20.688282 C3.85200625,21.0090306 4.36560709,21.0090306 4.68660761,20.688282 L6.45211047,18.9241649 C6.773111,18.6034164 6.773111,18.0902187 6.45211047,17.7694701 Z" id="Path"></path>
                        <path d="M6.45211047,5.32442607 L4.68660761,3.560309 C4.36560709,3.23956044 3.85200625,3.23956044 3.53100573,3.560309 C3.21000521,3.88105756 3.21000521,4.39425525 3.53100573,4.71500381 L5.2965086,6.47912088 C5.61750912,6.79986944 6.13110995,6.79986944 6.45211047,6.47912088 C6.773111,6.15837232 6.773111,5.64517463 6.45211047,5.32442607 Z" id="Path"></path>
                    </g>
                </g>
            </g>
        </g>
    </g>
</svg>