<?xml version="1.0" encoding="UTF-8"?>
<svg width="26px" height="25px" viewBox="0 0 26 25" version="1.1" xmlns="http://www.w3.org/2000/svg" xmlns:xlink="http://www.w3.org/1999/xlink">
    <!-- Generator: Sketch 56.3 (81716) - https://sketch.com -->
    <title>crop</title>
    <desc>Created with Sketch.</desc>
    <g id="Page-1" stroke="none" stroke-width="1" fill="none" fill-rule="evenodd">
        <g id="Camera-Settings" transform="translate(-234.000000, -744.000000)" fill="#FFFFFF" fill-rule="nonzero">
            <g id="Settings" transform="translate(188.000000, 756.500000) rotate(-90.000000) translate(-188.000000, -756.500000) translate(165.500000, 587.500000)">
                <g id="Items" transform="translate(10.000000, 31.000000)">
                    <g id="crop" transform="translate(12.157895, 197.086190) rotate(-270.000000) translate(-12.157895, -197.086190) translate(0.000000, 184.937838)">
                        <path d="M18.4556931,24.2525724 C18.0370619,24.2525724 17.6973059,23.9137437 17.6973059,23.4962548 L17.6973059,7.83146944 C17.6973059,7.13350055 17.1299968,6.56589307 16.4332655,6.56589307 L0.760053562,6.56589307 C0.341422361,6.56589307 0.00166637575,6.22706425 0.00166637575,5.80957546 C0.00166637575,5.39208663 0.341422361,5.05325785 0.760053562,5.05325785 L16.4332655,5.05325785 C17.9672592,5.05325785 19.2140803,6.29852298 19.2140803,7.83146944 L19.2140803,23.4962548 C19.2140803,23.9137437 18.8743243,24.2525724 18.4556931,24.2525724 Z" id="Path"></path>
                        <path d="M23.5116694,19.1983914 L7.83827238,19.1983914 C6.30427871,19.1983914 5.05745759,17.9529416 5.05745759,16.421103 L5.05745759,0.756317612 C5.05745759,0.338828825 5.39721359,0 5.81584479,0 C6.23447599,0 6.57423199,0.338828825 6.57423199,0.756317612 L6.57423199,16.421103 C6.57423199,17.117964 7.14154116,17.6857561 7.83827238,17.6857561 L23.5116694,17.6857561 C23.9303007,17.6857561 24.2700566,18.024585 24.2700566,18.4420738 C24.2700566,18.8595625 23.9303007,19.1983914 23.5116694,19.1983914 Z" id="Path"></path>
                    </g>
                </g>
            </g>
        </g>
    </g>
</svg>