<?xml version="1.0" encoding="UTF-8"?>
<svg width="22px" height="22px" viewBox="0 0 22 22" version="1.1" xmlns="http://www.w3.org/2000/svg" xmlns:xlink="http://www.w3.org/1999/xlink">
    <!-- Generator: Sketch 56.3 (81716) - https://sketch.com -->
    <title>Dismiss Icon</title>
    <desc>Created with Sketch.</desc>
    <g id="Page-1" stroke="none" stroke-width="1" fill="none" fill-rule="evenodd">
        <g id="Explore-Search" transform="translate(-307.000000, -80.000000)">
            <g id="Search-Field" transform="translate(30.000000, 76.000000)">
                <g id="Dismiss-Icon" transform="translate(273.000000, 0.000000)">
                    <circle id="Oval-Copy-26" stroke="#4135F3" transform="translate(15.000000, 15.000000) rotate(-45.000000) translate(-15.000000, -15.000000) " cx="15" cy="15" r="10"></circle>
                    <rect id="Rectangle" fill="#4135F3" transform="translate(15.213203, 15.213203) rotate(-45.000000) translate(-15.213203, -15.213203) " x="14.4989177" y="10.2132034" width="1.42857143" height="10" rx="0.714285714"></rect>
                    <path d="M15.2066297,10.2132034 L15.2197771,10.2132034 C15.6106357,10.2132034 15.9274891,10.5300569 15.9274891,10.9209155 L15.9274891,19.5054914 C15.9274891,19.89635 15.6106357,20.2132034 15.2197771,20.2132034 L15.2066297,20.2132034 C14.8157712,20.2132034 14.4989177,19.89635 14.4989177,19.5054914 L14.4989177,10.9209155 C14.4989177,10.5300569 14.8157712,10.2132034 15.2066297,10.2132034 Z" id="Rectangle" fill="#4135F3" transform="translate(15.213203, 15.213203) rotate(45.000000) translate(-15.213203, -15.213203) "></path>
                </g>
            </g>
        </g>
    </g>
</svg>