<?xml version="1.0" encoding="UTF-8"?>
<svg width="12px" height="21px" viewBox="0 0 12 21" version="1.1" xmlns="http://www.w3.org/2000/svg" xmlns:xlink="http://www.w3.org/1999/xlink">
    <!-- Generator: Sketch 56.3 (81716) - https://sketch.com -->
    <title>flash</title>
    <desc>Created with Sketch.</desc>
    <g id="Page-1" stroke="none" stroke-width="1" fill="none" fill-rule="evenodd">
        <g id="Camera-Settings" transform="translate(-50.000000, -746.000000)" fill="#FFFFFF" fill-rule="nonzero">
            <g id="Settings" transform="translate(188.000000, 756.500000) rotate(-90.000000) translate(-188.000000, -756.500000) translate(165.500000, 587.500000)">
                <g id="Items" transform="translate(10.000000, 31.000000)">
                    <g id="flash" transform="translate(12.167431, 6.000000) rotate(-270.000000) translate(-12.167431, -6.000000) translate(6.667431, -4.000000)">
                        <path d="M10.899599,6.85933594 C10.8468969,6.74199219 10.7333935,6.66667969 10.6083627,6.66667969 L6.79904759,6.66667969 L10.5585236,0.511679687 C10.6212086,0.409023437 10.625051,0.279023437 10.5685065,0.172695312 C10.5119243,0.066015625 10.4038832,0 10.2868764,0 L5.14350992,0 C5.02168115,0 4.910438,0.071328125 4.85581471,0.184335938 L0.0338969065,10.1843359 C-0.0159421346,10.2873437 -0.0104798058,10.41 0.0480236189,10.5083203 C0.106866085,10.6066406 0.210047591,10.6666406 0.321592112,10.6666406 L3.62716745,10.6666406 L0.0251948518,19.5373047 C-0.0362092578,19.6889844 0.0184517011,19.8649609 0.15376677,19.9509766 C0.205828413,19.9839844 0.263691427,19.9999609 0.321253071,19.9999609 C0.41350992,19.9999609 0.504485948,19.9589453 0.56750992,19.8816406 L10.8542805,7.21496094 C10.9349346,7.11566406 10.952301,6.97699219 10.899599,6.85933594 Z" id="Path"></path>
                    </g>
                </g>
            </g>
        </g>
    </g>
</svg>