<?xml version="1.0" encoding="UTF-8"?>
<svg width="22px" height="16px" viewBox="0 0 22 16" version="1.1" xmlns="http://www.w3.org/2000/svg" xmlns:xlink="http://www.w3.org/1999/xlink">
    <!-- Generator: Sketch 56.3 (81716) - https://sketch.com -->
    <title>Shape</title>
    <desc>Created with Sketch.</desc>
    <g id="Page-1" stroke="none" stroke-width="1" fill="none" fill-rule="evenodd">
        <g id="Profile" transform="translate(-274.000000, -156.000000)" fill="#FFFFFF" fill-rule="nonzero">
            <g id="Message-Button" transform="translate(265.000000, 148.000000)">
                <g id="paper-plane" transform="translate(9.000000, 8.000000)">
                    <path d="M21.5816393,0.312 C21.5030164,0.218782609 21.3811148,0.175304348 21.2595738,0.189217391 C21.2318033,0.190608696 21.2058361,0.195130435 21.1787869,0.202782609 L0.266163934,5.68834783 C0.11252459,5.72869565 0.00432786885,5.86156522 -0.000112845427,6.01495652 C-0.00396721311,6.16834783 0.0970163934,6.30643478 0.248131148,6.35443478 L7.90016393,8.77252174 L7.21563934,14.0532174 C7.19760656,14.1923478 7.26793443,14.3283478 7.39380328,14.397913 C7.44970492,14.4288696 7.5117377,14.4441739 7.57340984,14.4441739 C7.65095082,14.4441739 7.7284918,14.4201739 7.79268852,14.3725217 L10.5931803,12.3043478 L13.0481639,15.6869565 C13.1159672,15.7805217 13.2263279,15.8354783 13.343541,15.8354783 C13.3514754,15.8354783 13.3597705,15.8351304 13.3680656,15.8347826 C13.4942951,15.8264348 13.606459,15.7551304 13.6641639,15.6462609 L21.6213115,0.68973913 C21.6876721,0.567304348 21.6718033,0.419130435 21.5816393,0.312 Z M19.0768852,1.47513043 L8.24495082,8.14921739 L1.61718033,6.05495652 L19.0768852,1.47513043 Z M8.03829508,13.3151304 L8.53672131,9.4706087 L10.1795082,11.733913 L8.03829508,13.3151304 Z M13.2966557,14.8153043 L8.8064918,8.62886957 L20.383541,1.49565217 L13.2966557,14.8153043 Z" id="Shape"></path>
                </g>
            </g>
        </g>
    </g>
</svg>