<?xml version="1.0" encoding="UTF-8"?>
<svg width="22px" height="24px" viewBox="0 0 22 24" version="1.1" xmlns="http://www.w3.org/2000/svg" xmlns:xlink="http://www.w3.org/1999/xlink">
    <!-- Generator: Sketch 56.3 (81716) - https://sketch.com -->
    <title>Settings</title>
    <desc>Created with Sketch.</desc>
    <g id="Page-1" stroke="none" stroke-width="1" fill="none" fill-rule="evenodd">
        <g id="Camera-" transform="translate(-24.000000, -748.000000)" fill="#FFFFFF" fill-rule="nonzero">
            <g id="Settings" transform="translate(24.000000, 748.000000)">
                <path d="M4.84,16 L3.08,16 L3.08,0.444444444 C3.08,0.198666667 2.88288,0 2.64,0 C2.39712,0 2.2,0.198666667 2.2,0.444444444 L2.2,16 L0.44,16 C0.19712,16 0,16.1986667 0,16.4444444 L0,21.7777778 C0,22.0235556 0.19712,22.2222222 0.44,22.2222222 L2.2,22.2222222 L2.2,23.5555556 C2.2,23.8013333 2.39712,24 2.64,24 C2.88288,24 3.08,23.8013333 3.08,23.5555556 L3.08,22.2222222 L4.84,22.2222222 C5.08288,22.2222222 5.28,22.0235556 5.28,21.7777778 L5.28,16.4444444 C5.28,16.1986667 5.08288,16 4.84,16 Z M4.4,21.3333333 L0.88,21.3333333 L0.88,16.8888889 L4.4,16.8888889 L4.4,21.3333333 Z" id="Shape"></path>
                <path d="M13.2,8.88888889 L11.44,8.88888889 L11.44,0.444444444 C11.44,0.198666667 11.24288,0 11,0 C10.75712,0 10.56,0.198666667 10.56,0.444444444 L10.56,8.88888889 L8.8,8.88888889 C8.55712,8.88888889 8.36,9.08755556 8.36,9.33333333 L8.36,14.6666667 C8.36,14.9124444 8.55712,15.1111111 8.8,15.1111111 L10.56,15.1111111 L10.56,23.5555556 C10.56,23.8013333 10.75712,24 11,24 C11.24288,24 11.44,23.8013333 11.44,23.5555556 L11.44,15.1111111 L13.2,15.1111111 C13.44288,15.1111111 13.64,14.9124444 13.64,14.6666667 L13.64,9.33333333 C13.64,9.08755556 13.44288,8.88888889 13.2,8.88888889 Z M12.76,14.2222222 L9.24,14.2222222 L9.24,9.77777778 L12.76,9.77777778 L12.76,14.2222222 Z" id="Shape"></path>
                <path d="M21.56,1.77777778 L19.8,1.77777778 L19.8,0.444444444 C19.8,0.198666667 19.60288,0 19.36,0 C19.11712,0 18.92,0.198666667 18.92,0.444444444 L18.92,1.77777778 L17.16,1.77777778 C16.91712,1.77777778 16.72,1.97644444 16.72,2.22222222 L16.72,7.55555556 C16.72,7.80133333 16.91712,8 17.16,8 L18.92,8 L18.92,23.5555556 C18.92,23.8013333 19.11712,24 19.36,24 C19.60288,24 19.8,23.8013333 19.8,23.5555556 L19.8,8 L21.56,8 C21.80288,8 22,7.80133333 22,7.55555556 L22,2.22222222 C22,1.97644444 21.80288,1.77777778 21.56,1.77777778 Z M21.12,7.11111111 L17.6,7.11111111 L17.6,2.66666667 L21.12,2.66666667 L21.12,7.11111111 Z" id="Shape"></path>
            </g>
        </g>
    </g>
</svg>