<?xml version="1.0" encoding="UTF-8"?>
<svg width="26px" height="25px" viewBox="0 0 26 25" version="1.1" xmlns="http://www.w3.org/2000/svg" xmlns:xlink="http://www.w3.org/1999/xlink">
    <!-- Generator: Sketch 56.3 (81716) - https://sketch.com -->
    <title>stopwatch</title>
    <desc>Created with Sketch.</desc>
    <g id="Page-1" stroke="none" stroke-width="1" fill="none" fill-rule="evenodd">
        <g id="Camera-Settings" transform="translate(-301.000000, -744.000000)" fill="#FFFFFF" fill-rule="nonzero">
            <g id="Settings" transform="translate(188.000000, 756.500000) rotate(-90.000000) translate(-188.000000, -756.500000) translate(165.500000, 587.500000)">
                <g id="Items" transform="translate(10.000000, 31.000000)">
                    <g id="stopwatch" transform="translate(12.562196, 264.086190) rotate(-270.000000) translate(-12.562196, -264.086190) translate(0.404302, 251.937838)">
                        <path d="M12.1578947,0 C11.9337842,0 11.7526316,0.18101044 11.7526316,0.404945055 L11.7526316,5.78747473 C11.7526316,6.01140934 11.9337842,6.19241978 12.1578947,6.19241978 C12.3820053,6.19241978 12.5631579,6.01140934 12.5631579,5.78747473 L12.5631579,0.817179121 C18.6335947,1.03099011 23.5052632,6.03206154 23.5052632,12.1483516 C23.5052632,18.4002984 18.4147526,23.4868132 12.1578947,23.4868132 C5.90103684,23.4868132 0.810526316,18.4002984 0.810526316,12.1483516 C0.810526316,9.12746154 1.98578947,6.2851522 4.11990526,4.14501758 C4.27836316,3.98627912 4.27755263,3.73035385 4.11909474,3.57242527 C3.96023158,3.41530659 3.70410526,3.41530659 3.54605263,3.57323516 C1.25915263,5.86603407 0,8.91162582 0,12.1483516 C0,18.8469527 5.45403158,24.2967033 12.1578947,24.2967033 C18.8617579,24.2967033 24.3157895,18.8469527 24.3157895,12.1483516 C24.3157895,5.44975055 18.8617579,0 12.1578947,0 Z" id="Path" stroke="#FFFFFF" stroke-width="0.552631579"></path>
                        <path d="M11.5722895,13.5786176 L7.77659474,8.33660385 C7.66028421,8.17584066 7.67771053,7.95393077 7.81874211,7.81300989 C7.95977368,7.6728989 8.18226316,7.65508132 8.34274737,7.7708956 L13.5884737,11.5623962 C13.9317316,11.8118423 14.1469263,12.1961352 14.1797526,12.617683 C14.2125789,13.0392308 14.0597947,13.4518698 13.7611158,13.7503143 C13.4891842,14.0224374 13.1220158,14.1730769 12.7402579,14.1730769 C12.7029737,14.1730769 12.6652842,14.1718621 12.6275947,14.1686225 C12.2057158,14.135822 11.8211211,13.9207962 11.5722895,13.5786176 Z" id="Shape"></path>
                    </g>
                </g>
            </g>
        </g>
    </g>
</svg>