<?xml version="1.0" encoding="UTF-8"?>
<svg width="250px" height="192px" viewBox="0 0 250 192" version="1.1" xmlns="http://www.w3.org/2000/svg" xmlns:xlink="http://www.w3.org/1999/xlink">
    <!-- Generator: Sketch 56.3 (81716) - https://sketch.com -->
    <title>undraw_intense_feeling_ft9s</title>
    <desc>Created with Sketch.</desc>
    <g id="Page-1" stroke="none" stroke-width="1" fill="none" fill-rule="evenodd">
        <g id="Onboarding-1" transform="translate(-63.000000, -133.000000)">
            <g id="undraw_intense_feeling_ft9s" transform="translate(63.000000, 133.000000)">
                <path d="M136.001005,2.11376177 C124.010285,5.22870998 113.433717,13.5449647 102.921057,24.454927 C110.116085,31.0129017 110.76692,42.1127995 104.387605,49.4666964 C98.0082895,56.8205933 86.9277209,57.7438022 79.4193903,51.5469939 C67.0708781,66.2985217 53.5874694,81.8932345 37.1309487,94.7821634 C-4.77001648,127.599522 81.3965819,187.450584 136.001005,187.450584 C190.605428,187.450584 234.871076,145.961521 234.871076,94.7821634 C234.871076,43.602806 188.621643,-11.5560146 136.001005,2.11376177 Z" id="Path" fill="#584DFF" fill-rule="nonzero"></path>
                <circle id="Oval" fill="#FF6584" fill-rule="nonzero" cx="90.3671257" cy="37.0059463" r="12.7860546"></circle>
                <ellipse id="Oval" fill="#3F3D56" fill-rule="nonzero" cx="212.663472" cy="167.52794" rx="33.9973964" ry="4.41187618"></ellipse>
                <ellipse id="Oval" fill="#3F3D56" fill-rule="nonzero" cx="92.3715702" cy="187.301952" rx="33.9973964" ry="4.41187618"></ellipse>
                <path d="M214.538738,152.166603 C214.538738,152.166603 216.365558,158.458976 217.583437,160.082823 C218.801316,161.706669 219.816217,164.345403 219.207276,164.751372 C218.598336,165.157342 217.380457,170.028851 219.004296,170.231834 C220.628136,170.434816 224.281775,164.954355 224.484758,163.127535 C224.68774,161.300716 225.499659,154.805355 225.499659,154.805355 C225.499659,154.805355 226.920518,149.121916 224.687747,148.715956 C222.454976,148.309995 219.004308,148.107015 219.004308,148.107015 L214.538738,152.166603 Z" id="Path" fill="#2F2E41" fill-rule="nonzero"></path>
                <path d="M206.013578,158.864944 C206.013578,158.864944 203.374838,165.766262 202.765899,166.172222 C202.156961,166.578183 199.924178,170.231822 204.389739,170.231822 C208.855299,170.231822 211.291057,169.013943 211.291057,169.013943 L212.711919,167.390101 C212.711919,167.390101 212.711919,163.127524 212.305958,162.518583 C211.899998,161.909642 212.305958,158.864944 212.305958,158.864944 L206.013578,158.864944 Z" id="Path" fill="#2F2E41" fill-rule="nonzero"></path>
                <path d="M187.948359,95.7381709 C187.948359,95.7381709 184.70068,117.660016 187.542401,124.764301 C190.384122,131.868585 193.22584,133.898399 193.22584,133.898399 L214.741716,153.993416 C214.741716,153.993416 221.440056,150.542757 220.831116,148.309976 C220.831116,148.309976 219.410257,147.498065 219.207276,146.889117 C219.004296,146.280169 216.365558,146.077206 216.365558,146.077206 C216.365558,146.077206 215.147677,144.656347 215.147677,143.844428 C215.147677,143.032509 204.592719,128.62093 201.14206,127.606029 C201.14206,127.606029 199.315238,125.373249 199.518218,124.967288 C199.721198,124.561328 198.90928,123.140468 198.90928,123.140468 L200.93908,115.224251 L213.726817,113.194452 C213.726817,113.194452 219.004296,94.5202919 214.538729,93.0994327 C210.073161,91.6785734 187.948359,95.7381709 187.948359,95.7381709 Z" id="Path" fill="#2F2E41" fill-rule="nonzero"></path>
                <path d="M213.320857,109.946768 L213.726817,113.194449 C213.726817,113.194449 213.726817,121.719607 213.320857,122.531528 C212.914896,123.343449 212.711919,124.561328 213.320857,125.373246 C213.929795,126.185165 214.944696,128.214967 214.538738,129.026886 C214.13278,129.838804 215.35065,152.775544 213.726827,154.399383 C212.103004,156.023223 212.711928,158.053023 212.914915,158.256003 C213.117903,158.458983 212.711937,159.270904 212.711937,159.270904 C212.711937,159.270904 204.389758,160.691763 204.998698,159.270904 C205.607639,157.850045 205.607637,157.038124 206.013597,156.632163 C206.419557,156.226203 206.013597,155.617265 206.013597,155.617265 C206.013597,155.617265 206.622538,149.121904 206.013597,148.715944 C205.404656,148.309984 203.577837,128.823905 203.577837,128.620927 C203.577837,128.41795 202.968898,128.011987 202.968898,127.200066 C202.968898,126.388145 202.968898,123.749407 201.953997,123.343446 C200.939096,122.937486 201.142086,112.991469 201.142086,112.991469 L213.320857,109.946768 Z" id="Path" fill="#2F2E41" fill-rule="nonzero"></path>
                <path d="M198.90928,37.4829167 C198.90928,37.4829167 199.721191,43.5723164 202.156959,44.7901954 C204.592726,46.0080744 206.216558,46.6170151 206.216558,46.6170151 L204.186758,53.7213206 L203.374847,59.810718 L194.037759,59.810718 L188.96326,55.7511182 L190.5871,49.0527801 L191.399011,47.8349011 C191.399011,47.8349011 192.41391,43.3693409 191.601992,41.9484816 C190.790073,40.5276224 198.90928,37.4829167 198.90928,37.4829167 Z" id="Path" fill="#FFB9B9" fill-rule="nonzero"></path>
                <path d="M194.849692,52.3004543 L196.270551,54.9391949 C196.270551,54.9391949 197.285452,51.2855556 198.706311,50.6766149 C200.12717,50.0676742 203.57783,49.0527754 203.57783,48.2408545 C203.57783,47.4289336 203.374849,45.3991361 204.18677,45.3991361 C204.998691,45.3991361 212.914908,47.8348964 214.13279,48.646815 C215.350671,49.4587335 215.553649,50.2706544 215.553649,50.2706544 L213.320869,73.6133522 C213.320869,73.6133522 216.56855,84.574275 215.553649,88.8368503 C214.538748,93.0994256 213.726829,93.708371 211.291069,94.3173117 C208.855308,94.9262524 210.27617,92.8964524 203.171869,94.9262524 C196.067568,96.9560523 191.602013,96.3471116 189.978171,96.3471116 C188.354329,96.3471116 187.339433,97.1590231 186.933472,97.3620127 C186.527512,97.5650024 186.730492,96.3471116 188.151351,94.5202919 C189.57221,92.6934722 188.963263,89.6487735 188.963263,89.6487735 C188.963263,89.6487735 187.339423,84.3712947 188.354322,82.3414948 C189.369221,80.3116949 190.790082,77.6729449 189.572203,76.8610334 C188.354324,76.0491219 186.730483,69.9597128 186.730483,69.9597128 L182.264922,54.127274 L191.399023,47.8349011 C191.399023,47.8349011 190.993063,50.6766196 192.413922,51.2855603 C193.834781,51.8945009 194.849692,52.3004543 194.849692,52.3004543 Z" id="Path" fill="#575A89" fill-rule="nonzero"></path>
                <path d="M183.482801,53.9242938 L182.26492,53.9242938 C182.26492,53.9242938 180.23512,57.3749553 180.23512,59.8107133 C180.23512,62.2464713 181.250021,76.0491125 181.250021,76.0491125 L187.136441,82.1385122 L188.5573,77.4699623 L188.96326,67.1179849 L183.482801,53.9242938 Z" id="Path" fill="#575A89" fill-rule="nonzero"></path>
                <path d="M186.73048,75.4401718 C186.73048,75.4401718 180.032142,73.6133522 180.23512,76.455073 C180.438098,79.2967938 181.453001,82.7474459 184.70068,83.5593715 C187.948359,84.3712971 188.96326,79.9057321 188.96326,79.9057321 C188.96326,79.9057321 189.36923,75.8461323 186.73048,75.4401718 Z" id="Path" fill="#575A89" fill-rule="nonzero"></path>
                <path d="M211.899998,84.7772505 C211.899998,84.7772505 211.494037,94.1143315 209.058277,95.1292302 L214.944696,96.5500895 C214.944696,96.5500895 217.786417,86.8070504 217.380457,86.4010923 C216.974496,85.9951342 211.899998,84.7772505 211.899998,84.7772505 Z" id="Path" fill="#FFB9B9" fill-rule="nonzero"></path>
                <path d="M179.101532,64.5555907 L182.905531,64.5555907 C183.047604,64.5555907 183.183858,64.6120288 183.284318,64.7124892 C183.384778,64.8129497 183.441217,64.9492033 183.441217,65.0912758 L183.441217,74.771989 C183.441217,75.1333572 183.14827,75.426304 182.786902,75.426304 L179.220162,75.426304 C178.858794,75.426304 178.565847,75.1333572 178.565847,74.771989 L178.565847,65.0912663 C178.565847,64.7954193 178.805685,64.5555907 179.101532,64.5555907 L179.101532,64.5555907 Z" id="Path" fill="#2F2E41" fill-rule="nonzero" transform="translate(181.003532, 69.990947) rotate(-23.597970) translate(-181.003532, -69.990947) "></path>
                <path d="M179.101532,64.5555907 L182.905531,64.5555907 C183.047604,64.5555907 183.183858,64.6120288 183.284318,64.7124892 C183.384778,64.8129497 183.441217,64.9492033 183.441217,65.0912758 L183.441217,74.771989 C183.441217,75.1333572 183.14827,75.426304 182.786902,75.426304 L179.220162,75.426304 C178.858794,75.426304 178.565847,75.1333572 178.565847,74.771989 L178.565847,65.0912663 C178.565847,64.7954193 178.805685,64.5555907 179.101532,64.5555907 L179.101532,64.5555907 Z" id="Path" fill="#000000" fill-rule="nonzero" opacity="0.1" transform="translate(181.003532, 69.990947) rotate(-23.597970) translate(-181.003532, -69.990947) "></path>
                <path d="M179.220818,65.1266281 L182.53728,65.1266281 C182.83313,65.1266281 183.072965,65.3664624 183.072965,65.6623131 L183.072965,74.8489045 C183.072965,75.2102726 182.780018,75.5032194 182.41865,75.5032194 L179.339448,75.5032194 C178.97808,75.5032194 178.685133,75.2102726 178.685133,74.8489045 L178.685133,65.6623131 C178.685133,65.3664624 178.924967,65.1266281 179.220818,65.1266281 L179.220818,65.1266281 Z" id="Path" fill="#2F2E41" fill-rule="nonzero" transform="translate(180.879049, 70.314924) rotate(-23.597970) translate(-180.879049, -70.314924) "></path>
                <ellipse id="Oval" fill="#F2F2F2" fill-rule="nonzero" transform="translate(179.681865, 68.909692) rotate(-23.597950) translate(-179.681865, -68.909692) " cx="179.681865" cy="68.9096923" rx="1" ry="1"></ellipse>
                <path d="M213.422347,53.0108851 L214.741716,51.0825753 C214.741716,51.0825753 219.613237,58.5928343 219.207276,63.6673329 C218.801316,68.7418315 218.395365,68.944814 218.395365,69.7567326 C218.395365,70.5686511 217.380464,70.5686441 218.395365,71.5835523 C219.410266,72.5984605 220.831123,74.0193126 220.019204,74.8312335 C219.207286,75.6431544 218.598343,75.643145 218.801323,76.6580532 C218.931138,77.3953486 218.999035,78.1422131 219.004303,78.890831 C219.004303,78.890831 217.278974,82.2400024 216.670028,82.2400024 C216.061083,82.2400024 210.276161,87.6189713 210.276161,87.0100306 C210.276161,86.4010899 210.885099,82.1385122 210.885099,81.5295692 C210.885099,80.9206262 211.088079,78.8908286 211.49404,78.2818903 C211.9,77.672952 211.9,77.8759298 211.49404,77.2669892 C211.088079,76.6580485 211.088079,77.2669892 211.088079,76.6580508 C211.088079,76.0491125 211.291059,75.2371893 210.682121,75.034209 C210.073183,74.8312288 209.46424,75.034209 209.87021,74.0193103 C210.276179,73.0044115 209.87021,72.1924906 209.667229,72.1924906 C209.464249,72.1924906 208.44935,71.9895104 209.058289,71.3805791 C209.667227,70.7716478 207.84041,58.9988018 207.84041,58.9988018 C207.84041,58.9988018 208.144868,56.0555956 213.422347,53.0108851 Z" id="Path" fill="#000000" fill-rule="nonzero" opacity="0.1"></path>
                <path d="M212.305958,48.646815 L215.756617,50.2706544 C215.756617,50.2706544 220.628136,57.7809134 220.222177,62.8554143 C219.816219,67.9299153 219.410266,68.1328931 219.410266,68.944814 C219.410266,69.7567349 218.395367,69.7567255 219.410266,70.7716337 C220.425165,71.7865419 221.846026,73.2073917 221.034105,74.0193126 C220.222185,74.8312335 219.613246,74.8312241 219.816226,75.8461323 C219.946042,76.5834285 220.013939,77.3302938 220.019207,78.0789124 C220.019207,78.0789124 218.192387,87.8219515 217.583446,87.8219515 C216.974506,87.8219515 211.291073,86.8070504 211.291073,86.1981121 C211.291073,85.5891737 211.900014,81.3265913 211.900014,80.7176507 C211.900014,80.10871 212.102994,78.0789124 212.508955,77.4699718 C212.914915,76.8610311 212.914913,77.0640113 212.508955,76.455073 C212.102997,75.8461347 212.102994,76.455073 212.102994,75.8461323 C212.102994,75.2371916 212.305975,74.4252731 211.697034,74.2222928 C211.088093,74.0193126 210.479155,74.2222928 210.885122,73.2073917 C211.29109,72.1924906 210.885122,71.380572 210.682145,71.380572 C210.479167,71.380572 209.464263,71.1775918 210.073204,70.5686605 C210.682145,69.9597293 208.855325,58.1868809 208.855325,58.1868809 C208.855325,58.1868809 207.028477,51.691516 212.305958,48.646815 Z" id="Path" fill="#575A89" fill-rule="nonzero"></path>
                <path d="M181.505824,76.8898705 C181.116211,76.9930338 180.707671,76.8086756 180.527246,76.4482768 C179.594487,74.5832745 177.067189,69.1131073 179.423197,68.9448211 C181.59669,68.7895716 183.532688,73.0277848 184.323008,75.0296069 C184.424738,75.2868119 184.411454,75.5752686 184.286515,75.8220348 C184.161576,76.0688011 183.936943,76.250251 183.669421,76.3205014 L181.505824,76.8898705 Z" id="Path" fill="#FFB9B9" fill-rule="nonzero"></path>
                <circle id="Oval" fill="#FFB9B9" fill-rule="nonzero" cx="193.22584" cy="35.656097" r="7.51025895"></circle>
                <path d="M190.466149,31.3307839 C189.529018,31.6541232 188.561764,31.8824598 187.578967,32.0123517 C186.839296,32.1277566 185.973717,32.1868456 185.453863,31.6481615 C184.943696,31.1195104 185.026229,30.2376883 185.374211,29.5906568 C185.722194,28.9436252 186.27964,28.4363536 186.69782,27.8323117 C187.355516,26.8822999 187.743679,25.622846 188.795365,25.1442632 C189.231206,24.9774206 189.6937,24.891032 190.160381,24.8892938 C192.8894,24.7153037 195.729974,24.5585499 198.257274,25.602846 C199.206863,25.9646403 200.048168,26.5632398 200.701248,27.3417655 C201.129042,27.9150113 201.459124,28.5550372 201.678143,29.2359557 C203.051539,33.3102368 202.209306,37.8054767 199.454117,41.1062218 C198.533065,40.2763795 198.933637,38.3588748 197.768216,37.936024 C197.385869,37.7972976 196.953642,37.8938347 196.562001,37.7840207 C195.331158,37.4388936 195.39298,35.5367208 194.368312,34.7724364 C194.144527,34.6520075 193.946342,34.489143 193.784826,34.2929402 C193.694742,34.1047651 193.655599,33.89625 193.671306,33.6882156 C193.663816,32.9756215 193.998548,31.1655344 193.31879,30.6770975 C192.626862,30.1799153 191.131015,31.0906874 190.466149,31.3307839 Z" id="Path" fill="#2F2E41" fill-rule="nonzero"></path>
                <polygon id="Path" fill="#FFC107" fill-rule="nonzero" points="117.658898 13.8888889 179.570386 13.8888889 179.570386 46.3747646 175.097693 46.3747646 175.097693 58.3804143 163.092043 46.3747646 117.658898 46.3747646"></polygon>
                <path d="M148.614729,37.0853272 L147.522305,36.0998493 C143.642905,32.5381003 141.081773,30.2263512 141.081773,27.3466266 C141.062365,26.239668 141.49181,25.1719818 142.272294,24.3867562 C143.052778,23.6015306 144.117843,23.1656259 145.224899,23.1783286 C146.533746,23.1853005 147.77335,23.7673185 148.614729,24.76992 C149.456095,23.7672998 150.695707,23.1852775 152.00456,23.1783286 C153.111616,23.1656259 154.176681,23.6015306 154.957165,24.3867562 C155.737649,25.1719818 156.167094,26.239668 156.147686,27.3466266 C156.147686,30.2263889 153.586516,32.5381379 149.707154,36.0998493 L148.614729,37.0853272 Z" id="Path" fill="#FFFFFF" fill-rule="nonzero"></path>
                <polygon id="Path" fill="#FFC107" fill-rule="nonzero" points="0 93.5786252 59.5560264 76.6638418 68.4314972 107.913842 64.1290019 109.135829 67.4091337 120.684793 52.5800377 112.41596 8.87547081 124.828625"></polygon>
                <path d="M36.1155179,107.435221 L34.7954143,106.785699 C30.0905108,104.41935 26.9952142,102.895285 26.2084487,100.125118 C25.8873472,99.0655768 26.0087516,97.9211832 26.5450095,96.9525963 C27.0812674,95.9840095 27.9867176,95.2737025 29.0551248,94.9834628 C30.3160792,94.6325792 31.6675331,94.8537813 32.7508216,95.5883639 C33.2862515,94.3940153 34.3196938,93.4954603 35.5768573,93.1311888 C36.6383238,92.8165104 37.7819614,92.9448438 38.7472826,93.4869585 C39.7126039,94.0290731 40.4174138,94.9388091 40.701177,96.0089548 C41.4879567,98.7791549 39.6558239,101.702693 36.8971492,106.188776 L36.1155179,107.435221 Z" id="Path" fill="#FFFFFF" fill-rule="nonzero"></path>
                <path d="M68.3701248,74.6500777 C68.3701248,74.6500777 66.3570669,80.6892538 67.4754308,82.0312924 C68.5937947,83.373331 60.7652378,78.0051742 60.7652378,78.0051742 L65.0150282,73.0843668 L68.3701248,74.6500777 Z" id="Path" fill="#A0616A" fill-rule="nonzero"></path>
                <circle id="Oval" fill="#2F2E41" fill-rule="nonzero" cx="63.7793997" cy="64.5977542" r="10.0425071"></circle>
                <polygon id="Path" fill="#A0616A" fill-rule="nonzero" points="102.815678 142.646657 97.6713748 146.672787 94.7636535 141.975753 99.9079567 138.396893"></polygon>
                <path d="M95.5464077,172.954416 L96.888451,179.440937 L100.690895,184.585417 C100.690895,184.585417 110.979859,187.716841 104.045991,189.282554 C97.1121234,190.848267 95.5464124,188.164188 95.5464124,188.164188 L90.625605,183.914397 L90.625605,189.729899 L87.4941761,189.729899 L86.8231568,181.454004 C86.8231568,181.454004 86.3758098,178.993599 88.3888677,176.309522 L88.8362147,172.283406 L95.5464077,172.954416 Z" id="Path" fill="#2F2E41" fill-rule="nonzero"></path>
                <path d="M69.6003272,92.6557651 L71.3897105,102.94472 C71.3897105,102.94472 90.4019256,100.931662 91.7439642,104.734103 C93.0860028,108.536544 93.5333498,109.654913 93.5333498,109.654913 L89.7309063,110.996956 L87.9415231,107.64186 C86.8399922,107.251808 85.6264328,107.332712 84.5864266,107.865532 C82.797041,108.760224 67.1399223,110.996956 66.021556,108.089204 C64.9031897,105.181452 61.7717679,94.4451365 61.7717679,94.4451365 L66.468903,90.642693 L69.6003272,92.6557651 Z" id="Path" fill="#A0616A" fill-rule="nonzero"></path>
                <path d="M69.6003272,92.6557651 L71.3897105,102.94472 C71.3897105,102.94472 90.4019256,100.931662 91.7439642,104.734103 C93.0860028,108.536544 93.5333498,109.654913 93.5333498,109.654913 L89.7309063,110.996956 L87.9415231,107.64186 C86.8399922,107.251808 85.6264328,107.332712 84.5864266,107.865532 C82.797041,108.760224 67.1399223,110.996956 66.021556,108.089204 C64.9031897,105.181452 61.7717679,94.4451365 61.7717679,94.4451365 L66.468903,90.642693 L69.6003272,92.6557651 Z" id="Path" fill="#000000" fill-rule="nonzero" opacity="0.1"></path>
                <path d="M80.1129637,122.404289 L81.6786747,127.772446 L85.7047905,148.350365 C85.7047905,148.350365 86.1521375,163.560137 86.8231568,165.349522 C87.4941761,167.138908 87.4941761,167.36258 86.8231568,168.033609 C86.1521375,168.704637 84.8100989,170.941361 86.8231568,172.283399 C88.8362147,173.625438 95.9937547,175.191149 96.217427,173.625443 C96.4410993,172.059736 96.4411017,169.599327 96.217427,168.48096 C95.9937524,167.362594 96.8884463,149.91609 96.8884463,149.91609 L94.2043597,123.29899 L85.0337782,119.049193 L80.1129637,122.404289 Z" id="Path" fill="#2F2E41" fill-rule="nonzero"></path>
                <path d="M80.1129637,122.404289 L81.6786747,127.772446 L85.7047905,148.350365 C85.7047905,148.350365 86.1521375,163.560137 86.8231568,165.349522 C87.4941761,167.138908 87.4941761,167.36258 86.8231568,168.033609 C86.1521375,168.704637 84.8100989,170.941361 86.8231568,172.283399 C88.8362147,173.625438 95.9937547,175.191149 96.217427,173.625443 C96.4410993,172.059736 96.4411017,169.599327 96.217427,168.48096 C95.9937524,167.362594 96.8884463,149.91609 96.8884463,149.91609 L94.2043597,123.29899 L85.0337782,119.049193 L80.1129637,122.404289 Z" id="Path" fill="#000000" fill-rule="nonzero" opacity="0.1"></path>
                <path d="M89.7309063,101.379016 L94.6517161,110.773289 C94.6517161,110.773289 122.834529,123.298983 120.374124,128.443465 C117.913719,133.587947 104.269654,143.20589 104.269654,143.20589 C104.269654,143.20589 103.598635,147.008333 101.585567,145.889976 C99.5725,144.77162 94.6517161,138.956102 95.0990631,138.285082 C95.5464101,137.614063 97.112121,136.04835 97.7831497,136.272024 C98.4541784,136.495699 106.282728,130.456523 106.282728,130.456523 L92.8623399,127.101427 C92.8623399,127.101427 76.7578766,126.65408 75.8631827,119.049193 C74.9684887,111.444306 75.8631827,110.102269 75.8631827,110.102269 L74.7448164,107.641864 L83.9154167,102.050035 L89.7309063,101.379016 Z" id="Path" fill="#2F2E41" fill-rule="nonzero"></path>
                <path d="M96.664774,138.50875 L91.9676295,142.758545 C91.9676295,142.758545 87.9415137,140.96916 85.4811088,141.640179 C83.0207039,142.311198 78.7709157,142.758545 78.7709157,142.758545 L79.441935,146.560986 L85.1486935,145.508138 L80.560299,151.929143 C80.560299,151.929143 80.560299,161.994433 83.4680508,161.994433 C86.3758027,161.994433 85.4811088,155.955259 85.4811088,155.955259 L94.4280344,149.021391 C94.4280344,149.021391 98.9014948,147.232006 99.3488418,147.232006 C99.7961888,147.232006 96.664774,138.50875 96.664774,138.50875 Z" id="Path" fill="#2F2E41" fill-rule="nonzero"></path>
                <circle id="Oval" fill="#A0616A" fill-rule="nonzero" cx="67.4754308" cy="68.8345763" r="7.60488701"></circle>
                <path d="M59.9823823,74.7619138 C59.9823823,74.7619138 63.5611511,73.8672222 64.6795174,74.7619138 C65.7978837,75.6566055 66.0215607,77.6696657 67.5872693,77.893338 C69.1529779,78.1170104 70.4950188,78.1170127 70.7186911,78.340685 C70.9423635,78.5643573 76.0868479,84.8272057 76.0868479,84.8272057 C76.0868479,84.8272057 79.2182698,86.6165913 79.8892891,89.0769939 C80.5603084,91.5373964 87.2705038,99.8133051 88.1651954,100.707997 C89.059887,101.602688 82.349694,106.076151 80.1129637,107.641864 C77.8762335,109.207578 71.3897105,109.878595 69.3766525,106.299821 C67.3635946,102.721048 56.4036111,79.4590513 59.9823823,74.7619138 Z" id="Path" fill="#575A89" fill-rule="nonzero"></path>
                <path d="M68.4819609,89.3006685 L70.2713465,99.5896304 C70.2713465,99.5896304 89.2835617,97.5765725 90.6256003,101.379016 C91.9676389,105.18146 92.4149859,106.299826 92.4149859,106.299826 L88.6125424,107.641869 L86.8231568,104.286763 C85.7216259,103.896712 84.5080665,103.977615 83.4680603,104.510435 C81.6786747,105.405127 66.021556,107.641869 64.9031897,104.734108 C63.7848234,101.826356 60.6534016,91.09004 60.6534016,91.09004 L65.3505367,87.2875989 L68.4819609,89.3006685 Z" id="Path" fill="#A0616A" fill-rule="nonzero"></path>
                <path d="M64.2076083,75.7029779 C64.2076083,75.7029779 69.6003272,87.063936 69.1529802,90.1953602 C68.7056332,93.3267844 67.1399223,91.0900518 67.1399223,91.0900518 C67.1399223,91.0900518 65.1268644,87.9586299 64.2321704,89.7480085 C63.3374765,91.537387 62.2191125,93.997799 61.3244209,93.7741266 C60.4297293,93.5504543 55.5089195,76.9986417 58.1929967,75.4329308 C60.8770739,73.8672199 64.2076083,75.7029779 64.2076083,75.7029779 Z" id="Path" fill="#575A89" fill-rule="nonzero"></path>
                <circle id="Oval" fill="#2F2E41" fill-rule="nonzero" cx="52.9000188" cy="51.3751224" r="10.0425071"></circle>
                <path d="M44.2378202,59.6909534 C46.8752781,61.5972075 50.2728898,62.1073747 53.3538831,61.0597729 C56.4348763,60.012171 58.8172992,57.5366716 59.7461135,54.4178107 C59.2738521,58.1734344 56.7301039,61.3445216 53.1663644,62.620257 C49.6026249,63.8959925 45.624311,63.0596511 42.8759168,60.4569468 C40.1275226,57.8542426 39.0759522,53.9273292 40.1558875,50.2994539 C39.6976674,53.9407333 41.2628703,57.5418711 44.2378202,59.6909534 L44.2378202,59.6909534 Z" id="Path" fill="#2F2E41" fill-rule="nonzero"></path>
                <circle id="Oval" fill="#2F2E41" fill-rule="nonzero" cx="61.1014007" cy="66.2715042" r="7.36450565"></circle>
                <ellipse id="Oval" fill="#2F2E41" fill-rule="nonzero" cx="67.2942773" cy="63.5098117" rx="6.52762947" ry="5.10494115"></ellipse>
                <ellipse id="Oval" fill="#A0616A" fill-rule="nonzero" cx="67.5872693" cy="69.6174341" rx="1.45387476" ry="2.57224105"></ellipse>
                <path d="M87.5443715,107.544117 C87.5443715,107.544117 91.5039972,105.272373 92.2390819,105.842017 C92.9741667,106.411662 93.300758,108.194183 93.300758,108.194183 L88.7243785,109.990426 L87.3823352,107.530024 L87.5443715,107.544117 Z" id="Path" fill="#2F2E41" fill-rule="nonzero"></path>
                <path d="M68.6752919,185.065998 L68.6752919,157.737015" id="Path" stroke="#3F3D56" stroke-width="1.33333333" fill="#3F3D56" fill-rule="nonzero"></path>
                <circle id="Oval" fill="#3F3D56" fill-rule="nonzero" cx="68.6752919" cy="157.737015" r="3.86470574"></circle>
                <path d="M68.6752919,174.580433 C68.6752919,174.580433 68.1231897,162.70592 56.8051271,164.086172" id="Path" fill="#3F3D56" fill-rule="nonzero"></path>
                <path d="M186.37774,164.821177 L186.37774,137.492194" id="Path" stroke="#3F3D56" stroke-width="1.33333333" fill="#3F3D56" fill-rule="nonzero"></path>
                <circle id="Oval" fill="#3F3D56" fill-rule="nonzero" cx="186.37774" cy="137.492194" r="3.86470574"></circle>
                <path d="M186.37774,154.335612 C186.37774,154.335612 185.825638,142.461099 174.507575,143.841351" id="Path" fill="#3F3D56" fill-rule="nonzero"></path>
                <path d="M234.100579,165.446102 L234.100579,110.788133" id="Path" stroke="#3F3D56" stroke-width="1.33333333" fill="#3F3D56" fill-rule="nonzero"></path>
                <circle id="Oval" fill="#3F3D56" fill-rule="nonzero" cx="234.100579" cy="110.788133" r="3.86470574"></circle>
                <path d="M234.100577,126.527347 C234.100577,126.527347 234.652679,114.652834 245.970742,116.033086" id="Path" fill="#3F3D56" fill-rule="nonzero"></path>
                <path d="M234.100577,164.383771 C234.100577,164.383771 231.616125,142.533922 245.970742,141.42972" id="Path" stroke="#3F3D56" stroke-width="1.33333333"></path>
                <circle id="Oval" fill="#3F3D56" fill-rule="nonzero" cx="245.970744" cy="141.429722" r="3.86470574"></circle>
            </g>
        </g>
    </g>
</svg>