<?xml version="1.0" encoding="UTF-8"?>
<svg width="222px" height="180px" viewBox="0 0 222 180" version="1.1" xmlns="http://www.w3.org/2000/svg" xmlns:xlink="http://www.w3.org/1999/xlink">
    <!-- Generator: Sketch 56.3 (81716) - https://sketch.com -->
    <title>undraw_sync4_xlc6</title>
    <desc>Created with Sketch.</desc>
    <defs>
        <linearGradient x1="50.0382974%" y1="98.7931759%" x2="50.03503%" y2="1.15384455%" id="linearGradient-1">
            <stop stop-color="#808080" stop-opacity="0.25" offset="0%"></stop>
            <stop stop-color="#808080" stop-opacity="0.12" offset="54%"></stop>
            <stop stop-color="#808080" stop-opacity="0.1" offset="100%"></stop>
        </linearGradient>
        <linearGradient x1="239.580811%" y1="61.6698214%" x2="193.45156%" y2="-24.6380644%" id="linearGradient-2">
            <stop stop-color="#808080" stop-opacity="0.25" offset="0%"></stop>
            <stop stop-color="#808080" stop-opacity="0.12" offset="54%"></stop>
            <stop stop-color="#808080" stop-opacity="0.1" offset="100%"></stop>
        </linearGradient>
        <linearGradient x1="-9.29670057%" y1="81.301166%" x2="109.290499%" y2="18.6864302%" id="linearGradient-3">
            <stop stop-color="#808080" stop-opacity="0.25" offset="0%"></stop>
            <stop stop-color="#808080" stop-opacity="0.12" offset="54%"></stop>
            <stop stop-color="#808080" stop-opacity="0.1" offset="100%"></stop>
        </linearGradient>
        <linearGradient x1="26.6435449%" y1="67.2999486%" x2="65.263659%" y2="26.7162275%" id="linearGradient-4">
            <stop stop-color="#000000" stop-opacity="0.12" offset="0%"></stop>
            <stop stop-color="#000000" stop-opacity="0.09" offset="55%"></stop>
            <stop stop-color="#000000" stop-opacity="0.02" offset="100%"></stop>
        </linearGradient>
        <linearGradient x1="37.8591788%" y1="101.742388%" x2="62.1389172%" y2="-1.74066946%" id="linearGradient-5">
            <stop stop-color="#808080" stop-opacity="0.25" offset="0%"></stop>
            <stop stop-color="#808080" stop-opacity="0.12" offset="54%"></stop>
            <stop stop-color="#808080" stop-opacity="0.1" offset="100%"></stop>
        </linearGradient>
        <linearGradient x1="68.0703014%" y1="96.6551196%" x2="38.2123686%" y2="14.6662472%" id="linearGradient-6">
            <stop stop-color="#000000" stop-opacity="0.12" offset="0%"></stop>
            <stop stop-color="#000000" stop-opacity="0.09" offset="55%"></stop>
            <stop stop-color="#000000" stop-opacity="0.02" offset="100%"></stop>
        </linearGradient>
    </defs>
    <g id="Page-1" stroke="none" stroke-width="1" fill="none" fill-rule="evenodd">
        <g id="Onboarding-3" transform="translate(-77.000000, -145.000000)">
            <g id="undraw_sync4_xlc6" transform="translate(77.000000, 143.000000)">
                <g id="Group" opacity="0.3" transform="translate(157.106180, 10.012837)" stroke="#2196F3" stroke-width="2.36747967">
                    <path d="M0.166880616,0.0786722905 C0.586466165,0.305947796 1.00366771,0.53719665 1.41848524,0.772418852" id="Path"></path>
                    <path d="M3.85494223,2.19090409 C29.0586833,17.5272327 45.8921924,45.2508711 45.8921924,76.90574 C45.8974929,84.2585054 44.9763687,91.5826444 43.1505593,98.7051164" id="Path" stroke-dasharray="7.013658621253037"></path>
                    <path d="M42.792958,100.071153 C42.6674002,100.530473 42.5378691,100.988997 42.4043646,101.446727" id="Path"></path>
                </g>
                <path d="M28.2505043,86.9185769 C28.2505043,48.9460847 52.4744178,16.6308454 86.3106547,4.57491289" id="Path" stroke="#2196F3" stroke-width="2.36747967" opacity="0.21" stroke-dasharray="7.102439024390244"></path>
                <path d="M157.273061,163.748029 C144.490213,170.689922 130.17058,174.315322 115.624427,174.292607 C87.1283697,174.292607 61.8173482,160.651201 45.8683294,139.540803" id="Path" stroke="#2196F3" stroke-width="2.36747967" opacity="0.5" stroke-dasharray="7.102439024390244"></path>
                <g id="Group" opacity="0.21" transform="translate(56.739409, 27.892903)" stroke="#2196F3" stroke-width="2.36747967">
                    <path d="M115.433706,75.5039428 C115.300202,75.9616725 115.161135,76.4178128 115.016505,76.8723638" id="Path"></path>
                    <path d="M114.089125,79.5662938 C105.745094,101.959288 84.1817348,117.910691 58.8850174,117.910691 C26.3647533,117.910691 0,91.545938 0,59.0256739 C0,26.5054099 26.3647533,0.140594251 58.8850174,0.140594251 C71.7908822,0.121853209 84.3423239,4.3620919 94.5927013,12.2037411" id="Path" stroke-dasharray="7.072845556677842"></path>
                    <path d="M95.7179534,13.0762883 C96.0898588,13.3750841 96.4577908,13.6778532 96.8217495,13.9845956" id="Path"></path>
                </g>
                <g id="Group" opacity="0.5" transform="translate(110.618008, 53.401797)" stroke="#2196F3" stroke-width="2.36747967">
                    <path d="M0.0047680176,0.522097928 C0.481569778,0.452167003 0.958371539,0.391772113 1.4351733,0.340913259" id="Path"></path>
                    <path d="M4.1720154,0.152576563 C4.45014976,0.152576563 4.72828412,0.152576563 5.00641849,0.152576563 C16.8429681,0.152576563 27.7941351,6.42160764 33.7876183,16.6285693 C39.7811014,26.835531 39.9202462,39.4533728 34.1533101,49.7900238" id="Path" stroke-dasharray="6.842016508521104"></path>
                    <path d="M33.4571795,50.9772602 C33.2076533,51.3841311 32.9493857,51.7814659 32.6823767,52.1692646" id="Path"></path>
                </g>
                <path d="M198.070603,130.879699 L174.044563,118.194388 L186.577297,97.6704566 C186.782238,97.3354358 187.212327,97.2174744 187.559509,97.4010636 L207.618559,107.993215 C207.960844,108.175987 208.105121,108.591174 207.949936,108.946818 L198.070603,130.879699 Z" id="Path" fill="url(#linearGradient-1)" fill-rule="nonzero"></path>
                <path d="M197.672474,129.775903 L175.181735,117.901155 L186.891986,98.7241885 C187.096927,98.3891677 187.527016,98.2712063 187.874198,98.4547955 L206.574363,108.32936 C206.916648,108.512133 207.060925,108.92732 206.90574,109.282964 L197.672474,129.775903 Z" id="Path" fill="#F2F2F2" fill-rule="nonzero"></path>
                <path d="M182.207409,160.920594 L158.178984,148.237667 L148.299652,170.170548 C148.144466,170.526192 148.288744,170.941379 148.631029,171.124152 L168.694847,181.706767 C169.042028,181.890356 169.472117,181.772395 169.677058,181.437374 L182.207409,160.920594 Z" id="Path" fill="url(#linearGradient-2)" fill-rule="nonzero"></path>
                <path d="M181.065469,161.204291 L158.57473,149.329543 L149.358151,169.822483 C149.202966,170.178127 149.347244,170.593314 149.689529,170.776087 L168.389694,180.648267 C168.736875,180.831856 169.166964,180.713895 169.371905,180.378874 L181.065469,161.204291 Z" id="Path" fill="#F2F2F2" fill-rule="nonzero"></path>
                <path d="M160.408032,120.394088 L196.089676,120.394088 C196.851308,120.394088 197.468733,121.011513 197.468733,121.773145 L197.468733,157.454789 C197.468733,158.216421 196.851308,158.833846 196.089676,158.833846 L160.408032,158.833846 C159.6464,158.833846 159.028975,158.216421 159.028975,157.454789 L159.028975,121.773145 C159.028975,121.011513 159.6464,120.394088 160.408032,120.394088 Z" id="Rectangle" fill="url(#linearGradient-3)" fill-rule="nonzero" transform="translate(178.248854, 139.613967) rotate(-62.170000) translate(-178.248854, -139.613967) "></path>
                <path d="M161.004185,120.977392 L195.529585,120.977392 C196.291217,120.977392 196.908642,121.594817 196.908642,122.356449 L196.908642,156.881848 C196.908642,157.643481 196.291217,158.260905 195.529585,158.260905 L161.004185,158.260905 C160.242553,158.260905 159.625128,157.643481 159.625128,156.881848 L159.625128,122.356449 C159.625128,121.594817 160.242553,120.977392 161.004185,120.977392 Z" id="Rectangle" fill="#F2F2F2" fill-rule="nonzero" transform="translate(178.266885, 139.619149) rotate(27.830000) translate(-178.266885, -139.619149) "></path>
                <path d="M198.46671,137.89359 L199.003589,137.89359 C199.49391,137.89359 199.891394,138.291074 199.891394,138.781395 L199.891394,142.787007 C199.891394,143.277328 199.49391,143.674812 199.003589,143.674812 L198.46671,143.674812 C197.976389,143.674812 197.578905,143.277328 197.578905,142.787007 L197.578905,138.781395 C197.578905,138.291074 197.976389,137.89359 198.46671,137.89359 Z" id="Rectangle" fill="#F2F2F2" fill-rule="nonzero" transform="translate(198.735149, 140.784201) rotate(27.830000) translate(-198.735149, -140.784201) "></path>
                <path d="M162.740162,122.71126 L193.796829,122.71126 C194.558461,122.71126 195.175886,123.328685 195.175886,124.090317 L195.175886,155.146984 C195.175886,155.908616 194.558461,156.526041 193.796829,156.526041 L162.740162,156.526041 C161.97853,156.526041 161.361105,155.908616 161.361105,155.146984 L161.361105,124.090317 C161.361105,123.328685 161.97853,122.71126 162.740162,122.71126 Z" id="Rectangle" fill="#FFC107" fill-rule="nonzero" transform="translate(178.268496, 139.618651) rotate(27.830000) translate(-178.268496, -139.618651) "></path>
                <polygon id="Path" fill="url(#linearGradient-4)" fill-rule="nonzero" points="188.532184 139.664772 187.058867 136.362919 176.910141 140.854392 174.981478 136.596552 171.560425 138.115166 174.397396 144.258757 174.397396 144.258757 175.076838 145.829818"></polygon>
                <polygon id="Path" fill="#FFFFFF" fill-rule="nonzero" points="188.372456 139.519347 187.015955 136.56556 176.814781 141.254906 174.816981 136.911242 171.863195 138.267743 174.54282 144.084724 174.54282 144.084724 175.238951 145.555657"></polygon>
                <path d="M37.1243305,9.54627888 L99.4887293,9.54627888 C103.493018,9.54627888 106.739136,12.7923964 106.739136,16.7966854 L106.739136,141.035649 C106.739136,145.039938 103.493018,148.286055 99.4887293,148.286055 L37.1243305,148.286055 C33.1200416,148.286055 29.873924,145.039938 29.873924,141.035649 L29.873924,16.7966854 C29.873924,12.7923964 33.1200416,9.54627888 37.1243305,9.54627888 Z" id="Rectangle" fill="url(#linearGradient-5)" fill-rule="nonzero" transform="translate(68.306530, 78.916167) rotate(-22.950000) translate(-68.306530, -78.916167) "></path>
                <path d="M38.9851918,11.4232347 L97.6253366,11.4232347 C102.08399,11.4232347 105.698442,15.0376872 105.698442,19.4963404 L105.698442,138.342243 C105.698442,142.800897 102.08399,146.415349 97.6253366,146.415349 L38.9851918,146.415349 C34.5265387,146.415349 30.9120861,142.800897 30.9120861,138.342243 L30.9120861,19.4963404 C30.9120861,15.0376872 34.5265387,11.4232347 38.9851918,11.4232347 Z" id="Rectangle" fill="#FFFFFF" fill-rule="nonzero" transform="translate(68.305264, 78.919292) rotate(-22.950000) translate(-68.305264, -78.919292) "></path>
                <path d="M60.6062718,12.5494223 C61.3476644,15.4473275 59.8646349,18.4528665 57.1136989,19.6275445 L33.3284431,29.7023657 C30.5702862,30.8609688 27.3793207,29.8344336 25.8140473,27.2849807 L13.2145608,32.6203924 C12.5203165,32.9137056 11.9711683,33.470998 11.6881067,34.1694849 C11.4050452,34.8679718 11.4112964,35.6503397 11.7054832,36.3442142 L59.4953237,149.181735 C59.7886368,149.875979 60.3459293,150.425127 61.0444161,150.708189 C61.742903,150.99125 62.5252709,150.984999 63.2191454,150.690812 L123.39868,125.205758 C124.092924,124.912445 124.642072,124.355153 124.925134,123.656666 C125.208195,122.958179 125.201944,122.175811 124.907757,121.481937 L77.1226848,8.6396479 C76.8293716,7.94540361 76.2720792,7.39625542 75.5735923,7.11319385 C74.8751054,6.83013227 74.0927375,6.83638353 73.398863,7.13057033 L60.6062718,12.5494223 Z" id="Path" fill="#FFC107" fill-rule="nonzero"></path>
                <path d="M36.4233683,21.2860961 L52.048162,21.2860961 C52.3358504,21.2860961 52.5690679,21.5193136 52.5690679,21.807002 C52.5690679,22.0946904 52.3358504,22.3279079 52.048162,22.3279079 L36.4233683,22.3279079 C36.1356799,22.3279079 35.9024624,22.0946904 35.9024624,21.807002 C35.9024624,21.5193136 36.1356799,21.2860961 36.4233683,21.2860961 Z" id="Rectangle" fill="#DBDBDB" fill-rule="nonzero" transform="translate(44.235765, 21.807002) rotate(-22.950000) translate(-44.235765, -21.807002) "></path>
                <circle id="Oval" fill="#DBDBDB" fill-rule="nonzero" transform="translate(55.127946, 17.081990) rotate(-22.950000) translate(-55.127946, -17.081990) " cx="55.127946" cy="17.08199" r="1"></circle>
                <polygon id="Path" fill="url(#linearGradient-6)" fill-rule="nonzero" points="78.4958738 64.3992298 72.1448744 63.111865 68.1421236 82.596369 59.9196772 80.982395 58.5822483 87.5551073 70.4999083 89.8056116 70.4999083 89.8056116 73.4966074 90.44691"></polygon>
                <polygon id="Path" fill="#FFFFFF" fill-rule="nonzero" points="78.1192004 64.4779021 72.3975793 63.38841 68.6284614 83.154227 60.2105263 81.5497891 59.1186503 87.2714102 70.3926279 89.4122501 70.3926279 89.4122501 73.2677425 89.927196"></polygon>
                <circle id="Oval" fill="#80DEEA" fill-rule="nonzero" opacity="0.3" cx="218.613607" cy="6.81826518" r="3.33761232"></circle>
                <circle id="Oval" fill="#80DEEA" fill-rule="nonzero" opacity="0.3" cx="184.16468" cy="82.7704016" r="3.33761232"></circle>
                <circle id="Oval" fill="#80DEEA" fill-rule="nonzero" opacity="0.5" cx="3.33761232" cy="20.4071153" r="3.33761232"></circle>
                <circle id="Oval" fill="#80DEEA" fill-rule="nonzero" opacity="0.3" cx="6.67522465" cy="10.1558775" r="3.33761232"></circle>
                <g id="Group" opacity="0.2" transform="translate(11.204841, 6.675225)" fill="#FFFFFF" fill-rule="nonzero">
                    <path d="M26.4148175,24.6959472 L50.2024574,14.62351 C52.9533934,13.448832 54.4364229,10.443293 53.6950303,7.54538786 L65.8534752,2.39354484 L65.6722905,1.96680726 C65.3789773,1.27256297 64.8216849,0.723414783 64.123198,0.440353207 C63.4247112,0.157291632 62.6423433,0.163542894 61.9484687,0.45772969 L49.1582615,5.87419769 C49.8996542,8.77210282 48.4166246,11.7776419 45.6656886,12.9523198 L21.8852008,23.027141 C21.2486311,23.2960076 20.5702713,23.4524901 19.8802494,23.4896387 C21.6241728,25.1565448 24.1906848,25.6303336 26.4148175,24.6959472 Z" id="Path"></path>
                    <path d="M4.7942417,31.3354117 C4.50005491,30.6415372 4.49380364,29.8591693 4.77686522,29.1606824 C5.05992679,28.4621956 5.60907498,27.9049031 6.30331927,27.61159 L17.1624794,23.012837 C16.0039372,22.5216053 15.0278825,21.6805812 14.3708051,20.6073721 L1.77131854,25.9427838 C1.07707425,26.2360969 0.527926061,26.7933894 0.244864485,27.4918762 C-0.0381970902,28.1903631 -0.0319458283,28.972731 0.262240968,29.6666055 L48.0520814,142.50651 C48.3453946,143.200754 48.902687,143.749903 49.6011739,144.032964 C50.2996607,144.316026 51.0820286,144.309775 51.7759032,144.015588 L52.4028975,143.750963 L4.7942417,31.3354117 Z" id="Path"></path>
                </g>
            </g>
        </g>
    </g>
</svg>