<?xml version="1.0" encoding="UTF-8"?>
<svg width="250px" height="180px" viewBox="0 0 250 180" version="1.1" xmlns="http://www.w3.org/2000/svg" xmlns:xlink="http://www.w3.org/1999/xlink">
    <!-- Generator: Sketch 56.3 (81716) - https://sketch.com -->
    <title>undraw_social_influencer_sgsv</title>
    <desc>Created with Sketch.</desc>
    <g id="Page-1" stroke="none" stroke-width="1" fill="none" fill-rule="evenodd">
        <g id="Onboarding-2" transform="translate(-63.000000, -145.000000)">
            <g id="undraw_social_influencer_sgsv" transform="translate(63.000000, 145.000000)">
                <path d="M249.800372,107.785079 C249.800372,139.089725 231.190257,150.020138 208.233519,150.020138 C185.276781,150.020138 166.666667,139.089732 166.666667,107.785079 C166.666667,76.4804256 208.233519,36.655999 208.233519,36.655999 C208.233519,36.655999 249.800372,76.4804434 249.800372,107.785079 Z" id="Path" fill="#F2F2F2" fill-rule="nonzero"></path>
                <polygon id="Path" fill="#3F3D56" fill-rule="nonzero" points="206.719419 145.231397 207.145005 119.032365 224.861876 86.6202854 207.211774 114.922528 207.40316 103.142202 219.613405 79.6924057 207.453619 100.02472 207.453619 100.024975 207.79791 78.8374108 220.873089 60.1684506 207.851937 75.5058614 208.067023 36.6559633 206.715596 88.0861366 206.826707 85.964577 193.533129 65.6167176 206.613405 90.0374618 205.374873 113.699796 205.33792 113.071865 190.012742 91.6585117 205.291539 115.29052 205.136595 118.249745 205.108818 118.294343 205.12156 118.537207 201.979103 178.571101 206.177625 178.571101 206.681448 147.562436 221.922783 123.988277"></polygon>
                <path d="M22.4813099,159.647719 C22.4813099,168.113231 17.4486901,171.069072 11.2406549,171.069072 C5.03261978,171.069072 0,168.113231 0,159.647719 C0,151.182207 11.2406549,140.412729 11.2406549,140.412729 C11.2406549,140.412729 22.4813099,151.182197 22.4813099,159.647719 Z" id="Path" fill="#F2F2F2" fill-rule="nonzero"></path>
                <polygon id="Path" fill="#3F3D56" fill-rule="nonzero" points="10.8312946 169.77421 10.9462283 162.689348 15.7372579 153.924312 10.9643221 161.577727 11.016055 158.392202 14.3180428 152.050714 11.0298165 157.549185 11.0298165 157.549185 11.1228338 151.819572 14.6587666 146.771152 11.1376147 150.918705 11.1957187 140.412844 10.8302752 154.320591 10.8600917 153.746942 7.26529052 148.244393 10.8024975 154.848369 10.4676351 161.247197 10.4576962 161.077472 6.31345566 155.286697 10.4449541 161.67737 10.40316 162.477574 10.3957696 162.489551 10.3990826 162.555301 9.54918451 178.79001 10.6847604 178.79001 10.8208461 170.404434 14.9426606 164.029562"></polygon>
                <path d="M1.58426606,178.819289 L227.88396,178.819289" id="Path" stroke="#3F3D56" stroke-width="0.589622642"></path>
                <path d="M228.004582,171.202357 C228.004582,176.928287 224.6008,178.927571 220.401656,178.927571 C220.304382,178.927571 220.20726,178.926491 220.110293,178.92433 C219.915734,178.920158 219.72303,178.910897 219.532645,178.897926 C215.742999,178.629717 212.798733,176.527599 212.798733,171.202357 C212.798733,165.691361 219.841157,158.737418 220.370155,158.22277 L220.371083,158.221848 C220.39147,158.201929 220.401664,158.192199 220.401664,158.192199 C220.401664,158.192199 228.004582,165.476425 228.004582,171.202357 Z" id="Path" fill="#FFC107" fill-rule="nonzero"></path>
                <path d="M220.124651,178.051611 L222.90539,174.166068 L220.117701,178.478249 L220.110293,178.924337 C219.915734,178.920166 219.72303,178.910905 219.532645,178.897933 L219.832357,173.16922 L219.830038,173.12475 L219.835135,173.116412 L219.863392,172.575364 L217.068746,168.252536 L219.872189,172.169572 L219.87868,172.28445 L220.105191,167.956073 L217.712635,163.489185 L220.134376,167.196371 L220.370155,158.22276 L220.371083,158.192179 L220.371083,158.221827 L220.33171,165.298063 L222.713619,162.492762 L220.321985,165.907661 L220.258986,169.783007 L222.482933,166.063769 L220.249725,170.353239 L220.214518,172.507701 L223.443198,167.331152 L220.202475,173.259518 L220.124651,178.051611 Z" id="Path" fill="#3F3D56" fill-rule="nonzero"></path>
                <rect id="Rectangle" fill="#3F3D56" fill-rule="nonzero" x="144.896585" y="40.5460678" width="2.62789246" height="21.66671" rx="0.584011213"></rect>
                <rect id="Rectangle" fill="#3F3D56" fill-rule="nonzero" x="57.5325484" y="23.5720234" width="1.4748369" height="7.13285168" rx="0.38309633"></rect>
                <rect id="Rectangle" fill="#3F3D56" fill-rule="nonzero" x="57.4789169" y="36.6310449" width="1.66254587" height="12.4154536" rx="0.43185525"></rect>
                <rect id="Rectangle" fill="#3F3D56" fill-rule="nonzero" x="57.5057339" y="53.3905657" width="1.5820999" height="12.5227141" rx="0.410958206"></rect>
                <rect id="Rectangle" fill="#3F3D56" fill-rule="nonzero" x="58.3678695" y="0" width="87.9470744" height="178.739498" rx="9.09631753"></rect>
                <rect id="Rectangle" fill="#E6E8EC" fill-rule="nonzero" x="93.857737" y="5.3376631" width="12.2813787" height="2.49381753" rx="0.647780326"></rect>
                <circle id="Oval" fill="#E6E8EC" fill-rule="nonzero" cx="109.410573" cy="6.58457187" r="1.41450306"></circle>
                <path d="M140.883853,11.6411825 L140.883853,167.099898 C140.883081,170.956996 137.755732,174.082569 133.898634,174.082569 L70.7844648,174.082569 C66.9273671,174.082569 63.8000183,170.956996 63.7992456,167.099898 L63.7992456,11.6411825 C63.7992456,9.78853826 64.5349755,8.01172774 65.8449928,6.70171045 C67.1550101,5.39169316 68.9318206,4.65596328 70.7844648,4.65596328 L80.2289093,4.65596328 L80.2289093,5.86901121 C80.2298208,9.0452561 82.8044483,11.6198836 85.9806932,11.6207951 L118.078043,11.6207951 C121.254662,11.6207867 123.829818,9.04563024 123.829827,5.86901121 L123.829827,4.65596328 L133.898634,4.65596328 C135.751278,4.65596328 137.528089,5.39169316 138.838106,6.70171045 C140.148123,8.01172774 140.883853,9.78853826 140.883853,11.6411825 L140.883853,11.6411825 Z" id="Path" fill="#FFFFFF" fill-rule="nonzero"></path>
                <rect id="Rectangle" fill="#F2F2F2" fill-rule="nonzero" x="63.7100484" y="40.6949261" width="77.2171254" height="88.6850153"></rect>
                <path d="M69.3165724,141.651565 L68.9100459,141.284847 C67.4663914,139.959401 66.5133104,139.099123 66.5133104,138.027482 C66.5060877,137.615546 66.6658985,137.218225 66.9563424,136.926017 C67.2467863,136.633809 67.6431325,136.471595 68.0551045,136.476323 C68.5421697,136.478917 69.0034672,136.695505 69.3165724,137.068606 C69.6296706,136.695496 70.0909725,136.478906 70.5780403,136.476323 C70.9900122,136.471595 71.3863584,136.633809 71.6768023,136.926017 C71.9672462,137.218225 72.127057,137.615546 72.1198344,138.027482 C72.1198344,139.099139 71.1667253,139.959416 69.7230989,141.284847 L69.3165724,141.651565 Z" id="Path" fill="#FF6584" fill-rule="nonzero"></path>
                <path d="M84.0549337,140.295675 L84.8406957,140.520178 C85.1254671,139.694084 85.7990477,139.061388 86.6413336,138.828834 C87.4836196,138.596281 88.3864058,138.793745 89.0546916,139.356702 L87.8548089,140.520178 L90.8507314,140.520178 L90.8507314,137.607709 L89.6432645,138.765117 C88.7664822,137.996086 87.5621208,137.718732 86.4372896,138.026808 C85.3124584,138.334885 84.4175028,139.187215 84.0549337,140.295686 L84.0549337,140.295675 Z" id="Path" fill="#F2F2F2" fill-rule="nonzero"></path>
                <circle id="Oval" fill="#FFC107" fill-rule="nonzero" cx="68.8068884" cy="30.5012462" r="3.56778797"></circle>
                <rect id="Rectangle" fill="#FFC107" fill-rule="nonzero" x="75.1779383" y="28.4625102" width="33.1294597" height="4.07747197"></rect>
                <rect id="Rectangle" fill="#F2F2F2" fill-rule="nonzero" x="66.5133104" y="147.728565" width="33.1294597" height="4.07747197"></rect>
                <rect id="Rectangle" fill="#F2F2F2" fill-rule="nonzero" x="66.5133104" y="156.617487" width="70.0815494" height="4.07747197"></rect>
                <path d="M80.7844623,141.393677 L79.9065698,139.857357 C80.3405947,138.815118 79.9413407,137.612367 78.9702079,137.036571 C77.9990751,136.460775 76.7522429,136.687543 76.0460393,137.568404 C75.3398357,138.449265 75.3896411,139.715572 76.1628467,140.538246 C76.9360523,141.36092 78.1968435,141.48906 79.1197528,140.838769 L80.7844623,141.393677 Z" id="Path" fill="#F2F2F2" fill-rule="nonzero"></path>
                <path d="M95.7851555,61.4941004 L95.7851198,61.4941004 C93.136483,62.036118 90.8116431,63.6081028 89.3220384,65.8642362 C87.8324337,68.1203696 87.3000848,70.8758408 87.8421024,73.5244776 L89.9458996,83.8049363 L92.3014883,83.3228874 L92.4677064,82.2334378 L92.9609021,83.1879536 L107.28156,80.25737 L107.447778,79.1679205 L107.940973,80.1224363 L109.919327,79.7175841 L107.815533,69.4371254 C107.273517,66.7884872 105.701533,64.4636454 103.445399,62.9740391 C101.189266,61.4844328 98.4337933,60.9520829 95.7851555,61.4941004 L95.7851555,61.4941004 Z" id="Path" fill="#2F2E41" fill-rule="nonzero"></path>
                <polygon id="Path" fill="#9F616A" fill-rule="nonzero" points="113.5316 93.0344037 125.764016 100.424822 124.234964 103.99261 112.767074 98.6409276"></polygon>
                <path d="M97.9862971,101.444195 C97.9862971,101.444195 73.2666233,101.444195 69.1891514,107.815245 C65.1116794,114.186295 68.4246254,123.105765 81.1667253,125.144501 C93.9088252,127.183236 132.644809,128.202604 135.702913,120.557345 C138.761017,112.912085 136.467439,108.579771 136.467439,108.579771 C136.467439,108.579771 123.215655,99.4054587 97.9862971,101.444195 Z" id="Path" fill="#FFC107" fill-rule="nonzero"></path>
                <path d="M119.902709,107.560403 L133.409335,112.657243 C133.409335,112.657243 139.015859,108.579771 136.212597,103.992615 C133.409335,99.4054587 120.667235,72.9018909 120.667235,72.9018909 C120.667235,72.9018909 117.099447,67.805051 121.686603,65.001789 C126.273759,62.198527 128.057653,66.785683 128.057653,66.785683 C128.057653,66.785683 127.802811,67.805051 129.586705,67.040525 C131.370599,66.275999 134.683545,68.824419 132.899651,72.9018909 C131.115757,76.9793629 129.841547,77.9987309 133.664177,77.7438889 C135.044569,77.6518629 136.258805,76.6625943 137.246881,75.4360601 C139.140729,73.085186 138.295242,71.1916794 138.15197,68.1762615 C137.906539,63.0107034 137.505217,59.6426223 136.212597,57.611371 C134.428703,54.8081091 131.880283,52.5145311 125.254391,53.7887411 C118.628499,55.0629511 108.944503,61.434001 111.238081,70.6083129 C113.531659,79.7826249 118.628499,89.9763048 118.628499,89.9763048 C118.628499,89.9763048 122.196287,104.247457 119.902709,107.560403 Z" id="Path" fill="#FFC107" fill-rule="nonzero"></path>
                <path d="M119.902709,107.560403 C117.700874,108.166927 114.935838,108.462543 111.959302,108.554286 C106.765591,108.714837 100.919531,108.256121 96.2508078,107.736244 C91.2075051,107.173043 87.5377752,106.541035 87.5377752,106.541035 C89.2426529,104.950821 91.8624439,104.321361 94.940948,104.092003 C98.763578,103.806565 103.294669,104.132778 107.670306,103.992615 C109.28338,103.936168 110.897764,104.057524 112.484271,104.35449 C117.310991,105.274462 119.902709,107.560403 119.902709,107.560403 Z" id="Path" fill="#000000" fill-rule="nonzero" opacity="0.1"></path>
                <circle id="Oval" fill="#9F616A" fill-rule="nonzero" cx="97.8588761" cy="73.0293119" r="7.13557594"></circle>
                <path d="M96.9669292,78.7632569 C96.9669292,78.7632569 98.2411391,83.6052548 96.9669292,83.8600968 C95.6927192,84.1149388 92.6346152,85.3891488 92.6346152,85.3891488 L96.4572452,86.9182008 L103.592821,93.5440928 L109.709029,96.6021967 L112.767133,95.5828287 L112.767133,89.9763048 L108.179977,82.8407288 C108.179977,82.8407288 105.121873,83.8600968 104.357347,80.5471509 C103.592821,77.2342049 102.063769,75.9599949 102.063769,75.9599949 L96.9669292,78.7632569 Z" id="Path" fill="#9F616A" fill-rule="nonzero"></path>
                <path d="M95.1830352,85.6439908 L92.1249312,85.6439908 C92.1249312,85.6439908 86.7732492,87.4278848 83.7151453,91.5053568 C80.6570413,95.5828287 75.8150433,99.6603007 75.8150433,99.6603007 C75.8150433,99.6603007 72.5020973,104.247457 74.2859913,110.618507 C76.0698853,116.989557 78.6183053,121.576713 80.9118833,120.302503 C83.2054613,119.028293 77.5989373,109.853981 77.5989373,109.853981 L79.1279893,104.247457 C79.1279893,104.247457 87.0280912,95.0731448 90.3410372,95.3279867 C93.6539832,95.5828287 93.9088252,98.3860907 93.9088252,98.3860907 L101.044401,100.424827 L103.337979,95.5828287 L102.063769,90.4859888 L95.1830352,85.6439908 Z" id="Path" fill="#9F616A" fill-rule="nonzero"></path>
                <path d="M113.531659,101.699037 C113.049751,102.525886 112.696569,103.421302 112.484258,104.35449 C112.166129,105.73279 111.990222,107.140087 111.959299,108.554286 C106.765589,108.714837 100.919529,108.256121 96.2508053,107.736244 C95.8379944,106.635326 95.384368,105.368761 94.9409455,104.092003 C93.7457187,100.641442 92.6346254,97.119526 92.6346254,96.6021967 C92.6346254,95.5828287 97.9863073,97.3667227 99.2605173,97.1118807 C100.534727,96.8570387 101.044411,92.7795668 99.2605173,90.7408308 C97.4766233,88.7020948 92.2523624,85.2617278 92.2523624,85.2617278 L94.0362564,84.7520438 C94.0362564,84.7520438 97.9863073,87.6827268 106.141251,92.5247248 C114.296195,97.3667227 110.983249,89.7214628 110.983249,89.7214628 L106.268672,82.4584659 L108.307408,82.4584659 C108.307408,82.4584659 112.257459,89.2117788 114.296195,92.2698828 C116.334931,95.3279867 115.570395,98.3860907 113.531659,101.699037 Z" id="Path" fill="#3F3D56" fill-rule="nonzero"></path>
                <polygon id="Rectangle" fill="#2F2E41" fill-rule="nonzero" transform="translate(97.257795, 68.690410) rotate(-11.565350) translate(-97.257795, -68.690410) " points="90.661884 64.6429185 103.853706 64.6429185 103.853706 72.7379007 90.661884 72.7379007"></polygon>
                <circle id="Oval" fill="#3F3D56" fill-rule="nonzero" cx="130.733494" cy="60.542054" r="3.82262997"></circle>
                <circle id="Oval" fill="#FFFFFF" fill-rule="nonzero" cx="130.733494" cy="60.542054" r="2.03873598"></circle>
                <path d="M18.5361239,104.666626 L18.2756626,106.677676 C18.1874873,107.358489 18.0992635,108.039786 18.0517864,108.724641 C17.8938507,111.002834 18.1882773,113.290186 18.1107875,115.572531 C18.0511239,117.329768 17.7711646,119.085655 17.9064042,120.838698 C18.0260168,122.38922 18.4673522,123.894508 18.9061672,125.386437 L19.5333919,127.51894 C19.5437909,127.64811 19.6138307,127.765043 19.7228053,127.835168 C19.8317798,127.905294 19.9672228,127.920591 20.0890928,127.876537 L22.8647655,127.624946 C22.6870056,126.809962 22.4893068,125.960423 22.3937742,125.131758 C22.3182187,124.476399 22.2728186,123.817994 22.2254332,123.16 C22.0777217,121.108927 21.9104969,119.059317 21.7432722,117.009743 L21.4495082,113.409218 C21.3220872,111.847401 21.1931371,110.276417 20.7999312,108.759546 C20.4080923,107.223963 19.6286124,105.814678 18.5361239,104.666626 L18.5361239,104.666626 Z" id="Path" fill="#FFC107" fill-rule="nonzero"></path>
                <path d="M18.5361239,104.666626 L18.2756626,106.677676 C18.1874873,107.358489 18.0992635,108.039786 18.0517864,108.724641 C17.8938507,111.002834 18.1882773,113.290186 18.1107875,115.572531 C18.0511239,117.329768 17.7711646,119.085655 17.9064042,120.838698 C18.0260168,122.38922 18.4673522,123.894508 18.9061672,125.386437 L19.5333919,127.51894 C19.5437909,127.64811 19.6138307,127.765043 19.7228053,127.835168 C19.8317798,127.905294 19.9672228,127.920591 20.0890928,127.876537 L22.8647655,127.624946 C22.6870056,126.809962 22.4893068,125.960423 22.3937742,125.131758 C22.3182187,124.476399 22.2728186,123.817994 22.2254332,123.16 C22.0777217,121.108927 21.9104969,119.059317 21.7432722,117.009743 L21.4495082,113.409218 C21.3220872,111.847401 21.1931371,110.276417 20.7999312,108.759546 C20.4080923,107.223963 19.6286124,105.814678 18.5361239,104.666626 L18.5361239,104.666626 Z" id="Path" fill="#000000" fill-rule="nonzero" opacity="0.1"></path>
                <path d="M23.4809404,173.62394 C23.3174998,173.944174 23.1752538,174.27479 23.0551198,174.613657 C22.7364322,175.54921 22.6882696,176.551985 22.6429281,177.539297 C22.621171,177.729817 22.6388507,177.922777 22.6948675,178.106172 C22.831078,178.461063 23.223764,178.640882 23.5908537,178.739602 C25.1281779,179.153025 26.7491437,178.763912 28.3347554,178.622067 C29.8910754,178.482841 31.4764475,178.58354 33.0008028,178.240283 C33.2260903,178.197796 33.4438412,178.12217 33.6469648,178.015866 C34.0333953,177.764641 34.3216729,177.388162 34.4634353,176.94959 C34.5098029,176.83742 34.5409865,176.719562 34.5561595,176.599139 C34.6064883,176.079692 34.1537385,175.628341 33.660581,175.457599 C33.1674235,175.286858 32.6312258,175.315064 32.1120795,175.261718 C29.9165121,175.036107 28.1453688,173.365535 27.7919368,171.186888 C27.7735372,171.073484 25.2249363,171.140398 24.9566896,171.287551 C24.642709,171.459804 24.4526733,171.889796 24.2757926,172.18028 C23.9899975,172.649628 23.7250467,173.130848 23.4809404,173.62394 Z" id="Path" fill="#3F3D56" fill-rule="nonzero"></path>
                <path d="M23.4809404,173.62394 C23.3174998,173.944174 23.1752538,174.27479 23.0551198,174.613657 C22.7364322,175.54921 22.6882696,176.551985 22.6429281,177.539297 C22.621171,177.729817 22.6388507,177.922777 22.6948675,178.106172 C22.831078,178.461063 23.223764,178.640882 23.5908537,178.739602 C25.1281779,179.153025 26.7491437,178.763912 28.3347554,178.622067 C29.8910754,178.482841 31.4764475,178.58354 33.0008028,178.240283 C33.2260903,178.197796 33.4438412,178.12217 33.6469648,178.015866 C34.0333953,177.764641 34.3216729,177.388162 34.4634353,176.94959 C34.5098029,176.83742 34.5409865,176.719562 34.5561595,176.599139 C34.6064883,176.079692 34.1537385,175.628341 33.660581,175.457599 C33.1674235,175.286858 32.6312258,175.315064 32.1120795,175.261718 C29.9165121,175.036107 28.1453688,173.365535 27.7919368,171.186888 C27.7735372,171.073484 25.2249363,171.140398 24.9566896,171.287551 C24.642709,171.459804 24.4526733,171.889796 24.2757926,172.18028 C23.9899975,172.649628 23.7250467,173.130848 23.4809404,173.62394 Z" id="Path" fill="#000000" fill-rule="nonzero" opacity="0.1"></path>
                <path d="M27.7065928,173.865482 C27.5431532,174.185716 27.4009073,174.516333 27.2807722,174.855199 C26.9620872,175.790754 26.913922,176.793527 26.8685805,177.780838 C26.8468231,177.971359 26.8645029,178.164319 26.9205199,178.347714 C27.0567304,178.702607 27.4494164,178.882424 27.8165061,178.981144 C29.3538303,179.394567 30.9747961,179.005456 32.5604077,178.863609 C34.1167278,178.724383 35.7020999,178.825084 37.2264551,178.481825 C37.4517433,178.43934 37.6694945,178.363714 37.8726172,178.257408 C38.2590475,178.006184 38.5473251,177.629706 38.6890877,177.191134 C38.7354577,177.078964 38.7666413,176.961105 38.7818119,176.84068 C38.8321407,176.321236 38.3793909,175.869885 37.8862334,175.699144 C37.3930759,175.528402 36.8568782,175.556608 36.3377319,175.503262 C34.1421633,175.277652 32.3710193,173.607078 32.0175892,171.42843 C31.9991896,171.315025 29.4505887,171.381942 29.182342,171.529093 C28.8683614,171.701348 28.6783257,172.13134 28.501445,172.421822 C28.2156498,172.89117 27.9506991,173.37239 27.7065928,173.865482 Z" id="Path" fill="#3F3D56" fill-rule="nonzero"></path>
                <path d="M38.7281244,148.708881 C38.760976,153.826618 37.2726223,158.828851 35.5269495,163.639521 C34.835818,165.543884 34.1024346,167.431655 33.3267992,169.302834 C32.8675994,170.411832 32.3502013,171.64197 32.8422554,172.736881 C31.4261952,172.19789 29.9763201,171.879544 28.4813736,172.128389 C29.0504358,170.96868 28.9969037,169.618349 29.0222579,168.327166 C29.071683,166.573993 29.2603976,164.827523 29.5866182,163.104258 C30.0874012,160.482158 30.9465316,157.941417 32.1398471,155.553491 C32.3817814,155.050003 32.5485154,154.513734 32.6347197,153.961827 C32.7896625,152.734448 32.7183713,151.489065 32.4243782,150.287385 C31.8788898,147.625342 30.8433927,145.087868 29.3706371,142.804225 C29.365948,142.854939 29.3612615,142.906583 29.3556218,142.957288 C29.2665511,143.718362 29.1383565,144.474346 28.9715469,145.222238 C28.6372579,146.807327 28.2475561,148.393356 28.3057875,149.986893 C28.3684547,151.677088 28.2637088,153.369337 27.993081,155.038902 C27.9071394,155.694872 27.7363749,156.336905 27.4850714,156.948894 C27.3216692,157.31512 27.1085194,157.659743 26.9798598,158.039108 C26.8522352,158.477687 26.7855651,158.931742 26.7817253,159.388496 C26.5911035,163.242291 26.778922,168.173665 27.5667559,171.951409 C26.2391088,171.890309 24.9197857,172.190847 23.7495923,172.820948 C22.7974006,170.134376 22.1907875,166.318565 21.7372375,163.489256 C21.2236331,160.146929 21.3280284,156.738707 22.0452319,153.43408 C22.2683059,152.331468 22.3519138,151.205191 22.2940902,150.081728 C22.1926631,147.844014 21.6423955,145.655122 21.0958818,143.48314 C20.8179341,142.380708 20.5399762,141.277968 20.2620082,140.174918 C19.8666803,138.603916 19.4707238,137.032599 19.0741386,135.460968 C18.8112054,134.415828 18.5454638,133.348142 18.6280989,132.272954 C18.686166,131.6835 18.809946,131.102384 18.997133,130.540433 C19.5886908,128.628087 20.4731208,126.819 21.6189195,125.177612 C26.181682,125.433968 30.7998573,125.006707 35.3560372,124.656445 C35.5775799,124.612613 35.8075052,124.651714 36.002105,124.766315 C36.1567815,124.924065 36.2488851,125.132634 36.2612793,125.353216 C36.8322103,128.586312 37.4028296,131.819407 37.9731371,135.052503 C38.2508662,136.402611 38.4138981,137.773791 38.4604893,139.151381 C38.4689501,140.524248 38.2463863,141.892421 38.2980403,143.264348 C38.3675255,145.112373 38.7168451,146.859913 38.7281244,148.708881 Z" id="Path" fill="#2F2E41" fill-rule="nonzero"></path>
                <path d="M29.3556218,142.957288 C29.2665511,143.718362 29.1383565,144.474346 28.9715469,145.222238 C27.9789934,143.505686 26.9094317,141.832329 25.9957569,140.072579 C25.7600586,139.619024 25.5356397,139.159834 25.3102574,138.701585 C25.0858384,138.243337 24.8614076,137.78509 24.6369648,137.326845 C24.5111264,137.069544 24.3843705,136.8113 24.270739,136.547441 C24.0851297,136.167355 23.9427607,135.76764 23.8463048,135.3558 C24.1787156,135.294766 24.997551,136.190601 25.243578,136.424422 C25.7482512,136.922076 26.2247672,137.4475 26.6709047,137.998242 C27.2107081,138.609128 27.7062131,139.25777 28.1536417,139.939223 C28.7254509,140.86835 29.1321141,141.889446 29.3556218,142.957288 L29.3556218,142.957288 Z" id="Path" fill="#000000" fill-rule="nonzero" opacity="0.1"></path>
                <path d="M33.1577676,95.8497146 C33.1577676,95.8497146 30.6223777,99.8875612 31.0918935,100.732691 C31.5614093,101.577821 23.1101045,99.9814628 23.1101045,99.9814628 C23.1101045,99.9814628 27.711371,95.9436188 27.2418578,94.2533563 C26.7723445,92.5630938 33.1577676,95.8497146 33.1577676,95.8497146 Z" id="Path" fill="#EFB7B9" fill-rule="nonzero"></path>
                <circle id="Oval" fill="#EFB7B9" fill-rule="nonzero" cx="30.9040877" cy="91.3423496" r="5.72810652"></circle>
                <path d="M33.2426656,100.083647 C32.629563,99.2305002 31.7972344,98.5589576 30.8337538,98.140079 C30.2791278,97.9415662 29.7057232,97.8000654 29.1224185,97.7177676 L26.8370999,97.3160041 C26.276998,97.2175382 25.6775484,97.1233435 25.157946,97.3544648 C24.8923552,97.4885452 24.6505637,97.665295 24.4422069,97.8776707 C23.6478644,98.6132238 22.8781244,99.4222681 21.8822503,99.8468349 C21.6095973,99.9630708 21.3244521,100.04816 21.0522299,100.165387 C19.9379664,100.645196 19.1048675,101.646998 18.6315189,102.764011 C18.1349465,103.935831 18.1205607,105.206002 18.1597604,106.478078 C18.158521,106.917052 18.2016824,107.355026 18.2885856,107.785313 C18.4038833,108.194812 18.5487517,108.595401 18.7220489,108.983925 C19.0376513,109.813726 19.3019652,110.662137 19.5134964,111.52436 C20.1055471,113.790742 20.5977582,116.080118 20.99013,118.39249 C21.0243336,118.72491 21.1220967,119.04766 21.2781014,119.343186 C21.4986266,119.637282 21.7654613,119.893602 22.0681804,120.102133 C22.3078874,120.300723 22.5294537,120.520243 22.7302599,120.758096 C22.8282358,120.859633 22.9000419,120.983479 22.9394852,121.118953 C23.0136239,121.460821 22.7114908,121.753728 22.4662717,122.003203 C21.9568643,122.522879 21.5886466,123.164064 21.3965367,123.865956 C21.2768451,124.009893 21.2161268,124.19383 21.2266055,124.380736 C21.2756631,124.510174 21.2939327,124.649251 21.2799694,124.786967 C21.2329362,124.912691 21.1594842,125.026864 21.0645693,125.121784 C20.8435819,125.409543 20.757009,125.778436 20.8269113,126.134462 C22.6024465,126.905902 24.5025841,127.350718 26.4360449,127.447541 C26.9095056,127.469602 27.3848216,127.469794 27.8552599,127.527768 C28.1907594,127.569116 28.5221993,127.639689 28.8579562,127.678874 C29.3463986,127.72466 29.8373886,127.737188 30.3275306,127.716374 C32.8770846,127.665861 35.5014424,127.599837 37.8425994,126.589011 C38.0631473,125.388257 37.5880122,124.16475 37.2899898,122.980846 C36.8160015,121.097989 36.6965749,119.145257 36.3439195,117.235943 C36.102551,115.929149 35.7519674,114.643117 35.5509531,113.329508 C35.3499388,112.0159 35.302788,110.653973 35.6639169,109.375084 C35.9839297,108.241802 36.0805275,107.087982 36.4122222,105.958071 C36.7439169,104.82816 36.9763685,103.60316 36.601919,102.48669 C36.1376096,101.102375 34.7008078,100.007197 33.2426656,100.083647 Z" id="Path" fill="#FFC107" fill-rule="nonzero"></path>
                <path d="M36.0557238,88.3057212 C36.3342661,87.2885678 35.7864934,86.2298675 35.131134,85.4036162 C34.4269776,84.515841 33.5171534,83.7148038 32.4061799,83.4918374 C31.5033231,83.3106448 30.5677931,83.5293909 29.6498089,83.4565826 C28.8361366,83.3920489 28.0564806,83.1002701 27.246998,82.9955734 C26.5147606,82.916947 25.774988,82.9450061 25.0508104,83.0788736 C24.362391,83.1792975 23.6896109,83.3672083 23.0487895,83.6380479 C20.6104256,84.7184506 19.1817049,87.386789 18.8501937,90.033104 C18.5186825,92.679419 19.0999924,95.3455403 19.6778568,97.9491871 L20.2002115,100.302719 C20.7438965,102.752362 21.2894062,105.214776 21.4348751,107.719806 C21.580344,110.224837 21.3089169,112.796473 20.2784378,115.084365 C23.6101935,113.294754 26.1916508,110.372073 27.5560423,106.844788 C27.9265826,105.876055 28.2008843,104.870943 28.6113124,103.918423 C28.9644292,103.098907 29.4164959,102.322709 29.7294903,101.487046 C30.0824695,100.542971 30.2519572,99.5401839 30.2288507,98.5325433 C30.2110474,97.7752778 30.0843247,97.0215698 30.1064118,96.2644164 C30.128499,95.507263 30.3210754,94.7170923 30.8444929,94.1695489 C31.3097554,93.6828389 31.9708665,93.4489934 32.5704205,93.1425765 C33.513276,92.6584244 34.3369582,91.9710967 34.9820821,91.1301478 C35.3595846,90.6382849 35.3796942,90.428239 35.475711,89.8608716 C35.5691055,89.3089195 35.909052,88.8413175 36.0557238,88.3057212 Z" id="Path" fill="#2F2E41" fill-rule="nonzero"></path>
                <path d="M36.0636442,131.337989 C36.1216743,131.926893 36.0146993,132.530512 36.1434888,133.108086 C36.2402829,133.542161 36.4651937,133.936606 36.5974261,134.361228 C36.7287549,134.853301 36.7963043,135.360211 36.7984149,135.869503 C36.817528,136.296603 36.7847528,136.815905 36.4069903,137.016088 C36.2410882,137.104009 36.0420566,137.105675 35.8693833,137.179427 C35.69671,137.253178 35.5485372,137.46252 35.6474159,137.622138 C35.7305759,137.756358 35.9192992,137.757969 36.0739704,137.789709 C36.2286417,137.82145 36.398843,137.981715 36.3090826,138.111616 C36.2730248,138.154061 36.2249949,138.184634 36.1712768,138.199335 C36.0131329,138.246911 35.8634081,138.318941 35.7275357,138.412811 C35.5902031,138.510666 35.5195894,138.677451 35.5449057,138.844169 C35.5637291,138.92392 35.6182188,138.990565 35.6926395,139.024859 C35.7670603,139.059153 35.8531253,139.057277 35.9259811,139.019773 C35.8566746,139.167791 35.81882,139.328574 35.8148089,139.491965 C36.4192457,139.751865 37.0996381,139.412059 37.6685015,139.081476 C37.9151898,138.944705 38.1533571,138.793101 38.3816922,138.627497 C39.3117341,137.909324 39.8263712,136.77764 39.7563303,135.604676 C39.7299671,135.313919 39.6853798,135.025103 39.6228313,134.739931 C39.5346337,134.244025 39.4182102,133.753556 39.2741284,133.270915 C39.1115214,132.761817 38.8880097,132.27462 38.6963048,131.775757 C38.2878262,130.712778 38.0248649,129.599862 37.6570591,128.52213 C37.6463977,128.418031 37.5928293,128.323087 37.5092391,128.260135 C37.425649,128.197183 37.3196025,128.171921 37.2166081,128.190426 C36.8021392,128.16885 36.3867234,128.207082 35.9831549,128.303945 C35.7392712,128.375145 35.3392227,128.531832 35.2299057,128.787273 C35.1314093,129.017434 35.2964985,129.223532 35.4012334,129.42068 C35.744219,130.010809 35.9691967,130.661993 36.0636442,131.337989 Z" id="Path" fill="#EFB7B9" fill-rule="nonzero"></path>
                <path d="M35.676129,102.56103 C35.7983653,102.685309 35.9007131,102.827688 35.9795668,102.983152 C36.7934225,104.462304 36.8037462,106.232813 36.841998,107.920647 C36.8850663,109.820589 36.9890418,111.718558 37.0930173,113.616142 L37.4039551,119.291101 C37.4336621,119.833272 37.4634429,120.376239 37.5394827,120.913874 C37.9052574,121.006172 37.9203823,121.478779 37.878002,121.853631 C37.616157,124.169526 36.9646483,126.553555 37.6469597,128.782095 C37.673027,128.896911 37.7279327,129.003187 37.8064908,129.090884 C37.4626044,128.982347 37.0943883,128.97736 36.7476886,129.076544 C36.4075815,129.148239 36.0805683,129.272635 35.741659,129.349788 C35.3104205,129.447961 34.8215469,129.490099 34.5273216,129.820303 C34.1948762,128.818866 33.9301447,127.796207 33.7349185,126.759248 C33.5733869,125.816881 33.5294164,124.837051 33.1454689,123.961419 C32.9904205,123.607821 32.7832824,123.280031 32.5942661,122.943364 C31.599842,121.172153 31.1129766,119.168756 30.6371356,117.194006 C30.4235009,116.257638 30.3722875,115.291533 30.4857288,114.337826 C30.5533103,113.902682 30.5929929,113.46366 30.6045336,113.023451 C30.5742395,112.559026 30.5133805,112.097101 30.4223522,111.640678 C30.2214685,110.301903 30.3155627,108.935402 30.6980505,107.636797 C31.0543909,106.43081 31.3668349,105.16208 32.112054,104.149149 C32.8572732,103.136218 34.4187156,102.578119 35.676129,102.56103 Z" id="Path" fill="#000000" fill-rule="nonzero" opacity="0.1"></path>
                <path d="M35.9578389,102.373221 C36.0800747,102.497501 36.1824225,102.63988 36.2612768,102.795344 C37.0751325,104.274495 37.0854562,106.045008 37.123708,107.732841 C37.1667762,109.63278 37.2707518,111.530752 37.3747273,113.428333 L37.6856651,119.103293 C37.7153721,119.645466 37.7451529,120.188433 37.8211927,120.726068 C38.1869674,120.818366 38.2020923,121.290973 38.159712,121.665826 C37.897867,123.981718 37.2463583,126.365747 37.9286723,128.594286 C37.9547372,128.709103 38.0096432,128.81538 38.0882034,128.903076 C37.7443167,128.794539 37.3761006,128.789553 37.0294011,128.888739 C36.6892941,128.960431 36.3622808,129.084829 36.0233716,129.161983 C35.592133,129.260153 35.1032594,129.302291 34.8090341,129.632497 C34.4765887,128.631059 34.2118572,127.6084 34.016631,126.57144 C33.8550994,125.629075 33.811129,124.649243 33.4271814,123.773614 C33.272133,123.420015 33.0649949,123.092225 32.8759786,122.755558 C31.8815545,120.984345 31.3946891,118.980951 30.9188481,117.0062 C30.7052135,116.069831 30.654,115.103725 30.7674414,114.150018 C30.8350242,113.714874 30.8747068,113.275852 30.8862462,112.835642 C30.8559519,112.371217 30.795093,111.909293 30.7040647,111.45287 C30.5031822,110.114095 30.5972764,108.747594 30.979763,107.448988 C31.336106,106.243002 31.6485474,104.974271 32.3937666,103.96134 C33.1389857,102.94841 34.7004256,102.390311 35.9578389,102.373221 Z" id="Path" fill="#FFC107" fill-rule="nonzero"></path>
                <g id="Group" opacity="0.1" transform="translate(20.132518, 82.823649)" fill="#000000" fill-rule="nonzero">
                    <path d="M14.9986213,2.57996687 C14.2944597,1.69219419 13.384633,0.891154434 12.273657,0.668190622 C11.3708002,0.486997961 10.4352727,0.705744139 9.51730632,0.632938328 C8.7036315,0.568402141 7.92397554,0.276620795 7.11449541,0.171929154 C6.38225895,0.0932999214 5.64248686,0.121359108 4.9183104,0.255229358 C4.22988502,0.355650772 3.55709883,0.543560744 2.91627166,0.814401121 C2.56999642,0.968584294 2.23951522,1.15603587 1.92948267,1.3741157 C2.50076495,1.15787474 3.09347033,1.00314656 3.69755352,0.912553517 C4.42172998,0.778683267 5.16150207,0.75062408 5.89373853,0.829253313 C6.70321865,0.933947503 7.48287462,1.22572885 8.29654944,1.29026249 C9.2145158,1.3630683 10.1500433,1.14431193 11.0529001,1.32551478 C12.1638761,1.54847859 13.0737029,2.34951835 13.7778644,3.23728848 C14.4332161,4.0635474 14.9810015,5.12224771 14.7024541,6.13939857 C14.5557747,6.6749949 14.2158333,7.14259174 14.1224337,7.69454893 C14.0264195,8.26191131 14.006315,8.47196228 13.6288201,8.96382008 C13.1429436,9.5963991 12.5552156,10.1437405 11.8897044,10.5834302 C12.0733639,10.4959582 12.2583716,10.4106753 12.4379027,10.3189271 C13.3807543,9.83476804 14.2044353,9.14744053 14.8495642,8.30649592 C15.2270591,7.81465087 15.2471636,7.60458716 15.3431779,7.03722477 C15.4365749,6.48526758 15.7765163,6.01767074 15.9231983,5.48207696 C16.2017584,4.46492355 15.653973,3.40622324 14.9986213,2.57996687 Z" id="Path"></path>
                    <path d="M10.7119852,11.345897 C10.810427,11.2440443 10.9175924,11.1510008 11.0322554,11.0678313 C10.4849057,11.3328007 9.90912844,11.5660754 9.49124108,12.0032212 C8.9678262,12.5507645 8.77524975,13.3409378 8.75314985,14.0980912 C8.73104995,14.8552446 8.85778287,15.6089526 8.87559633,16.3662156 C8.89870491,17.3738559 8.72921536,18.3766425 8.37623089,19.3207161 C8.06324924,20.1563838 7.61117992,20.9325765 7.25805556,21.7520948 C6.84764016,22.7046126 6.57333588,23.7097248 6.20278797,24.6784455 C5.01922831,27.7358771 2.91744572,30.351503 0.186529052,32.1655581 C0.172635066,32.1971432 0.160119776,32.2292278 0.145927625,32.2607034 C3.4776877,30.4710967 6.05914659,27.5484131 7.42353211,24.0211239 C7.79407238,23.0523879 8.0683843,22.0472783 8.47879969,21.0947579 C8.83192406,20.2752396 9.28399337,19.4990469 9.59697503,18.6633792 C9.94995968,17.7193056 10.1194492,16.7165191 10.0963405,15.7088787 C10.078527,14.9516157 9.95181702,14.1979077 9.97389399,13.4407543 C9.99597095,12.6836009 10.1885703,11.8934404 10.7119852,11.345897 Z" id="Path"></path>
                </g>
                <path d="M156.642556,178.360494 C156.369898,178.689613 155.903005,178.755838 155.480581,178.799279 C154.934821,178.878409 154.381307,178.888981 153.832923,178.830749 C153.181404,178.733764 152.791129,179.104177 152.195887,178.819281 C151.835902,178.646985 151.281662,178.991575 150.921677,178.819281 C150.428186,178.583086 148.723978,178.5342 148.42355,178.073216 C148.123122,177.612232 148.153672,176.883919 148.628744,176.611845 C148.763446,176.547848 148.902499,176.493442 149.044865,176.449032 C149.840227,176.132518 151.451381,173.744865 152.297525,173.622599 C152.717364,173.603089 153.134298,173.701332 153.501256,173.906239 C154.335558,174.27659 155.808851,174.569121 156.17287,175.509093 C156.45646,176.241397 157.232462,177.644707 156.642556,178.360494 Z" id="Path" fill="#2F2E41" fill-rule="nonzero"></path>
                <path d="M162.636318,178.171555 C162.908973,178.500673 163.375869,178.566899 163.79829,178.610336 C164.344051,178.689468 164.897566,178.70004 165.445951,178.641807 C166.097469,178.544824 166.89118,179.104177 167.486407,178.819292 C167.846391,178.646995 168.400632,178.736743 168.760617,178.56445 C169.254108,178.328254 171.574264,178.854954 171.874692,178.39396 C172.17512,177.932966 172.144569,177.204664 171.669495,176.932587 C171.534794,176.868589 171.395742,176.814184 171.253377,176.769776 C170.458015,176.453262 167.827492,173.555925 166.981346,173.43366 C166.561507,173.414146 166.144574,173.51239 165.777617,173.717299 C164.943313,174.087648 163.470023,174.380181 163.106004,175.32015 C162.822413,176.052454 162.046409,177.455767 162.636318,178.171555 Z" id="Path" fill="#2F2E41" fill-rule="nonzero"></path>
                <path d="M165.27143,126.133907 C165.532183,126.634875 165.759933,127.152341 165.953226,127.682999 C168.266664,133.803119 168.460362,140.491055 168.55591,147.033129 C168.547949,148.096834 168.608695,149.159943 168.73777,150.215818 C168.83472,150.885347 168.987808,151.56213 168.889042,152.231391 C168.803644,152.810074 168.531374,153.380813 168.639959,153.955594 C168.688667,154.213425 168.81225,154.4525 168.860841,154.710352 C168.898472,154.993027 168.890705,155.2799 168.837834,155.560125 L168.527691,157.86788 C168.351012,159.182505 167.943247,160.448682 167.965443,161.774941 C167.980584,162.679597 167.995823,163.585874 168.09656,164.485031 C168.198846,165.398012 168.389233,166.303983 168.398991,167.222625 C168.406302,167.910573 168.31209,168.594931 168.251264,169.280219 C168.165375,170.247979 168.145894,171.220487 168.192959,172.19091 C168.229241,172.938598 168.315005,173.715051 168.711501,174.34999 C168.267248,174.987095 167.827454,175.55787 167.116129,175.869778 C165.670714,176.50357 164.012232,176.288573 162.450341,176.061799 C162.536893,175.773512 162.670846,175.446932 162.545966,175.173061 C162.472431,175.040506 162.382299,174.917865 162.27775,174.808104 C161.93684,174.323203 161.700191,173.772874 161.58275,173.191878 C161.393708,172.502885 161.204416,171.761223 161.592689,171.099967 C161.726455,170.864523 161.785488,170.593978 161.761957,170.324213 C161.438588,165.985698 160.473336,161.49696 161.362253,157.239095 C161.457136,156.784618 161.570158,156.33277 161.623178,155.871529 C161.670974,155.208068 161.678914,154.542337 161.646955,153.877926 L161.628397,152.953033 C161.58211,151.966119 161.622161,150.954674 161.42422,149.978481 C161.282462,149.279355 161.017747,148.576891 161.344014,147.864511 C161.488281,147.533407 161.470415,147.154049 161.295668,146.837969 C160.609543,145.635932 160.057702,144.362079 159.650097,143.039386 C159.565489,142.669739 159.449582,142.307961 159.303631,141.957966 C159.104591,141.589164 158.875827,141.237195 158.619613,140.905553 C157.845657,139.783145 157.382796,138.480765 156.928438,137.195326 C156.976804,137.077334 156.939651,136.913336 156.813265,136.930306 C156.688346,136.962131 156.581145,137.042192 156.515166,137.152936 C155.892653,137.989674 155.840377,139.105879 155.812403,140.14841 C155.765153,141.117054 155.781708,142.087758 155.86196,143.054228 C155.915222,143.560563 156.003484,144.062923 156.048884,144.570028 C156.108516,145.516184 156.09351,146.465567 156.004006,147.409365 L155.686157,152.053581 C155.643058,152.43754 155.666203,152.826049 155.754582,153.202176 C155.958621,153.853046 156.058003,154.53219 156.049014,155.214233 C155.965385,158.019608 156.207927,160.825201 156.771764,163.574602 C156.926962,164.333688 157.106442,165.088028 157.238163,165.851537 C157.548581,167.650864 157.591103,169.484248 157.63288,171.309679 C157.658568,172.432128 157.676906,173.594788 157.23474,174.626797 C157.061974,174.944929 156.935137,175.285928 156.858007,175.639633 C156.856441,175.822031 156.832192,176.003525 156.785818,176.179936 C156.656037,176.513948 156.266603,176.656221 155.916473,176.732472 C155.258606,176.875578 154.583623,176.92365 153.912115,176.875219 C153.754453,176.872606 153.598956,176.838074 153.455008,176.773708 C153.204554,176.643948 153.071575,176.368914 152.881103,176.160869 C152.470224,175.712092 151.787194,175.574643 151.412867,175.094954 C150.944817,174.495161 151.141346,173.62594 151.419941,172.917979 C151.698537,172.210018 152.043428,171.441147 151.803606,170.719131 C151.520928,169.868096 150.518948,169.409883 150.249962,168.554424 C151.017676,165.104501 149.132352,161.536374 149.293932,158.005749 C149.331567,157.183392 149.474304,156.366911 149.477164,155.5437 C149.484526,153.423129 148.566014,151.359796 148.717105,149.244602 C149.101065,143.869355 147.270326,138.503267 146.494753,133.170426 C146.347708,132.374428 146.29281,131.564146 146.331144,130.755589 C146.446244,129.420744 147.065951,128.178433 147.8112,127.065033 C148.345171,126.267283 148.987296,125.486473 149.871766,125.113305 C150.600135,124.805996 151.416284,124.807296 152.206804,124.81342 C154.179134,124.828698 156.151504,124.843976 158.123575,124.879437 C159.465622,124.860548 160.806024,124.980499 162.123392,125.237375 C163.190138,125.48143 164.188175,125.978825 165.27143,126.133907 Z" id="Path" fill="#2F2E41" fill-rule="nonzero"></path>
                <path d="M133.404518,101.629266 C133.21354,100.694284 133.574529,99.6940979 133.292133,98.782551 C133.190306,98.4538507 132.940133,98.1122197 132.59616,98.1217457 C132.261904,98.1310066 132.035785,98.4582008 131.739483,98.6131702 C131.261883,98.8629587 130.681774,98.6360933 130.20447,98.385739 C129.727166,98.1353848 129.195041,97.8520999 128.677373,98.0021611 C128.616453,98.3264399 128.835321,98.6356116 129.073596,98.8638532 C129.337433,99.0632145 129.555827,99.3164368 129.714269,99.6066972 C129.791868,99.9204992 129.821372,100.244265 129.801771,100.566924 C129.855971,101.307599 130.325087,101.945285 130.793731,102.521402 C131.548859,103.449681 132.350742,104.338929 133.196267,105.185693 C133.194842,105.184264 134.478986,103.595112 134.454327,103.317523 C134.43107,103.055742 133.999006,102.810777 133.842049,102.599699 C133.627115,102.312038 133.477775,101.980804 133.404518,101.629266 L133.404518,101.629266 Z" id="Path" fill="#A1616A" fill-rule="nonzero"></path>
                <path d="M171.646348,121.201042 C171.760837,121.498148 171.846627,121.80553 171.902546,122.118983 C172.23381,123.724641 172.442645,125.352673 172.648514,126.979179 C172.703456,127.413257 172.758265,127.848012 172.775222,128.285224 C172.833459,129.323368 172.619888,130.358748 172.155599,131.289108 C171.68348,132.221821 170.880771,132.945159 169.904113,133.317971 C169.603275,133.424898 169.182775,133.444353 169.051412,133.153359 C169.004645,133.018755 169.005686,132.872147 169.05436,132.738221 C169.173081,132.305054 169.414766,131.916356 169.571544,131.495471 C169.804162,130.866729 169.842961,130.182691 169.682933,129.531677 C169.621165,129.282775 169.490923,129.004987 169.23932,128.955344 C169.364888,129.529404 169.259132,130.129824 168.944977,130.626432 C168.873449,130.764821 168.750151,130.869354 168.601924,130.917276 C168.387716,130.938714 168.187123,130.809259 168.118415,130.60524 C168.057009,130.40505 168.043642,130.193206 168.079399,129.986886 C168.160091,128.943535 168.318935,127.907708 168.554595,126.888122 C168.835079,125.768965 169.279684,124.664824 169.251154,123.511407 C169.225298,122.466147 168.808884,121.43999 168.925517,120.400935 C168.927127,120.336725 168.947832,120.27445 168.98499,120.222059 C169.02154,120.185542 169.066123,120.158078 169.115178,120.14186 C169.407016,120.021205 169.707205,119.921833 170.013392,119.844523 C170.194246,119.798843 170.812051,119.58433 170.985339,119.680275 C171.125757,119.758002 171.169042,120.223555 171.239162,120.381147 C171.363282,120.660145 171.528713,120.918828 171.646348,121.201042 Z" id="Path" fill="#A1616A" fill-rule="nonzero"></path>
                <circle id="Oval" fill="#A1616A" fill-rule="nonzero" cx="151.021277" cy="85.9702217" r="4.2679103"></circle>
                <path d="M154.845395,89.0589144 C154.844855,89.3308995 154.866454,89.6024774 154.909977,89.8709582 C154.968811,90.142553 155.052092,90.4082689 155.158805,90.6648573 C155.301495,91.0820771 155.502741,91.4769071 155.756509,91.8375102 C156.014427,92.2003803 156.400432,92.451862 156.836575,92.5411723 C153.919407,93.9084559 150.80535,94.8084379 147.608542,95.208132 C148.112209,94.8730484 148.53126,94.4256723 148.832732,93.9011952 C148.992619,93.5644371 149.101839,93.20589 149.156848,92.837184 C149.429132,91.2943036 149.290848,89.7069462 148.755872,88.2343909 C148.702864,88.0891769 148.651058,87.9109811 148.751402,87.7933894 C148.794112,87.7499284 148.845805,87.7163275 148.902862,87.6949388 C150.17043,87.1582971 151.539321,86.9030007 152.915115,86.946659 C153.266715,86.9490953 153.61817,86.9646458 153.96884,86.9899567 C154.157441,87.0035703 154.574049,86.9639067 154.723976,87.1020413 C154.902938,87.2669241 154.813252,87.7785703 154.818863,88.0021305 L154.845395,89.0589144 Z" id="Path" fill="#A1616A" fill-rule="nonzero"></path>
                <path d="M157.103445,92.1638685 C155.81172,90.5082371 153.557603,89.9465846 151.640064,90.8025714 C149.608565,91.7723522 148.608323,94.1010245 146.821654,95.4704281 C146.415266,95.7744706 145.982263,96.0412095 145.527915,96.2673981 C145.259717,96.4155855 144.973631,96.5287885 144.676651,96.6042406 C144.342676,96.677867 143.994024,96.6676351 143.661521,96.7476504 C143.028019,96.9337243 142.488363,97.3525686 142.15091,97.9200841 C141.983641,98.2168111 141.798226,98.5029357 141.595719,98.7768272 C141.408983,98.9984557 141.177074,99.1775306 140.979641,99.389684 C140.269169,100.153127 140.076274,101.249286 139.914299,102.279518 C139.358386,102.864798 138.751792,103.399757 138.101608,103.878142 C137.897206,104.03543 137.670252,104.160993 137.428402,104.250596 C136.803257,104.453157 136.114075,104.195415 135.581328,103.810686 C135.048581,103.425956 134.614638,102.918764 134.089483,102.523718 C133.606786,103.21355 133.102464,103.905683 132.588157,104.572281 C132.51048,104.699182 132.392246,104.796153 132.252597,104.847495 C132.155971,105.172396 132.387663,105.508973 132.560996,105.800265 L133.491656,107.364182 C133.799279,107.933421 134.17661,108.462126 134.614934,108.938086 C135.059608,109.416698 135.666924,109.712088 136.317964,109.766414 C136.728936,109.762657 137.135857,109.68476 137.519162,109.536468 C139.292495,108.94 140.920691,107.988112 142.607686,107.179085 C142.913266,107.004439 143.255612,106.904051 143.607115,106.886017 C143.968226,106.876405 144.291348,107.108992 144.396853,107.45448 C144.590359,108.431407 144.782548,109.404786 145.048532,110.364506 C145.299382,111.269625 145.532413,112.179431 145.747627,113.093925 C145.891356,113.653498 145.994028,114.22282 146.054824,114.79735 C146.082638,115.123575 146.085624,115.451351 146.088593,115.778746 L146.12448,119.735306 C146.128344,120.161259 145.885505,120.42697 145.698614,120.809755 C145.412186,121.403723 145.369026,122.086062 145.578328,122.711386 C145.683295,123.02 145.847533,123.30515 145.963846,123.609659 C146.245059,124.345877 146.234182,125.156616 146.219534,125.944574 L146.185971,127.750084 C146.177412,127.824823 146.190926,127.900432 146.224845,127.967579 C146.335066,128.139732 146.600663,128.038909 146.768677,127.922472 L147.612918,127.337378 C148.74243,127.493087 149.883535,127.548225 151.022798,127.502143 C154.26291,127.455268 157.50382,127.584174 160.736356,127.810464 C161.814893,127.885963 162.929745,127.967775 163.949286,127.607949 C164.466616,127.425364 164.943267,127.133502 165.472008,126.987176 C165.690258,126.953128 165.897338,126.867858 166.076282,126.738354 C166.372171,126.464653 166.293547,125.984228 166.172885,125.599648 C166.067317,125.26318 165.94745,124.931653 165.813282,124.605066 C165.675137,124.304852 165.562539,123.993528 165.476685,123.674401 C165.31474,122.954179 165.472263,122.12208 165.023891,121.53564 C164.020275,120.222974 164.730637,118.203377 164.309475,116.605578 C164.173203,116.088583 163.971809,115.590153 163.844093,115.070976 C163.763925,114.745066 163.713239,114.412742 163.662645,114.080951 C163.530568,113.363254 163.46504,112.634896 163.466896,111.90515 C163.479128,111.540013 163.525076,111.176942 163.570986,110.814493 L163.889794,108.297523 C164.288434,109.041809 164.56547,109.845063 164.710405,110.67685 C165.000562,111.919205 165.357853,113.144918 165.780706,114.348593 C166.021081,115.074483 166.261488,115.800474 166.521106,116.519704 C166.685542,116.929064 166.812162,117.352616 166.899383,117.785059 C166.956837,118.133871 166.958443,118.489406 166.998802,118.840614 C167.086168,119.593683 167.349669,120.315589 167.767966,120.947864 C167.845313,121.094457 167.973241,121.207992 168.127984,121.267378 C168.232488,121.28673 168.340004,121.28236 168.442592,121.25459 C169.569296,121.032125 170.659808,120.654857 171.683114,120.133514 C171.901047,120.043547 172.090269,119.895765 172.230354,119.706121 C172.505838,119.258344 172.197847,118.698764 172.063942,118.190372 C171.920413,117.645408 171.953851,116.98974 171.524697,116.624513 C170.030125,115.352645 170.772016,112.770349 170.023981,110.956007 C169.892683,110.637548 169.739684,110.327719 169.626463,110.002388 C169.539903,109.753662 169.477138,109.497434 169.413965,109.241776 C168.891784,107.128521 168.332898,105.024792 167.737309,102.930589 C167.119776,100.759258 167.185879,98.4975943 166.408476,96.378239 C166.262331,95.9340217 166.071482,95.5057827 165.838861,95.1001045 C165.575781,94.6762384 165.224271,94.3141813 164.808366,94.0386876 C163.680107,93.292686 162.54119,92.6573471 161.215963,92.3866845 C159.890736,92.1160219 158.456019,92.1578976 157.103445,92.1638685 Z" id="Path" fill="#D0CDE1" fill-rule="nonzero"></path>
                <path d="M147.142841,87.0146916 C146.569121,86.7056728 146.720265,85.8666896 146.622762,85.2223726 C146.422164,83.8967584 144.924123,83.1103338 144.572446,81.8165749 C144.976461,81.8662202 145.38642,81.8081789 145.760775,81.6483333 C145.833027,81.2187687 145.747987,80.777555 145.521254,80.4056167 C146.7533,79.905107 147.7504,78.9229664 149.001397,78.4719011 C150.574587,77.9046611 152.326555,78.2527956 153.913547,78.7801911 C154.705357,79.0433282 155.529353,79.3849032 156.008063,80.0683078 C156.533871,80.8189475 156.525902,81.8069164 156.497655,82.7229613 C156.453354,84.1596407 156.396674,85.6478491 155.757018,86.9350331 C154.942594,88.5738991 152.63684,90.0918451 150.731789,89.6478721 C149.939485,89.4632288 149.706305,88.9657671 149.372357,88.2772579 C149.164508,87.8487258 149.086425,87.3512385 148.618433,87.1283563 C148.161078,86.9105352 147.607044,87.2647146 147.142841,87.0146916 Z" id="Path" fill="#2F2E41" fill-rule="nonzero"></path>
                <g id="Group" opacity="0.1" transform="translate(145.259939, 117.482161)" fill="#000000" fill-rule="nonzero">
                    <path d="M19.1892661,0.133068298 C19.1945685,0.246423717 19.1977514,0.360497791 19.198815,0.47529052 C19.1934327,0.362217125 19.190553,0.248007136 19.1892661,0.133068298 Z" id="Path"></path>
                    <path d="M0.703916922,4.42033129 C0.985135066,5.15654944 0.974260958,5.96728848 0.95959735,6.75524465 C0.955769623,6.96092932 0.951942745,7.166614 0.948116718,7.37229867 C0.930197757,6.94739497 0.847859233,6.52767593 0.703916922,6.1274949 C0.587594292,5.8229842 0.423381753,5.5378262 0.31838685,5.22922273 C0.138281065,4.68983387 0.144874069,4.10553668 0.337104995,3.57034913 C0.442173802,3.86035678 0.593771662,4.13196228 0.703916922,4.42033129 Z" id="Path"></path>
                </g>
                <g id="Group" opacity="0.1" transform="translate(145.514781, 80.275229)" fill="#000000" fill-rule="nonzero">
                    <path d="M0.245986239,0.752311417 L0.24185525,0.753922018 C0.202983274,0.533211332 0.123151946,0.321724004 0.00648318043,0.130379715 C0.0788583078,0.100976045 0.150237003,0.0696330275 0.221090724,0.0371075433 C0.277202101,0.271435905 0.285668086,0.514648591 0.245986239,0.752311417 L0.245986239,0.752311417 Z" id="Path"></path>
                </g>
                <path d="M11.268262,72.3271279 L10.2623522,71.4196916 C6.69017074,68.1400076 4.3318629,66.0113328 4.3318629,63.3596611 C4.31398736,62.3403654 4.70942077,61.3572305 5.42809436,60.6341873 C6.14676795,59.9111441 7.12748778,59.5097585 8.14687309,59.5214551 C9.35206854,59.5278739 10.4935043,60.0638001 11.2682518,60.9870031 C12.0429869,60.0637826 13.184432,59.5278524 14.389633,59.5214551 C15.4090183,59.5097558 16.3897392,59.9111388 17.1084147,60.6341801 C17.8270902,61.3572213 18.2225262,62.3403552 18.2046534,63.3596509 C18.2046534,66.0113558 15.8463099,68.1400306 12.2741641,71.4196814 L11.268262,72.3271279 Z" id="Path" fill="#FF6584" fill-rule="nonzero"></path>
                <path d="M13.052156,70.0335499 L12.0462462,69.1261137 C8.47406473,65.8464297 6.11575688,63.7177548 6.11575688,61.0660831 C6.09788135,60.0467874 6.49331476,59.0636525 7.21198835,58.3406093 C7.93066193,57.6175661 8.91138177,57.2161806 9.93076707,57.2278772 C11.1359625,57.2342959 12.2773983,57.7702222 13.0521458,58.6934251 C13.8268808,57.7702046 14.968326,57.2342744 16.173527,57.2278772 C17.1929123,57.2161779 18.1736332,57.6175608 18.8923087,58.3406021 C19.6109842,59.0636434 20.0064202,60.0467772 19.9885474,61.0660729 C19.9885474,63.7177778 17.6302039,65.8464526 14.0580581,69.1261035 L13.052156,70.0335499 Z" id="Path" stroke="#3F3D56" stroke-width="0.589622642"></path>
            </g>
        </g>
    </g>
</svg>