<?xml version="1.0" encoding="UTF-8"?>
<svg width="28px" height="16px" viewBox="0 0 28 16" version="1.1" xmlns="http://www.w3.org/2000/svg" xmlns:xlink="http://www.w3.org/1999/xlink">
    <!-- Generator: Sketch 56.3 (81716) - https://sketch.com -->
    <title>weightlifting (1)</title>
    <desc>Created with Sketch.</desc>
    <g id="Page-1" stroke="none" stroke-width="1" fill="none" fill-rule="evenodd">
        <g id="Cards" transform="translate(-40.000000, -741.000000)" fill="#298693" fill-rule="nonzero">
            <g id="Transactions" transform="translate(30.000000, 597.000000)">
                <g id="Sport" transform="translate(0.000000, 128.000000)">
                    <g id="Shopping">
                        <g id="weightlifting-(1)">
                            <g transform="translate(10.000000, 16.000000)">
                                <path d="M27.5716942,5.43646993 C27.2807612,5.08146058 26.8712676,4.87815322 26.4482117,4.87815322 L25.8120967,4.87815322 L25.8120967,4.35587129 C25.8120967,3.4176323 25.0106092,2.65378386 24.0258121,2.65378386 L23.1871377,2.65378386 L23.1871377,1.68974218 C23.1871377,1.23597083 22.9968282,0.793321331 22.6656458,0.474791639 C22.0067811,-0.15826388 20.8679864,-0.15826388 20.2091217,0.474791639 C19.8775019,0.793766205 19.6871924,1.23641571 19.6871924,1.69018706 L19.6871924,6.21321971 L8.31237012,6.21321971 L8.31237012,1.69018706 C8.31237012,1.23641571 8.12249809,0.793766205 7.79087827,0.475236513 C7.13201356,-0.157819006 5.99321886,-0.157819006 5.33435415,0.475236513 C5.00273433,0.793766205 4.81242481,1.23641571 4.81242481,1.69018706 L4.81242481,2.65422873 L3.8718145,2.65422873 C3.42950891,2.65422873 3.01126545,2.8166077 2.69364541,3.11155907 C2.37208794,3.41184894 2.18746582,3.83092012 2.18746582,4.26066828 L2.18746582,4.87815322 L1.55747566,4.87815322 C1.13223231,4.87815322 0.720988735,5.08235032 0.429180794,5.4386943 C0.152685114,5.77679844 0,6.22122743 0,6.68967962 L0,9.29486101 C0,9.7633132 0.152685114,10.2077422 0.429618287,10.5458463 C0.721426228,10.9021903 1.1326698,11.1063874 1.55747566,11.1063874 L2.18746582,11.1063874 L2.18746582,11.7238723 C2.18746582,12.1536205 2.37208794,12.5726917 2.6945204,12.8738713 C3.01126545,13.1683778 3.42950891,13.3307568 3.8718145,13.3307568 L4.81242481,13.3307568 L4.81242481,14.2947985 C4.81242481,14.7485698 5.00273433,15.1912193 5.33391666,15.5093041 C5.66334901,15.8256094 6.09952969,16 6.56239746,16 C7.02526523,16 7.46144591,15.8256094 7.79087827,15.5093041 C8.12249809,15.1907744 8.31237012,14.7481249 8.31237012,14.2947985 L8.31237012,9.7717658 L19.6871924,9.7717658 L19.6871924,14.2947985 C19.6871924,14.7485698 19.8775019,15.1912193 20.2086842,15.5093041 C20.5381166,15.8256094 20.9742973,16 21.437165,16 C21.9000328,16 22.3362135,15.8256094 22.6656458,15.5093041 C22.9968282,15.1907744 23.1871377,14.7481249 23.1871377,14.2947985 L23.1871377,13.3307568 L24.0258121,13.3307568 C25.0106092,13.3307568 25.8120967,12.5673532 25.8120967,11.6286693 L25.8120967,11.1063874 L26.4482117,11.1063874 C26.8712676,11.1063874 27.2807612,10.9026352 27.5721317,10.5480707 C27.8477524,10.2113012 28,9.76909656 28,9.30242387 L28,6.68256164 C27.9995625,6.21588895 27.8477524,5.77323945 27.5716942,5.43646993 Z M1.55747566,10.2166397 C1.39079077,10.2166397 1.2289183,10.1312239 1.10204528,9.97640778 C0.957672536,9.8006826 0.874986328,9.55199811 0.874986328,9.29486101 L0.874986328,6.68967962 C0.874986328,6.43254252 0.957672536,6.1843029 1.10204528,6.00813285 C1.2289183,5.85331674 1.39079077,5.76790096 1.55747566,5.76790096 L2.18746582,5.76790096 L2.18746582,10.2166397 L1.55747566,10.2166397 Z M3.8718145,12.441009 C3.65175544,12.441009 3.43782128,12.3595971 3.28601116,12.2181272 C3.14163841,12.0833304 3.06245215,11.9080501 3.06245215,11.7238723 L3.06245215,10.6615135 L3.06245215,5.32302709 L3.06245215,4.26066828 C3.06245215,4.0764905 3.14163841,3.90076532 3.28513617,3.76685829 C3.43825878,3.62494352 3.65175544,3.5435316 3.8718145,3.5435316 L4.81242481,3.5435316 L4.81242481,12.441009 L3.8718145,12.441009 Z M7.43738379,14.2947985 C7.43738379,14.507893 7.34944766,14.7094209 7.19020015,14.8624575 C6.86208028,15.1774282 6.26315214,15.1774282 5.93503227,14.8624575 C5.77534726,14.7094209 5.68741113,14.5074482 5.68741113,14.2947985 L5.68741113,12.8858829 L5.68741113,3.09865773 L5.68741113,1.68974218 C5.68741113,1.4766476 5.77534726,1.27511973 5.93459477,1.12208312 C6.09865471,0.964597771 6.32746363,0.874288376 6.56239746,0.874288376 C6.79733129,0.874288376 7.02614022,0.964597771 7.19020015,1.12208312 C7.34944766,1.27511973 7.43738379,1.47709247 7.43738379,1.69018706 L7.43738379,6.65809358 L7.43738379,9.3273368 L7.43738379,14.2947985 Z M8.31237012,8.88201806 L8.31237012,7.10252257 L19.6871924,7.10252257 L19.6871924,8.88201806 L8.31237012,8.88201806 Z M22.3121514,14.2947985 C22.3121514,14.507893 22.2242152,14.7094209 22.0649677,14.8624575 C21.7368479,15.1774282 21.1379197,15.1774282 20.8097998,14.8624575 C20.6501148,14.7094209 20.5621787,14.5074482 20.5621787,14.2947985 L20.5621787,9.32689193 L20.5621787,6.6576487 L20.5621787,1.69018706 C20.5621787,1.47709247 20.6501148,1.27556461 20.8093624,1.122528 C20.9734223,0.965042645 21.2022312,0.874733249 21.437165,0.874733249 C21.6720989,0.874733249 21.9009078,0.965042645 22.0649677,1.122528 C22.2242152,1.27511973 22.3121514,1.47709247 22.3121514,1.69018706 L22.3121514,3.09910261 L22.3121514,12.8863278 L22.3121514,14.2947985 Z M24.9371104,11.6286693 C24.9371104,12.0766573 24.5284917,12.441009 24.0258121,12.441009 L23.1871377,12.441009 L23.1871377,3.5435316 L24.0258121,3.5435316 C24.5280542,3.5435316 24.9371104,3.9078833 24.9371104,4.35587129 L24.9371104,5.32302709 L24.9371104,10.6615135 L24.9371104,11.6286693 Z M27.1245762,9.30197899 C27.1245762,9.5573366 27.0423275,9.80335185 26.8997047,9.97818728 C26.7737067,10.1321136 26.6131467,10.2166397 26.4482117,10.2166397 L25.8120967,10.2166397 L25.8120967,5.76790096 L26.4482117,5.76790096 C26.6131467,5.76790096 26.7737067,5.852427 26.8997047,6.00635335 C27.042765,6.18074391 27.1245762,6.42720404 27.1245762,6.68256164 L27.1245762,9.30197899 Z" id="Clocks"></path>
                            </g>
                        </g>
                    </g>
                </g>
            </g>
        </g>
    </g>
</svg>