<?xml version="1.0" encoding="UTF-8"?>
<svg width="24px" height="24px" viewBox="0 0 24 24" version="1.1" xmlns="http://www.w3.org/2000/svg" xmlns:xlink="http://www.w3.org/1999/xlink">
    <!-- Generator: Sketch 56.3 (81716) - https://sketch.com -->
    <title>airplane (2)</title>
    <desc>Created with Sketch.</desc>
    <g id="Page-1" stroke="none" stroke-width="1" fill="none" fill-rule="evenodd">
        <g id="Transactions" transform="translate(-41.000000, -660.000000)" fill="#A73131" fill-rule="nonzero">
            <g id="Transaction-Card" transform="translate(0.000000, 271.000000)">
                <g id="Transactions" transform="translate(30.000000, 121.000000)">
                    <g id="Travel" transform="translate(0.000000, 256.000000)">
                        <g id="Shopping">
                            <g id="airplane-(2)">
                                <g transform="translate(11.000000, 12.000000)">
                                    <path d="M20.2659615,8.49566559 L22.0670277,6.89439142 L22.0738833,6.88871102 C23.5219836,5.54716644 24.2191011,3.58019452 23.9391963,1.62595439 L23.8737743,1.16192766 C23.7952286,0.634437586 23.3811498,0.220162962 22.8536598,0.141421379 L22.3931588,0.0763910883 C20.4350012,-0.204101226 18.4641117,0.495954288 17.121196,1.94855974 L15.5199218,3.74982183 L14.6545482,3.25190877 C12.3763316,1.94522988 9.79509719,1.25966906 7.16881161,1.26339064 L6.42409666,1.2661329 C5.71013404,1.26946276 5.05140801,1.65122224 4.69354525,2.26901045 L4.55329914,2.51267836 C4.44282586,2.70443953 4.50844384,2.94947851 4.70000915,3.06014766 L12.3428371,7.47280887 L6.37042706,14.2394901 L5.91306004,14.8275054 C4.67278258,14.1480167 3.28148584,13.7911333 1.86707594,13.7897621 L1.26299891,13.7870199 C0.83540482,13.7919168 0.441305284,14.0201106 0.224472176,14.3887465 L0.0538655058,14.6807954 C0.000587626071,14.7728564 -0.0139071035,14.8825461 0.0137112416,14.9853802 C0.0411336244,15.0882144 0.10851446,15.1759662 0.200771372,15.2290481 L4.09181872,17.475533 C3.9815414,17.6888404 3.87694438,17.9027354 3.78174939,18.1225066 C3.5725554,18.6180691 3.6238745,19.1853217 3.91866569,19.6352455 C4.21345684,20.0851693 4.71293684,20.358806 5.2508083,20.3650739 C5.4715589,20.3646822 5.68995895,20.3192393 5.89268909,20.2318793 C5.90287457,20.2277659 5.91306004,20.2230649 5.92265788,20.2177763 C6.12323339,20.1315915 6.32988102,20.0301285 6.53966265,19.9218099 L8.78614752,23.8128573 C8.83903367,23.9055059 8.92658954,23.9734744 9.02961956,24.0012886 C9.13264954,24.0292986 9.24253513,24.0149998 9.3349879,23.9617219 L9.62977909,23.7913111 L9.63212959,23.7913111 C10.0005696,23.5725192 10.227784,23.1766568 10.2307221,22.7482792 L10.2279799,22.1516455 C10.226217,20.7360603 9.86835424,19.3435883 9.18729854,18.1025274 L9.76689126,17.6516242 L16.5388611,11.6721627 L20.9538728,19.3159701 C21.0647378,19.5075353 21.3097768,19.5733491 21.5015379,19.4628759 L21.74501,19.3228256 C22.3629941,18.964767 22.7447535,18.3058451 22.7478875,17.5914907 L22.750238,16.8477552 C22.7610111,14.2206861 22.0750585,11.6374929 20.7625034,9.36182275 L20.2659615,8.49566559 Z M6.42703479,2.06843494 L7.17155383,2.0656557 C9.65661389,2.06001233 12.0991691,2.70894465 14.2537889,3.94706749 L14.9855761,4.36800182 L12.8779662,6.85835051 L5.45295081,2.57026544 C5.67879412,2.25706212 6.04077023,2.07058958 6.42703479,2.06843494 Z M1.26495763,14.589322 L1.86668416,14.5920642 C3.10382769,14.5922601 4.32236307,14.8927316 5.41769339,15.4678192 L5.16579873,15.7923833 C5.02006809,15.9765053 4.8817807,16.1710087 4.74701903,16.3708007 C4.70686477,16.4285837 4.67082386,16.487542 4.63262831,16.5465002 C4.58326793,16.6230871 4.53155706,16.6969318 4.48376368,16.7754775 L0.953713031,14.7387742 C1.03010412,14.6451462 1.14410307,14.5903013 1.26495763,14.589322 L1.26495763,14.589322 Z M9.42352324,22.1522331 L9.42646132,22.7449494 C9.42646132,22.8677627 9.37122473,22.9839163 9.27642146,23.0614826 L7.24010994,19.531432 C7.31787211,19.4840304 7.39093329,19.4334948 7.46673675,19.3845261 C7.52647846,19.3445677 7.58719959,19.3079392 7.64576603,19.2681766 C7.84026947,19.1375284 8.02928837,19.0031584 8.2073383,18.8631082 L8.21928663,18.8542938 L8.54835583,18.5982858 C9.12363933,19.6945955 9.42391496,20.9141102 9.42352324,22.1522331 Z M9.25467937,17.033836 L8.42906826,17.6757168 C8.42710954,17.6757168 8.42436727,17.6757168 8.42240855,17.6792425 L7.72274476,18.2249489 C7.33608843,18.5279668 6.92592721,18.8000365 6.49598262,19.0380241 C6.19903684,19.2062803 5.89327673,19.3586707 5.58026922,19.4946076 C5.57125902,19.4981333 5.5628364,19.5020508 5.55402206,19.5065559 C5.25217943,19.6231013 4.90979072,19.5476896 4.68473091,19.3153824 C4.45947524,19.0828793 4.39503253,18.7383361 4.52117567,18.4402151 C4.65789611,18.1248571 4.81106996,17.8169423 4.98050146,17.517646 C5.21888074,17.0857427 5.49134221,16.6736227 5.79553533,16.2853995 L6.33712837,15.5904366 C6.33712837,15.5904366 6.33712837,15.5861274 6.34026236,15.5841686 L6.98821528,14.7497432 L17.7150876,2.48780228 C18.7011199,1.42400779 20.0853652,0.818559636 21.5360118,0.81699264 C21.7843807,0.81699264 22.0323579,0.834817234 22.2781804,0.870662234 L22.7386814,0.935692575 C22.9145767,0.961743924 23.0532559,1.09944367 23.0798948,1.27553488 L23.1453169,1.73916989 C23.3870261,3.43132989 22.7833408,5.13445881 21.5299397,6.29658233 L9.25467937,17.033836 Z M21.9471525,17.5891403 C21.9449978,17.9750131 21.7583294,18.3367933 21.4449302,18.5622449 L17.1574328,11.1352706 L19.648565,9.02961956 L20.0700869,9.76219027 C21.3119314,11.9160265 21.9604719,14.3607364 21.949503,16.8469717 L21.9471525,17.5891403 Z" id="Shape"></path>
                                    <path d="M19.3761035,2.99080805 C19.8491405,2.71090337 20.4518464,2.78709855 20.8402656,3.17590951 C21.2286847,3.56491628 21.3044882,4.16742631 21.0239959,4.64026738 C20.9109762,4.83085333 20.973852,5.07687173 21.164242,5.19008717 C21.3548279,5.30310676 21.6010422,5.24042691 21.7140618,5.04984102 C22.1814184,4.26203372 22.0556669,3.25758917 21.4083017,2.60924448 C20.7609364,1.96109571 19.7566877,1.83377724 18.9680969,2.29995865 C18.8431289,2.37204048 18.766542,2.50582274 18.7675121,2.64998638 C18.7683048,2.79434589 18.8466546,2.92695298 18.972602,2.99746781 C19.0985493,3.06798264 19.2527026,3.06543623 19.3761035,2.99080805 L19.3761035,2.99080805 Z" id="Path"></path>
                                </g>
                            </g>
                        </g>
                    </g>
                </g>
            </g>
        </g>
    </g>
</svg>