<?xml version="1.0" encoding="UTF-8"?>
<svg width="33px" height="27px" viewBox="0 0 33 27" version="1.1" xmlns="http://www.w3.org/2000/svg" xmlns:xlink="http://www.w3.org/1999/xlink">
    <!-- Generator: Sketch 56.3 (81716) - https://sketch.com -->
    <title>camera</title>
    <desc>Created with Sketch.</desc>
    <g id="Page-1" stroke="none" stroke-width="1" fill="none" fill-rule="evenodd">
        <g id="Profile" transform="translate(-172.000000, -143.000000)" fill="#3A3A3A" fill-rule="nonzero">
            <g id="Profile-Image" transform="translate(115.000000, 84.000000)">
                <g id="camera" transform="translate(57.000000, 59.000000)">
                    <path d="M31.8869359,4.26144578 C31.2285036,3.54578313 30.3192399,3.12289157 29.2845606,3.12289157 L24.07981,3.12289157 L24.07981,3.05783133 C24.07981,2.24457831 23.7662708,1.46385542 23.2332542,0.943373494 C22.7002375,0.390361446 21.9790974,0.065060241 21.1952494,0.065060241 L11.7890736,0.065060241 C10.9738717,0.065060241 10.2527316,0.390361446 9.71971496,0.943373494 C9.18669834,1.49638554 8.87315914,2.24457831 8.87315914,3.05783133 L8.87315914,3.12289157 L3.69976247,3.12289157 C2.66508314,3.12289157 1.75581948,3.54578313 1.09738717,4.26144578 C0.438954869,4.94457831 2.84217094e-14,5.92048193 2.84217094e-14,6.96144578 L2.84217094e-14,23.1614458 C2.84217094e-14,24.2349398 0.40760095,25.1783133 1.09738717,25.8614458 C1.75581948,26.5445783 2.69643705,27 3.69976247,27 L29.2845606,27 C30.3192399,27 31.2285036,26.5771084 31.8869359,25.8614458 C32.5453682,25.1783133 32.984323,24.2024096 32.984323,23.1614458 L32.984323,6.96144578 C32.984323,5.88795181 32.5767221,4.94457831 31.8869359,4.26144578 Z M31.3539192,23.1614458 L31.3225653,23.1614458 C31.3225653,23.746988 31.1030879,24.2674699 30.7268409,24.6578313 C30.3505938,25.0481928 29.8489311,25.2759036 29.2845606,25.2759036 L3.69976247,25.2759036 C3.13539192,25.2759036 2.63372922,25.0481928 2.25748219,24.6578313 C1.88123515,24.2674699 1.66175772,23.746988 1.66175772,23.1614458 L1.66175772,6.96144578 C1.66175772,6.37590361 1.88123515,5.85542169 2.25748219,5.46506024 C2.63372922,5.0746988 3.13539192,4.84698795 3.69976247,4.84698795 L9.75106888,4.84698795 C10.2213777,4.84698795 10.5976247,4.45662651 10.5976247,3.9686747 L10.5976247,3.0253012 C10.5976247,2.66746988 10.7230404,2.34216867 10.9425178,2.11445783 C11.1619952,1.88674699 11.4755344,1.75662651 11.8204276,1.75662651 L21.1952494,1.75662651 C21.5401425,1.75662651 21.8536817,1.88674699 22.0731591,2.11445783 C22.2926366,2.34216867 22.4180523,2.66746988 22.4180523,3.0253012 L22.4180523,3.9686747 C22.4180523,4.45662651 22.7942993,4.84698795 23.2646081,4.84698795 L29.3159145,4.84698795 C29.880285,4.84698795 30.3819477,5.0746988 30.7581948,5.46506024 C31.1344418,5.85542169 31.3539192,6.37590361 31.3539192,6.96144578 L31.3539192,23.1614458 Z" id="Shape"></path>
                    <path d="M16.4921615,7.05903614 C14.360095,7.05903614 12.416152,7.96987952 11.0365796,9.40120482 C9.62565321,10.8650602 8.77909739,12.8493976 8.77909739,15.0614458 C8.77909739,17.273494 9.65700713,19.2903614 11.0365796,20.7216867 C12.4475059,22.1855422 14.360095,23.0638554 16.4921615,23.0638554 C18.624228,23.0638554 20.568171,22.153012 21.9477435,20.7216867 C23.3586698,19.2578313 24.2052257,17.273494 24.2052257,15.0614458 C24.2052257,12.8493976 23.3273159,10.8325301 21.9477435,9.40120482 C20.568171,7.96987952 18.624228,7.05903614 16.4921615,7.05903614 Z M20.7562945,19.5180723 C19.6589074,20.6240964 18.1539192,21.339759 16.4921615,21.339759 C14.8304038,21.339759 13.3254157,20.6240964 12.2280285,19.5180723 C11.1306413,18.3795181 10.472209,16.8180723 10.472209,15.0939759 C10.472209,13.3698795 11.1619952,11.8084337 12.2280285,10.6698795 C13.3254157,9.5313253 14.8304038,8.84819277 16.4921615,8.84819277 C18.1539192,8.84819277 19.6589074,9.56385542 20.7562945,10.6698795 C21.8536817,11.8084337 22.512114,13.3698795 22.512114,15.0939759 C22.5434679,16.8180723 21.8536817,18.3795181 20.7562945,19.5180723 Z" id="Shape"></path>
                    <ellipse id="Oval" cx="27.6541568" cy="8.62048193" rx="1.53634204" ry="1.5939759"></ellipse>
                </g>
            </g>
        </g>
    </g>
</svg>