<?xml version="1.0" encoding="UTF-8"?>
<svg width="18px" height="17px" viewBox="0 0 18 17" version="1.1" xmlns="http://www.w3.org/2000/svg" xmlns:xlink="http://www.w3.org/1999/xlink">
    <!-- Generator: Sketch 56.3 (81716) - https://sketch.com -->
    <title>Eye Icon</title>
    <desc>Created with Sketch.</desc>
    <g id="Page-1" stroke="none" stroke-width="1" fill="none" fill-rule="evenodd">
        <g id="Password-Presented" transform="translate(-312.000000, -542.000000)">
            <g id="Textfields" transform="translate(30.000000, 429.000000)">
                <g id="Password" transform="translate(0.000000, 84.000000)">
                    <g id="Eye-Icon" transform="translate(282.000000, 30.000000)">
                        <path d="M9,2 C5.56090825,2 2.44216017,4.10432395 0.140840749,7.52230611 C-0.0469469162,7.80233356 -0.0469469162,8.19354839 0.140840749,8.47357584 C2.44216017,11.895676 5.56090825,14 9,14 C12.4390917,14 15.5578398,11.895676 17.8591593,8.47769389 C18.0469469,8.19766644 18.0469469,7.80645161 17.8591593,7.52642416 C15.5578398,4.10432395 12.4390917,2 9,2 Z M9.24670144,12.2251201 C6.96379257,12.3857241 5.0785517,10.2814001 5.22215403,7.7240906 C5.33998159,5.61564859 6.86805769,3.90665752 8.75329856,3.77487989 C11.0362074,3.61427591 12.9214483,5.71859986 12.777846,8.2759094 C12.6563363,10.3802334 11.1282602,12.0892244 9.24670144,12.2251201 Z M9.132556,10.273164 C7.9027309,10.3596431 6.88646824,9.22717914 6.96747469,7.85175017 C7.03007057,6.71516815 7.85486346,5.79684283 8.87112611,5.72271791 C10.1009512,5.63623885 11.1172139,6.76870281 11.0362074,8.14413178 C10.9699294,9.28483185 10.1451365,10.2031572 9.132556,10.273164 Z" id="Shape" fill="#292929" fill-rule="nonzero"></path>
                        <path d="M1.57142857,0.571428571 L15.9037007,14.9037007" id="Line-4" stroke="#292929" stroke-width="1.5" stroke-linecap="square"></path>
                    </g>
                </g>
            </g>
        </g>
    </g>
</svg>