<?xml version="1.0" encoding="UTF-8"?>
<svg width="18px" height="12px" viewBox="0 0 18 12" version="1.1" xmlns="http://www.w3.org/2000/svg" xmlns:xlink="http://www.w3.org/1999/xlink">
    <!-- Generator: Sketch 56.3 (81716) - https://sketch.com -->
    <title>Shape</title>
    <desc>Created with Sketch.</desc>
    <g id="Page-1" stroke="none" stroke-width="1" fill="none" fill-rule="evenodd">
        <g id="Sign-in" transform="translate(-312.000000, -545.000000)" fill="#292929" fill-rule="nonzero">
            <g id="Textfields" transform="translate(30.000000, 429.000000)">
                <g id="Password" transform="translate(0.000000, 84.000000)">
                    <path d="M291,32 C287.560908,32 284.44216,34.104324 282.140841,37.5223061 C281.953053,37.8023336 281.953053,38.1935484 282.140841,38.4735758 C284.44216,41.895676 287.560908,44 291,44 C294.439092,44 297.55784,41.895676 299.859159,38.4776939 C300.046947,38.1976664 300.046947,37.8064516 299.859159,37.5264242 C297.55784,34.104324 294.439092,32 291,32 Z M291.246701,42.2251201 C288.963793,42.3857241 287.078552,40.2814001 287.222154,37.7240906 C287.339982,35.6156486 288.868058,33.9066575 290.753299,33.7748799 C293.036207,33.6142759 294.921448,35.7185999 294.777846,38.2759094 C294.656336,40.3802334 293.12826,42.0892244 291.246701,42.2251201 Z M291.132556,40.273164 C289.902731,40.3596431 288.886468,39.2271791 288.967475,37.8517502 C289.030071,36.7151682 289.854863,35.7968428 290.871126,35.7227179 C292.100951,35.6362388 293.117214,36.7687028 293.036207,38.1441318 C292.969929,39.2848318 292.145137,40.2031572 291.132556,40.273164 Z" id="Shape"></path>
                </g>
            </g>
        </g>
    </g>
</svg>